<?xml version="1.0" encoding="UTF-8"?>
<svg width="81px" height="66px" viewBox="0 0 81 66" version="1.1" xmlns="http://www.w3.org/2000/svg" xmlns:xlink="http://www.w3.org/1999/xlink">
    <!-- Generator: Sketch 43.2 (39069) - http://www.bohemiancoding.com/sketch -->
    <title>Artboard</title>
    <desc>Created with Sketch.</desc>
    <defs></defs>
    <g id="Page-1" stroke="none" stroke-width="1" fill="none" fill-rule="evenodd">
        <g id="Artboard" stroke="#075AA8" stroke-width="1.5" fill="#075AA8" fill-rule="nonzero">
            <path d="M40.8160374,3.26775053 C33.0124275,3.26775053 26.6587277,9.26067253 26.6587277,17.1329802 C26.6587277,18.9923851 27.1523257,21.5492444 27.7782514,23.1874638 C31.8887616,31.6836107 36.0326486,40.1829965 40.1629819,48.6764295 C40.4016644,49.1831204 41.2770572,49.1831204 41.5157397,48.6764295 C45.588313,40.1563013 49.8655801,31.7184401 53.9004702,23.1874638 C54.5305157,21.5469668 55.0199939,18.9921559 55.0199939,17.1329802 C54.97581,8.2329891 47.7095193,3.26776532 40.8160374,3.26775053 Z M40.8160374,4.74670836 C47.8528556,4.74670836 53.5272957,10.0460435 53.5272957,17.1329802 C53.5272957,18.6906186 53.0473111,21.215414 52.524389,22.6097459 C48.4693101,30.9876871 44.324438,39.4974995 40.8393608,46.6660081 C36.9988946,38.6224002 32.9594368,30.6682322 29.1543326,22.6097459 C28.6335227,21.21412 28.1514259,18.688903 28.1514259,17.1329802 C28.1514259,10.0438546 33.7793087,4.74670836 40.8160374,4.74670836 Z M40.8393608,9.18358185 C36.3141193,9.18358185 32.6295206,12.8342118 32.6295206,17.3178499 C32.6295206,21.8014141 36.3141118,25.4520958 40.8393608,25.4520958 C45.3647143,25.4520958 49.049201,21.8014067 49.049201,17.3178499 C49.049201,12.8342192 45.3647068,9.18358185 40.8393608,9.18358185 Z M40.8393608,10.6625397 C44.5579781,10.6625397 47.5565028,13.6335219 47.5565028,17.3178499 C47.5565028,21.0020892 44.5579706,23.973138 40.8393608,23.973138 C37.1208704,23.973138 34.1222188,21.0020818 34.1222188,17.3178499 C34.1222188,13.6335293 37.120863,10.6625397 40.8393608,10.6625397 Z M13.9707929,32.8469219 C13.529917,32.8469219 13.2662095,33.13066 13.2244438,33.4708942 L8.74634896,63.0500509 C8.67872973,63.4736983 9.05984544,63.9102867 9.49269829,63.9051103 L72.1860234,63.9051103 C72.618876,63.9125051 72.9999917,63.4736983 72.9323725,63.0500509 L68.4542778,33.4708942 C68.3988241,33.123635 68.0627207,32.842633 67.7079287,32.8469219 L50.868427,32.8469219 L50.1454013,34.3258798 L67.0548733,34.3258798 L68.1743969,41.7207429 L47.626473,41.7207429 L46.9500941,40.8888291 L46.2270684,42.3677869 L62.4135147,62.4261525 L38.2038155,62.4261525 L28.268043,50.1091699 L36.0347384,43.5925119 L35.3583595,42.1829172 L27.3117832,48.9306623 L15.5334613,34.3258798 L31.5333203,34.3258798 L30.8102946,32.8469219 L13.9707929,32.8469219 Z M14.4605845,35.3888807 L36.2912959,62.4261525 L10.3556645,62.4261525 L14.4605845,35.3888807 L14.4605845,35.3888807 Z M48.8159669,43.1997007 L68.407631,43.1997007 L69.7603888,52.0734477 L55.9762537,52.0734477 L48.8159669,43.1997007 L48.8159669,43.1997007 Z M57.1657476,53.5524055 L69.9702995,53.5524055 L71.3230572,62.4261525 L64.3260343,62.4261525 L57.1657476,53.5524055 Z" id="Shape"></path>
        </g>
    </g>
</svg>