<?xml version="1.0" encoding="UTF-8"?>
<svg width="65px" height="61px" viewBox="0 0 65 61" version="1.1" xmlns="http://www.w3.org/2000/svg" xmlns:xlink="http://www.w3.org/1999/xlink">
    <!-- Generator: Sketch 47.1 (45422) - http://www.bohemiancoding.com/sketch -->
    <title>icon-question-1</title>
    <desc>Created with Sketch.</desc>
    <defs></defs>
    <g id="Wireframes" stroke="none" stroke-width="1" fill="none" fill-rule="evenodd">
        <path d="M13.1425298,44.3156192 C13.4269657,44.0000994 13.831847,43.8199792 14.2566488,43.8199792 L61.2872819,43.8199792 L61.2872819,3.63072017 L3.01852559,3.63072017 L3.01852559,55.5460004 L13.1425298,44.3156192 Z M2.63264456,60.4545169 C1.71256829,61.4751414 0.0185255911,60.8242802 0.0185255911,59.4501569 L0.0185255911,2.13072017 C0.0185255911,1.30229305 0.690098466,0.630720175 1.51852559,0.630720175 L62.7872819,0.630720175 C63.615709,0.630720175 64.2872819,1.30229305 64.2872819,2.13072017 L64.2872819,45.3199792 C64.2872819,46.1484063 63.615709,46.8199792 62.7872819,46.8199792 L14.9239564,46.8199792 L2.63264456,60.4545169 Z M33.578,24.7598125 C37.678,23.8988125 40.466,21.1518125 40.466,16.7238125 C40.466,12.3778125 36.694,9.1798125 31.733,9.1798125 C27.92,9.1798125 23.902,11.7628125 23.738,15.3708125 C23.697,16.5188125 24.558,17.2568125 25.501,17.2568125 C26.239,17.2568125 26.731,16.9698125 27.1,15.9038125 C28.002,13.3208125 29.683,12.5418125 31.856,12.5418125 C34.603,12.5418125 36.612,14.2638125 36.612,17.0518125 C36.612,18.5688125 36.079,20.8238125 32.84,21.4798125 C30.011,22.0538125 29.97,22.3818125 29.97,24.2268125 L29.97,28.8598125 C29.97,30.0488125 30.667,30.7868125 31.774,30.7868125 C32.881,30.7868125 33.578,30.0488125 33.578,28.8598125 L33.578,24.7598125 Z M29.683,36.7728125 C29.683,37.9208125 30.626,38.8638125 31.774,38.8638125 C32.922,38.8638125 33.865,37.9208125 33.865,36.7728125 C33.865,35.6248125 32.922,34.6818125 31.774,34.6818125 C30.626,34.6818125 29.683,35.6248125 29.683,36.7728125 Z" id="icon-question-1" fill="#075AA8" fill-rule="nonzero"></path>
    </g>
</svg>