<?xml version="1.0" encoding="UTF-8"?>
<svg width="66px" height="67px" viewBox="0 0 66 67" version="1.1" xmlns="http://www.w3.org/2000/svg" xmlns:xlink="http://www.w3.org/1999/xlink">
    <!-- Generator: Sketch 47.1 (45422) - http://www.bohemiancoding.com/sketch -->
    <title>icon-question-3</title>
    <desc>Created with Sketch.</desc>
    <defs></defs>
    <g id="Wireframes" stroke="none" stroke-width="1" fill="none" fill-rule="evenodd">
        <path d="M33.1667747,46.4519759 C38.0855691,46.4519759 42.1100373,42.4275078 42.1100373,37.5087133 C42.1100373,32.5899189 38.0855691,28.5654507 33.1667747,28.5654507 C28.2479802,28.5654507 24.2235121,32.5899189 24.2235121,37.5087133 C24.2235121,42.4275078 28.2479802,46.4519759 33.1667747,46.4519759 Z M33.1667747,31.5465383 C36.445971,31.5465383 39.1289497,34.2295171 39.1289497,37.5087133 C39.1289497,40.7879096 36.445971,43.4708884 33.1667747,43.4708884 C29.8875784,43.4708884 27.2045996,40.7879096 27.2045996,37.5087133 C27.2045996,34.2295171 29.8875784,31.5465383 33.1667747,31.5465383 Z M50.308028,59.2706523 L50.308028,66.5743168 L16.0255213,66.5743168 L16.0255213,59.2706523 C16.0255213,53.7556404 20.3480983,49.1349547 25.788583,48.6877916 L26.4593277,48.6877916 L26.9064908,49.1349547 C28.6206162,50.7745529 30.8564318,51.6688791 33.1667747,51.6688791 C35.4771175,51.6688791 37.7129332,50.7745529 39.4270585,49.1349547 L39.8742216,48.6877916 L40.5449663,48.7623188 C45.9854511,49.1349547 50.308028,53.7556404 50.308028,59.2706523 Z M47.3269405,63.5932293 L47.3269405,59.1961252 C47.3269405,55.4697657 44.5694345,52.3396238 40.9176023,51.7434063 C38.7563138,53.606586 36.073335,54.6499667 33.1667747,54.6499667 C30.2602143,54.6499667 27.5772355,53.606586 25.4159471,51.8179335 C21.7641148,52.3396238 19.0066089,55.5442929 19.0066089,59.2706523 L19.0066089,63.5932293 L47.3269405,63.5932293 Z M45.0911248,40.4898009 C45.0911248,36.3908055 48.4448483,33.037082 52.5438436,33.037082 C56.642839,33.037082 59.9965625,36.3908055 59.9965625,40.4898009 C59.9965625,44.5887962 56.642839,47.9425197 52.5438436,47.9425197 C48.4448483,47.9425197 45.0911248,44.5887962 45.0911248,40.4898009 Z M57.0154749,40.4898009 C57.0154749,38.0304037 55.0032409,36.0181696 52.5438436,36.0181696 C50.0844464,36.0181696 48.0722123,38.0304037 48.0722123,40.4898009 C48.0722123,42.9491981 50.0844464,44.9614322 52.5438436,44.9614322 C55.0032409,44.9614322 57.0154749,42.9491981 57.0154749,40.4898009 Z M58.5060187,50.1783354 C62.6050141,50.1783354 65.9587375,53.5320588 65.9587375,57.6310542 L65.9587375,63.5932293 L52.5438436,63.5932293 L52.5438436,60.6121417 L62.97765,60.6121417 L62.97765,57.6310542 C62.97765,55.171657 60.9654159,53.1594229 58.5060187,53.1594229 L58.3569643,53.1594229 C56.7918934,54.6499667 54.7796593,55.3952385 52.5438436,55.3952385 L52.5438436,52.414151 C54.1834418,52.414151 55.5249312,51.8179335 56.642839,50.6254985 L57.0900021,50.1783354 L58.5060187,50.1783354 Z M13.7897057,33.037082 C17.888701,33.037082 21.2424245,36.3908055 21.2424245,40.4898009 C21.2424245,44.5887962 17.888701,47.9425197 13.7897057,47.9425197 C9.69071033,47.9425197 6.33698685,44.5887962 6.33698685,40.4898009 C6.33698685,36.3908055 9.69071033,33.037082 13.7897057,33.037082 Z M13.7897057,44.9614322 C16.2491029,44.9614322 18.261337,42.9491981 18.261337,40.4898009 C18.261337,38.0304037 16.2491029,36.0181696 13.7897057,36.0181696 C11.3303085,36.0181696 9.31807439,38.0304037 9.31807439,40.4898009 C9.31807439,42.9491981 11.3303085,44.9614322 13.7897057,44.9614322 Z M13.7897057,60.6121417 L13.7897057,63.5932293 L0.374811784,63.5932293 L0.374811784,57.6310542 C0.374811784,53.5320588 3.72853526,50.1783354 7.82753062,50.1783354 L9.16902001,50.1783354 L9.61618314,50.6254985 C10.734091,51.8179335 12.1501075,52.414151 13.7897057,52.414151 L13.7897057,55.3952385 C11.55389,55.3952385 9.61618314,54.6499667 7.976585,53.1594229 L7.82753062,53.1594229 C5.3681334,53.1594229 3.35589932,55.171657 3.35589932,57.6310542 L3.35589932,60.6121417 L13.7897057,60.6121417 Z M3.35589932,27.8201789 C1.71630117,27.8201789 0.374811784,26.4786895 0.374811784,24.8390913 L0.374811784,18.1316444 C0.374811784,16.4920462 1.71630117,15.1505568 3.35589932,15.1505568 L16.7707932,15.1505568 C18.4103914,15.1505568 19.7518808,16.4920462 19.7518808,18.1316444 L19.7518808,24.8390913 C19.7518808,26.4786895 18.4103914,27.8201789 16.7707932,27.8201789 L12.7463251,27.8201789 L10.2124006,33.1861364 L7.00773155,27.8201789 L3.35589932,27.8201789 Z M3.35589932,18.1316444 L3.35589932,24.8390913 L8.64732969,24.8390913 L9.91429189,26.9258526 L10.8831453,24.8390913 L16.7707932,24.8390913 L16.7707932,18.1316444 L3.35589932,18.1316444 Z M25.7140558,22.6032757 C24.0744577,22.6032757 22.7329683,21.2617863 22.7329683,19.6221881 L22.7329683,3.97147858 C22.7329683,2.33188043 24.0744577,0.990391043 25.7140558,0.990391043 L51.7985718,0.990391043 C53.4381699,0.990391043 54.7796593,2.33188043 54.7796593,3.97147858 L54.7796593,19.6221881 C54.7796593,21.2617863 53.4381699,22.6032757 51.7985718,22.6032757 L45.2401792,22.6032757 L41.215711,29.6833586 L38.1600963,22.6032757 L25.7140558,22.6032757 Z M25.7140558,3.97147858 L25.7140558,19.6221881 L40.0978032,19.6221881 L41.5138198,22.9759116 L43.4515267,19.6221881 L51.7985718,19.6221881 L51.7985718,3.97147858 L25.7140558,3.97147858 Z M30.1856871,6.95256611 L46.5816686,6.95256611 L46.5816686,9.93365365 L30.1856871,9.93365365 L30.1856871,6.95256611 Z M30.1856871,12.9147412 L40.6194935,12.9147412 L40.6194935,15.8958287 L30.1856871,15.8958287 L30.1856871,12.9147412 Z" id="icon-question-3" fill="#075AA8" fill-rule="nonzero"></path>
    </g>
</svg>