<?xml version="1.0" encoding="UTF-8"?>
<svg width="76px" height="65px" viewBox="0 0 76 65" version="1.1" xmlns="http://www.w3.org/2000/svg" xmlns:xlink="http://www.w3.org/1999/xlink">
    <!-- Generator: Sketch 47.1 (45422) - http://www.bohemiancoding.com/sketch -->
    <title>icon-question-2</title>
    <desc>Created with Sketch.</desc>
    <defs></defs>
    <g id="Wireframes" stroke="none" stroke-width="1" fill="none" fill-rule="evenodd">
        <path d="M73.4205748,16.1545584 L64.9147828,16.1545584 L64.9147828,2.0262937 C64.9147828,1.1612979 64.193953,0.440468072 63.3289572,0.440468072 L1.62592378,0.440468072 C0.760927982,0.440468072 0.0400981526,1.1612979 0.0400981526,2.0262937 L0.0400981526,59.5485141 C0.0400981526,60.2693439 0.47259605,60.8460078 1.04925991,61.1343397 C1.62592378,61.4226716 2.34675361,61.1343397 2.92341747,60.7018418 L15.3216905,46.7177431 L23.5391506,46.7177431 L23.5391506,51.47522 C23.5391506,52.3402158 24.2599804,53.0610456 25.1249762,53.0610456 L62.8964593,53.0610456 L72.1230811,63.8734931 C72.555579,64.4501569 73.2764088,64.5943229 73.9972387,64.305991 C74.5739025,64.017659 75.0064004,63.4409952 75.0064004,62.7201653 L75.0064004,17.740384 C75.0064004,16.8753882 74.2855706,16.1545584 73.4205748,16.1545584 Z M14.4566947,43.4019259 C14.0241968,43.4019259 13.5916989,43.5460919 13.159201,43.9785898 L3.2117494,55.2235351 L3.2117494,3.75628529 L61.4547996,3.75628529 L61.4547996,16.1545584 L25.1249762,16.1545584 C24.2599804,16.1545584 23.5391506,16.8753882 23.5391506,17.740384 L23.5391506,43.4019259 L14.4566947,43.4019259 Z M71.6905832,58.3951864 L64.9147828,50.4660582 C64.6264509,50.0335603 64.193953,49.8893944 63.6172891,49.8893944 L26.7108018,49.8893944 L26.7108018,19.3262096 L71.6905832,19.3262096 L71.6905832,58.3951864 Z M38.0999131,28.8411634 L60.3014719,28.8411634 C61.1664677,28.8411634 61.8872975,28.1203335 61.8872975,27.2553377 C61.8872975,26.3903419 61.1664677,25.6695121 60.3014719,25.6695121 L38.0999131,25.6695121 C37.2349174,25.6695121 36.5140875,26.3903419 36.5140875,27.2553377 C36.5140875,28.1203335 37.2349174,28.8411634 38.0999131,28.8411634 Z M34.495764,36.1936276 L64.049787,36.1936276 C64.9147828,36.1936276 65.6356126,35.4727978 65.6356126,34.607802 C65.6356126,33.7428062 64.9147828,33.0219764 64.049787,33.0219764 L34.495764,33.0219764 C33.6307682,33.0219764 32.9099384,33.7428062 32.9099384,34.607802 C32.9099384,35.4727978 33.6307682,36.1936276 34.495764,36.1936276 Z M60.3014719,40.3744406 L38.0999131,40.3744406 C37.2349174,40.3744406 36.5140875,41.0952705 36.5140875,41.9602662 C36.5140875,42.825262 37.2349174,43.5460919 38.0999131,43.5460919 L60.3014719,43.5460919 C61.1664677,43.5460919 61.8872975,42.825262 61.8872975,41.9602662 C61.8872975,41.0952705 61.1664677,40.3744406 60.3014719,40.3744406 Z M15.9024937,22.3007202 L15.9024937,25.8007202 C15.9024937,26.8157202 15.3074937,27.4457202 14.3624937,27.4457202 C13.4174937,27.4457202 12.8224937,26.8157202 12.8224937,25.8007202 L12.8224937,21.8457202 C12.8224937,20.2707202 12.8574937,19.9907202 15.2724937,19.5007202 C18.0374937,18.9407202 18.4924937,17.0157202 18.4924937,15.7207202 C18.4924937,13.3407202 16.7774937,11.8707202 14.4324937,11.8707202 C12.5774937,11.8707202 11.1424937,12.5357202 10.3724937,14.7407202 C10.0574937,15.6507202 9.63749375,15.8957202 9.00749375,15.8957202 C8.20249375,15.8957202 7.46749375,15.2657202 7.50249375,14.2857202 C7.64249375,11.2057202 11.0724937,9.00072017 14.3274937,9.00072017 C18.5624937,9.00072017 21.7824937,11.7307202 21.7824937,15.4407202 C21.7824937,19.2207202 19.4024937,21.5657202 15.9024937,22.3007202 Z M12.5774937,32.5557202 C12.5774937,31.5757202 13.3824937,30.7707202 14.3624937,30.7707202 C15.3424937,30.7707202 16.1474937,31.5757202 16.1474937,32.5557202 C16.1474937,33.5357202 15.3424937,34.3407202 14.3624937,34.3407202 C13.3824937,34.3407202 12.5774937,33.5357202 12.5774937,32.5557202 Z" id="icon-question-2" fill="#075AA8" fill-rule="nonzero"></path>
    </g>
</svg>