<?xml version="1.0" encoding="UTF-8"?>
<svg width="67px" height="79px" viewBox="0 0 67 79" version="1.1" xmlns="http://www.w3.org/2000/svg" xmlns:xlink="http://www.w3.org/1999/xlink">
    <!-- Generator: Sketch 47.1 (45422) - http://www.bohemiancoding.com/sketch -->
    <title>icon-practice-example</title>
    <desc>Created with Sketch.</desc>
    <defs></defs>
    <g id="Wireframes" stroke="none" stroke-width="1" fill="none" fill-rule="evenodd">
        <path d="M12.7468171,58.664818 C13.2452892,55.673985 16.1115042,53.1816242 19.3515733,53.1816242 C19.9746635,53.1816242 20.5977537,53.3062422 20.9716078,53.6800963 C22.0931702,54.6770407 23.2147326,55.1755128 24.460913,55.1755128 C24.585531,55.1755128 24.7101491,55.1755128 24.7101491,55.1755128 C24.8347671,55.1755128 24.9593852,55.1755128 25.0840032,55.1755128 C26.4548017,55.1755128 27.7009821,54.6770407 28.8225445,53.6800963 C29.3210166,53.4308602 29.6948707,53.1816242 30.1933429,53.1816242 L30.317961,53.1816242 C31.4395233,53.1816242 32.5610857,53.4308602 33.55803,54.0539504 L33.6826481,54.0539504 C34.6795924,53.4308602 35.8011548,53.1816242 36.9227172,53.1816242 L37.0473352,53.1816242 C37.4211893,53.1816242 37.9196615,53.4308602 38.2935156,53.6800963 C39.415078,54.6770407 40.6612584,55.1755128 41.9074388,55.1755128 C42.0320569,55.1755128 42.1566749,55.1755128 42.281293,55.1755128 C42.281293,55.1755128 42.405911,55.1755128 42.405911,55.1755128 C43.6520914,55.0508948 44.8982718,54.5524226 46.0198342,53.6800963 C46.3936883,53.4308602 47.0167785,53.1816242 47.5152507,53.1816242 C50.8799378,53.3062422 53.7461528,55.798603 54.1200069,58.789436 C54.244625,59.6617623 53.6215348,60.4094706 52.7492085,60.5340886 C51.8768822,60.6587067 51.1291739,60.0356164 51.0045559,59.1632902 C50.7553198,57.6678737 49.2599033,56.4216932 47.7644868,56.2970752 C46.1444523,57.5432556 44.3997997,58.1663458 42.6551471,58.2909639 C42.405911,58.2909639 42.0320569,58.2909639 41.6582028,58.2909639 C39.7889321,58.2909639 38.0442795,57.5432556 36.424245,56.2970752 C36.0503909,56.4216932 35.5519187,56.5463113 35.0534465,56.7955474 C34.5549744,57.0447834 34.0565022,57.1694015 33.433412,57.1694015 C32.6857037,57.1694015 32.1872316,56.9201654 31.6887594,56.6709293 C31.3149053,56.4216932 30.8164331,56.1724572 30.317961,56.1724572 C28.6979264,57.4186376 26.9532738,58.1663458 25.0840032,58.1663458 C24.8347671,58.1663458 24.460913,58.1663458 24.0870589,58.1663458 C22.3424063,58.0417278 20.7223717,57.4186376 19.1023372,56.1724572 C17.4823027,56.2970752 16.1115042,57.5432556 15.8622681,59.0386721 C15.7376501,59.7863804 15.1145599,60.4094706 14.3668516,60.4094706 C14.2422336,60.4094706 14.2422336,60.4094706 14.1176155,60.4094706 C13.2452892,60.2848525 12.622199,59.5371443 12.7468171,58.664818 Z M43.7767095,35.9843344 C47.5152507,36.3581885 50.1322296,38.9751674 50.5060837,42.9629447 C50.6307018,44.2091251 50.5060837,45.7045416 50.1322296,47.1999581 C50.0076116,47.6984303 49.7583755,48.1969025 49.6337574,48.6953746 L49.3845213,49.3184649 C49.1352853,49.9415551 48.5121951,50.4400272 47.8891048,50.4400272 C47.6398688,50.4400272 47.5152507,50.3154092 47.3906327,50.3154092 C46.6429244,50.0661731 46.1444523,49.1938468 46.3936883,48.3215205 L46.6429244,47.8230484 C46.7675425,47.3245762 46.8921605,46.9507221 47.0167785,46.4522499 C47.3906327,45.2060695 47.5152507,44.2091251 47.3906327,43.2121808 C47.2660146,40.9690561 45.7705981,39.4736396 43.5274734,39.2244035 C43.4028553,39.2244035 43.2782373,39.2244035 43.0290012,39.2244035 C41.1597306,39.2244035 39.9135502,39.4736396 39.1658419,40.2213478 C38.4181337,40.9690561 37.9196615,42.2152365 37.7950435,43.4614169 C37.6704254,44.9568334 37.9196615,46.4522499 38.6673698,48.3215205 C38.7919878,48.5707566 38.7919878,48.8199927 38.7919878,49.0692288 C38.7919878,49.9415551 38.0442795,50.5646453 37.1719533,50.5646453 C36.548863,50.4400272 36.0503909,50.0661731 35.8011548,49.4430829 C34.9288285,47.0753401 34.5549744,45.0814514 34.6795924,43.2121808 C34.8042105,41.0936741 35.6765368,39.2244035 37.0473352,37.853605 C38.2935156,36.4828066 40.4120223,35.9843344 43.0290012,35.9843344 C43.2782373,35.9843344 43.5274734,35.9843344 43.7767095,35.9843344 Z M32.4364677,43.835271 C32.4364677,48.0722844 28.9471625,51.5615896 24.7101491,51.5615896 C20.4731357,51.5615896 16.9838305,48.0722844 16.9838305,43.835271 C16.9838305,39.5982576 20.4731357,36.1089524 24.7101491,36.1089524 C28.9471625,36.1089524 32.4364677,39.5982576 32.4364677,43.835271 Z M19.9746635,43.835271 C19.9746635,46.3276319 22.0931702,48.4461386 24.585531,48.4461386 C27.0778919,48.4461386 29.1963986,46.4522499 29.1963986,43.835271 C29.1963986,41.3429102 27.0778919,39.2244035 24.585531,39.2244035 C22.0931702,39.2244035 19.9746635,41.2182921 19.9746635,43.835271 Z M66.5818111,29.7534323 C66.7064291,33.1181194 65.5848668,34.862772 64.4633044,35.8597163 C69.0741719,50.3154092 63.0925059,66.2665185 49.7583755,73.9928371 C44.7736538,76.8590521 39.1658419,78.3544686 33.55803,78.3544686 C30.6918151,78.3544686 27.8256001,77.9806145 24.9593852,77.2329062 C16.4853583,74.8651634 9.50674798,69.5065876 5.26973456,61.9048871 C-0.836549482,51.3123535 -0.587313399,38.4766952 6.01744281,28.1333978 C5.39435261,27.5103076 4.7712624,26.8872173 4.27279023,26.0148911 C1.90504744,22.0271137 3.40046394,16.917774 7.38824127,14.5500312 C9.2575119,13.4284688 11.6252547,13.0546147 13.7437614,13.6777049 C15.8622681,14.3007951 17.7315387,15.7962116 18.8531011,17.6654823 C19.9746635,19.5347529 20.3485176,21.9024957 19.7254274,24.0210024 C19.1023372,26.1395091 17.7315387,28.0087797 15.7376501,29.1303421 C14.3668516,29.8780503 12.8714351,30.2519045 11.5006367,30.2519045 C10.5036923,30.2519045 9.50674798,30.1272864 8.63442169,29.7534323 C2.65275569,39.0997854 2.27890156,50.8138814 8.13594952,60.4094706 C11.9991088,67.1388448 18.3546289,72.1235665 25.9563295,74.1174552 C33.55803,76.2359619 41.5335847,75.2390175 48.387577,71.2512402 C60.350909,64.3972479 65.8341029,50.3154092 61.8463255,37.2305148 C61.5970894,37.3551329 61.2232353,37.3551329 60.8493812,37.3551329 C59.6032008,37.3551329 58.1077843,36.9812787 56.3631317,35.8597163 C55.7400415,35.6104803 43.4028553,27.5103076 38.4181337,23.024058 C35.8011548,20.5316972 34.9288285,17.1670101 36.0503909,13.6777049 C36.1750089,13.0546147 36.6734811,11.5591982 38.1688976,11.060726 C39.0412239,10.81149 39.9135502,11.1853441 40.1627863,12.0576704 C40.4120223,12.8053786 40.0381682,13.6777049 39.29046,13.926941 C39.29046,13.926941 39.1658419,14.1761771 39.0412239,14.5500312 C38.1688976,16.917774 38.7919878,19.0362807 40.5366404,20.6563153 C45.272126,25.0179467 57.8585482,33.1181194 57.9831662,33.2427375 C59.4785827,34.2396818 60.7247631,34.4889179 61.7217075,33.9904457 L62.3447977,33.6165916 C63.341742,33.1181194 63.7155961,31.871939 63.5909781,30.0026684 C63.5909781,29.8780503 62.8432699,14.9238853 61.4724714,8.56836521 C60.8493812,6.20062241 59.3539647,4.70520591 56.9862219,4.20673375 C56.4877497,4.0821157 56.3631317,4.0821157 56.2385136,4.0821157 C55.6154234,4.45596983 54.6184791,4.45596983 54.1200069,3.83287962 C53.4969167,3.20978941 53.6215348,2.21284508 54.244625,1.58975487 C55.3661873,0.592810534 56.9862219,0.96666466 57.6093121,1.0912827 C61.2232353,1.83899095 63.7155961,4.20673375 64.4633044,7.82065696 C65.8341029,14.3007951 66.5818111,29.1303421 66.5818111,29.7534323 Z M8.75903973,17.1670101 C6.2666789,18.6624266 5.39435261,21.6532596 6.76515106,24.2702385 C8.13594952,26.8872173 11.5006367,27.7595436 13.9929975,26.2641271 C15.2391779,25.5164189 16.1115042,24.3948565 16.4853583,23.024058 C16.8592124,21.6532596 16.7345944,20.2824611 15.9868862,19.0362807 C15.2391779,17.7901003 14.1176155,16.917774 12.7468171,16.5439199 C12.2483449,16.4193018 11.8744908,16.4193018 11.3760186,16.4193018 C10.5036923,16.4193018 9.63136602,16.6685379 8.75903973,17.1670101 Z" id="icon-practice-example" fill="#075AA8" fill-rule="nonzero"></path>
    </g>
</svg>