<?xml version="1.0" encoding="UTF-8"?>
<svg width="62px" height="63px" viewBox="0 0 62 63" version="1.1" xmlns="http://www.w3.org/2000/svg" xmlns:xlink="http://www.w3.org/1999/xlink">
    <!-- Generator: Sketch 47.1 (45422) - http://www.bohemiancoding.com/sketch -->
    <title>icon-tool</title>
    <desc>Created with Sketch.</desc>
    <defs></defs>
    <g id="Wireframes" stroke="none" stroke-width="1" fill="none" fill-rule="evenodd">
        <path d="M45.5757206,0.957825777 C40.7358357,0.635166808 35.8152863,2.30223819 32.1315961,5.9859281 C27.5068176,10.6375946 26.1355166,17.2521041 27.8563649,23.1675182 L3.17295279,47.8509299 C-0.08052525,51.1044075 -0.08052525,56.4013924 3.17295279,59.6548707 C6.42643083,62.9083483 11.6965275,62.9083483 14.9500058,59.6548707 L39.6334175,34.971459 C45.5488324,36.6923072 52.1633411,35.3478945 56.8150086,30.6962278 C61.7086698,25.7756783 63.0530818,18.6502924 60.8751335,12.4928838 C60.5524752,11.5517955 59.1273978,11.2291364 58.4014151,11.928231 L50.9264819,19.4300516 C48.8291982,21.5273353 45.495056,21.5273353 43.3977723,19.4300516 C41.3004893,17.3327686 41.3004893,13.9986257 43.3977723,11.9013428 L50.8727055,4.39952145 C51.5718001,3.67353876 51.249141,2.27534992 50.3080519,1.92580271 C48.7754218,1.3611495 47.1621271,1.03849052 45.5757206,0.957825777 Z M45.3875025,3.9693095 C45.8446033,3.9961977 46.3017034,4.15752724 46.7856916,4.23819198 L41.2467122,9.75028266 C37.9932346,13.003761 37.9932346,18.3007451 41.2467122,21.5542235 C44.5001905,24.8077018 49.7971754,24.8077018 53.0506538,21.5542235 L58.5627442,16.042133 C59.288727,20.4786934 58.078756,25.103472 54.6639485,28.5182795 C50.6038228,32.6052934 44.742185,33.7077116 39.6603057,31.9061988 C39.1225411,31.6910932 38.4772229,31.8524194 38.0738992,32.2557461 L12.8258339,57.5038106 C10.7285509,59.6010936 7.39440779,59.6010936 5.29712439,57.5038106 C3.19984106,55.4065277 3.19984106,52.0992729 5.29712439,49.975101 L30.5451896,24.7270365 C30.9485133,24.3237128 31.0829543,23.7052836 30.9216251,23.1675182 C29.0932241,18.0856396 30.1956423,12.1971137 34.2826562,8.13698789 C37.3210282,5.07172767 41.3811539,3.70042703 45.3875025,3.9693095 Z" id="icon-tool" fill="#075AA8" fill-rule="nonzero"></path>
    </g>
</svg>