<?xml version="1.0" encoding="UTF-8"?>
<svg width="43px" height="43px" viewBox="0 0 43 43" version="1.1" xmlns="http://www.w3.org/2000/svg" xmlns:xlink="http://www.w3.org/1999/xlink">
    <!-- Generator: Sketch 47.1 (45422) - http://www.bohemiancoding.com/sketch -->
    <title>icon-link</title>
    <desc>Created with Sketch.</desc>
    <defs></defs>
    <g id="Wireframes" stroke="none" stroke-width="1" fill="none" fill-rule="evenodd">
        <path d="M22.7165933,21.5510157 L22.6078193,21.5510157 C21.9483406,21.5504356 21.3540558,21.1529136 21.1017628,20.543602 C20.8494697,19.9342905 20.9887828,19.233013 21.4548148,18.7664012 L36.9224779,3.40751217 L28.9819758,3.40751217 C28.0808624,3.40751217 27.3503657,2.67701548 27.3503657,1.77590214 C27.3503657,0.874788804 28.0808624,0.144292112 28.9819758,0.144292112 L40.8600968,0.144292112 C41.7612101,0.144292112 42.4917068,0.874788804 42.4917068,1.77590214 L42.4917068,13.6540231 C42.4917068,14.5551365 41.7612101,15.2856332 40.8600968,15.2856332 C39.9589834,15.2856332 39.2284867,14.5551365 39.2284867,13.6540231 L39.2284867,5.71352101 L23.8695977,21.0724101 C23.563905,21.3784838 23.1491773,21.5506349 22.7165933,21.5510157 Z M41.0341352,23.1173613 C41.470622,23.111541 41.8912392,23.2808693 42.2019468,23.5874887 C42.5126544,23.8941081 42.6875388,24.3124457 42.6875,24.7489713 L42.6875,38.2369476 C42.6875,40.6399165 40.7395088,42.5879076 38.3365399,42.5879076 L4.57308974,42.5879076 C2.17012085,42.5879076 0.22212967,40.6399165 0.22212967,38.2369476 L0.22212967,4.49525219 C0.22212967,2.09228329 2.17012085,0.144292112 4.57308974,0.144292112 L17.3431576,0.144292112 C18.2442709,0.144292131 18.9747676,0.874788817 18.9747676,1.77590214 C18.9747676,2.67701546 18.2442709,3.40751215 17.3431576,3.40751217 L4.57308974,3.40751217 C3.98436236,3.40751217 3.50710453,3.88477001 3.50710453,4.47349739 L3.50710453,38.2369476 C3.50710453,38.8256749 3.98436236,39.3029328 4.57308974,39.3029328 L38.3365399,39.3029328 C38.9252673,39.3029328 39.4025251,38.8256749 39.4025251,38.2369476 L39.4025251,24.7489713 C39.4025251,23.847858 40.1330218,23.1173613 41.0341352,23.1173613 Z" id="icon-link" fill="#075AA8" fill-rule="nonzero"></path>
    </g>
</svg>