<?xml version="1.0" encoding="UTF-8"?>
<svg width="51px" height="51px" viewBox="0 0 51 51" version="1.1" xmlns="http://www.w3.org/2000/svg" xmlns:xlink="http://www.w3.org/1999/xlink">
    <!-- Generator: Sketch 47.1 (45422) - http://www.bohemiancoding.com/sketch -->
    <title>icon-topic</title>
    <desc>Created with Sketch.</desc>
    <defs></defs>
    <g id="Wireframes" stroke="none" stroke-width="1" fill="none" fill-rule="evenodd">
        <path d="M50.3041581,27.4210864 L23.6362464,0.689830515 C23.3828696,0.49979789 22.876116,0.183076849 22.1159855,0.183076849 L3.68282085,2.02005889 C2.79600193,2.1467473 2.22590406,2.78018939 2.03587144,3.73035251 L0.262233604,22.0368287 C0.135545188,22.6702708 0.452266229,23.3037129 0.76898727,23.5570897 L27.5002432,50.2883456 C27.8803084,50.6684108 28.3237179,50.8584435 28.8304715,50.8584435 C29.273881,50.8584435 29.7806347,50.6684108 30.1606999,50.2883456 L50.3675023,30.0815431 C50.7475676,29.7014779 50.874256,29.2580684 50.874256,28.814659 C50.874256,28.2445611 50.6842234,27.7378074 50.3041581,27.4210864 Z M47.1078354,28.8727864 L28.8896932,47.0253956 L3.33186793,21.4675703 L4.97019007,5.01881607 L21.4844772,3.44602682 L47.1078354,28.8727864 Z M16.9217604,10.6348712 C13.4378289,10.6348712 10.5873395,13.4853606 10.5873395,16.969292 C10.5873395,20.4532235 13.4378289,23.3037129 16.9217604,23.3037129 C20.4056918,23.3037129 23.2561812,20.4532235 23.2561812,16.969292 C23.2561812,15.2589984 22.5593949,13.612049 21.355855,12.4718533 C20.2790034,11.2683133 18.632054,10.6348712 16.9217604,10.6348712 Z M16.9217604,13.7086114 C17.7795824,13.7086114 18.5594205,14.0985305 19.183291,14.6444172 C19.7291777,15.1903039 20.1190968,16.0481259 20.1190968,16.9059478 C20.1190968,18.6215918 18.6374043,20.1032843 16.9217604,20.1032843 C15.2061164,20.1032843 13.7244239,18.6215918 13.7244239,16.9059478 C13.7244239,16.1261097 14.114343,15.2682877 14.5822459,14.6444172 C15.2061164,14.0985305 16.0639384,13.7086114 16.9217604,13.7086114 Z" id="icon-topic" fill="#075AA8" fill-rule="nonzero"></path>
    </g>
</svg>