<?xml version="1.0" encoding="UTF-8"?>
<svg width="71px" height="72px" viewBox="0 0 71 72" version="1.1" xmlns="http://www.w3.org/2000/svg" xmlns:xlink="http://www.w3.org/1999/xlink">
    <!-- Generator: Sketch 47.1 (45422) - http://www.bohemiancoding.com/sketch -->
    <title>icon-fact-sheet</title>
    <desc>Created with Sketch.</desc>
    <defs></defs>
    <g id="Wireframes" stroke="none" stroke-width="1" fill="none" fill-rule="evenodd">
        <g id="icon-fact-sheet" fill-rule="nonzero" fill="#075AA8">
            <path d="M0.21875,0.240597848 L0.21875,71.0864267 L70.8431856,71.0864267 L70.8431856,0.240597848 L0.21875,0.240597848 L0.21875,0.240597848 Z M67.9005008,67.8393262 L3.16143482,67.8393262 L3.16143482,3.19250738 L67.9005008,3.19250738 L67.9005008,67.8393262 L67.9005008,67.8393262 Z M61.7208627,15.5905274 L27.8799873,15.5905274 L27.8799873,18.8376279 L61.7208627,18.8376279 L61.7208627,15.5905274 L61.7208627,15.5905274 Z M61.7208627,34.1875575 L27.8799873,34.1875575 L27.8799873,37.434658 L61.7208627,37.434658 L61.7208627,34.1875575 L61.7208627,34.1875575 Z M61.7208627,52.7845875 L27.8799873,52.7845875 L27.8799873,56.031688 L61.7208627,56.031688 L61.7208627,52.7845875 L61.7208627,52.7845875 Z M14.9782977,23.8558741 C18.2388869,23.8558741 20.8821167,21.2126443 20.8821167,17.952055 C20.8821167,14.6914658 18.2388869,12.048236 14.9782977,12.048236 C11.7177084,12.048236 9.0744786,14.6914658 9.0744786,17.952055 C9.0744786,21.2126443 11.7177084,23.8558741 14.9782977,23.8558741 Z M14.9782977,41.5673313 C18.2388869,41.5673313 20.8821167,38.9241015 20.8821167,35.6635122 C20.8821167,32.402923 18.2388869,29.7596932 14.9782977,29.7596932 C11.7177084,29.7596932 9.0744786,32.402923 9.0744786,35.6635122 C9.0744786,38.9241015 11.7177084,41.5673313 14.9782977,41.5673313 Z M14.9782977,59.2787885 C18.2388869,59.2787885 20.8821167,56.6355587 20.8821167,53.3749694 C20.8821167,50.1143802 18.2388869,47.4711504 14.9782977,47.4711504 C11.7177084,47.4711504 9.0744786,50.1143802 9.0744786,53.3749694 C9.0744786,56.6355587 11.7177084,59.2787885 14.9782977,59.2787885 Z" id="icon-how-to"></path>
        </g>
    </g>
</svg>