<?xml version="1.0" encoding="UTF-8"?>
<svg width="81px" height="66px" viewBox="0 0 81 66" version="1.1" xmlns="http://www.w3.org/2000/svg" xmlns:xlink="http://www.w3.org/1999/xlink">
    <!-- Generator: Sketch 47.1 (45422) - http://www.bohemiancoding.com/sketch -->
    <title>icon-how-to</title>
    <desc>Created with Sketch.</desc>
    <defs></defs>
    <g id="Wireframes" stroke="none" stroke-width="1" fill="none" fill-rule="evenodd">
        <path d="M21.6295335,15.3356909 C22.8696477,13.7855481 23.6447191,11.7703626 23.6447191,9.60016276 C23.6447191,4.32967748 19.3043194,0.144292112 14.1888484,0.144292112 C9.0733774,0.144292112 4.73297776,4.32967748 4.73297776,9.44514848 C4.73297776,11.6153483 5.50804913,13.6305338 6.74816331,15.1806766 C2.87280649,17.3508764 0.392578125,21.3812475 0.392578125,25.8766614 L0.392578125,45.0984312 C0.392578125,46.0285169 1.16764949,46.648574 1.94272085,46.648574 L5.6630634,46.648574 L5.6630634,63.700144 C5.6630634,64.6302296 6.43813477,65.2502867 7.21320613,65.2502867 L21.0094764,65.2502867 C21.939562,65.2502867 22.5596191,64.4752153 22.5596191,63.700144 L22.5596191,46.648574 L26.2799617,46.648574 C27.2100473,46.648574 27.8301044,45.8735026 27.8301044,45.0984312 L27.8301044,25.8766614 C27.8301044,21.3812475 25.3498761,17.3508764 21.6295335,15.3356909 Z M14.1888484,3.24457757 C17.5991624,3.24457757 20.3894193,6.03483448 20.3894193,9.44514848 C20.3894193,12.8554625 17.5991624,15.6457194 14.1888484,15.6457194 C10.7785344,15.6457194 7.98827749,12.8554625 7.98827749,9.44514848 C7.98827749,6.03483448 10.6235201,3.24457757 14.1888484,3.24457757 Z M24.729819,43.3932742 L22.5596191,43.3932742 L22.5596191,30.8371181 L19.4593337,30.8371181 L19.4593337,62.1500012 L15.7389911,62.1500012 L15.7389911,50.2139022 L12.6387057,50.2139022 L12.6387057,62.1500012 L8.76334886,62.1500012 L8.76334886,30.8371181 L5.6630634,30.8371181 L5.6630634,43.3932742 L3.49286358,43.3932742 L3.49286358,25.8766614 C3.49286358,22.1563189 5.81807767,18.9010191 9.22839168,17.6609049 C10.6235201,18.5909906 12.3286771,19.0560334 14.0338341,19.0560334 C15.8940054,19.0560334 17.4441481,18.5909906 18.8392766,17.6609049 C22.2495906,18.9010191 24.5748047,22.1563189 24.5748047,25.8766614 L24.5748047,43.3932742 L24.729819,43.3932742 Z M79.4498573,10.5302484 C80.2249286,10.5302484 81,11.3053198 81,12.0803911 L81,18.7460049 C81,19.5210762 80.3799429,20.2961476 79.4498573,20.2961476 L76.5045861,20.2961476 L76.5045861,48.6637595 C76.5045861,49.4388309 75.884529,50.2139022 74.9544434,50.2139022 L57.127802,50.2139022 L57.127802,56.5694874 L70.4590294,56.5694874 L70.4590294,64.6302296 L67.358744,64.6302296 L67.358744,59.8247872 L57.127802,59.8247872 L57.127802,64.6302296 L54.0275165,64.6302296 L54.0275165,59.8247872 L43.7965745,59.8247872 L43.7965745,64.6302296 L40.6962891,64.6302296 L40.6962891,56.5694874 L54.0275165,56.5694874 L54.0275165,50.2139022 L36.2008752,50.2139022 C35.4258038,50.2139022 34.6507324,49.5938451 34.6507324,48.6637595 L34.6507324,20.2961476 L31.8604755,20.2961476 C31.0854041,20.2961476 30.3103328,19.6760905 30.3103328,18.7460049 L30.3103328,12.0803911 C30.3103328,11.3053198 30.9303899,10.5302484 31.8604755,10.5302484 L79.4498573,10.5302484 Z M73.5593149,47.1136168 L73.5593149,20.2961476 L37.9060322,20.2961476 L37.9060322,47.1136168 L73.5593149,47.1136168 Z M77.8997145,17.1958621 L77.8997145,13.6305338 L33.5656325,13.6305338 L33.5656325,17.1958621 L77.8997145,17.1958621 Z M42.5564603,34.5574607 L45.6567458,34.5574607 L45.6567458,42.7732171 L42.5564603,42.7732171 L42.5564603,34.5574607 Z M50.307174,31.4571752 L53.4074594,31.4571752 L53.4074594,42.7732171 L50.307174,42.7732171 L50.307174,31.4571752 Z M57.9028733,28.3568898 L61.0031588,28.3568898 L61.0031588,42.7732171 L57.9028733,42.7732171 L57.9028733,28.3568898 Z M65.653587,25.10159 L68.7538724,25.10159 L68.7538724,42.7732171 L65.653587,42.7732171 L65.653587,25.10159 Z" id="icon-how-to" fill="#075AA8" fill-rule="nonzero"></path>
    </g>
</svg>