<?xml version="1.0" encoding="UTF-8"?>
<svg width="76px" height="65px" viewBox="0 0 76 65" version="1.1" xmlns="http://www.w3.org/2000/svg" xmlns:xlink="http://www.w3.org/1999/xlink">
    <!-- Generator: Sketch 47.1 (45422) - http://www.bohemiancoding.com/sketch -->
    <title>icon-discussion</title>
    <desc>Created with Sketch.</desc>
    <defs></defs>
    <g id="Wireframes" stroke="none" stroke-width="1" fill="none" fill-rule="evenodd">
        <path d="M73.8492266,15.9546881 L65.3434347,15.9546881 L65.3434347,1.82642347 C65.3434347,0.961427678 64.6226048,0.240597848 63.757609,0.240597848 L2.05457562,0.240597848 C1.18957983,0.240597848 0.46875,0.961427678 0.46875,1.82642347 L0.46875,59.3486439 C0.46875,60.0694737 0.901247898,60.6461376 1.47791176,60.9344695 C2.05457562,61.2228014 2.77540545,60.9344695 3.35206932,60.5019716 L15.7503424,46.5178729 L23.9678024,46.5178729 L23.9678024,51.2753498 C23.9678024,52.1403456 24.6886323,52.8611754 25.5536281,52.8611754 L63.3251111,52.8611754 L72.5517329,63.6736228 C72.9842308,64.2502867 73.7050607,64.3944527 74.4258905,64.1061207 C75.0025544,63.8177888 75.4350523,63.2411249 75.4350523,62.5202951 L75.4350523,17.5405138 C75.4350523,16.675518 74.7142224,15.9546881 73.8492266,15.9546881 Z M14.8853466,43.2020557 C14.4528487,43.2020557 14.0203508,43.3462216 13.5878529,43.7787195 L3.64040125,55.0236649 L3.64040125,3.55641506 L61.8834515,3.55641506 L61.8834515,15.9546881 L25.5536281,15.9546881 C24.6886323,15.9546881 23.9678024,16.675518 23.9678024,17.5405138 L23.9678024,43.2020557 L14.8853466,43.2020557 Z M72.119235,58.1953161 L65.3434347,50.266188 C65.0551027,49.8336901 64.6226048,49.6895241 64.045941,49.6895241 L27.1394537,49.6895241 L27.1394537,19.1263394 L72.119235,19.1263394 L72.119235,58.1953161 Z M38.528565,28.6412931 L60.7301237,28.6412931 C61.5951195,28.6412931 62.3159494,27.9204633 62.3159494,27.0554675 C62.3159494,26.1904717 61.5951195,25.4696419 60.7301237,25.4696419 L38.528565,25.4696419 C37.6635692,25.4696419 36.9427394,26.1904717 36.9427394,27.0554675 C36.9427394,27.9204633 37.6635692,28.6412931 38.528565,28.6412931 Z M34.9244158,35.9937574 L64.4784389,35.9937574 C65.3434347,35.9937574 66.0642645,35.2729276 66.0642645,34.4079318 C66.0642645,33.542936 65.3434347,32.8221061 64.4784389,32.8221061 L34.9244158,32.8221061 C34.0594201,32.8221061 33.3385902,33.542936 33.3385902,34.4079318 C33.3385902,35.2729276 34.0594201,35.9937574 34.9244158,35.9937574 Z M60.7301237,40.1745704 L38.528565,40.1745704 C37.6635692,40.1745704 36.9427394,40.8954002 36.9427394,41.760396 C36.9427394,42.6253918 37.6635692,43.3462216 38.528565,43.3462216 L60.7301237,43.3462216 C61.5951195,43.3462216 62.3159494,42.6253918 62.3159494,41.760396 C62.3159494,40.8954002 61.5951195,40.1745704 60.7301237,40.1745704 Z" id="icon-discussion" fill="#075AA8" fill-rule="nonzero"></path>
    </g>
</svg>