<?xml version="1.0" encoding="UTF-8"?>
<svg width="46px" height="60px" viewBox="0 0 46 60" version="1.1" xmlns="http://www.w3.org/2000/svg" xmlns:xlink="http://www.w3.org/1999/xlink">
    <!-- Generator: Sketch 47.1 (45422) - http://www.bohemiancoding.com/sketch -->
    <title>icon-document</title>
    <desc>Created with Sketch.</desc>
    <defs></defs>
    <g id="Wireframes" stroke="none" stroke-width="1" fill="none" fill-rule="evenodd">
        <path d="M2.23194645,0.141019934 C1.48748095,0.140999165 0.84685572,0.901885273 0.847409535,1.52555685 L0.847409535,58.2915496 C0.847478762,59.0164931 1.50700292,59.6760173 2.23194645,59.6760865 L43.7680539,59.6760865 C44.4929974,59.6760173 45.1525216,59.0164931 45.1525908,58.2915496 L45.1525908,13.9863891 C45.1525908,13.6177907 45.0037531,13.2504385 44.741591,12.9912532 L32.2807588,0.530420941 C32.0231657,0.281211219 31.6656783,0.138230092 31.3072217,0.141019934 L2.23194645,0.141019934 Z M3.61648337,2.91009376 L29.9226848,2.91009376 L29.9226848,13.9863891 C29.922754,14.7113118 30.5822781,15.3708568 31.3072217,15.370926 L42.383517,15.370926 L42.383517,56.9070127 L3.61648337,56.9070127 L3.61648337,2.91009376 L3.61648337,2.91009376 Z M32.6917586,4.8570988 L40.436512,12.6018522 L32.6917586,12.6018522 L32.6917586,4.8570988 Z M9.15463172,23.6781475 C8.38995198,23.6781475 7.7700948,24.2980047 7.7700948,25.0626567 C7.7700948,25.8273365 8.38995198,26.4471936 9.15463172,26.4471936 L36.8453693,26.4471936 C37.6100491,26.4471936 38.2299062,25.8273365 38.2299062,25.0626567 C38.2299062,24.2980047 37.6100491,23.6781475 36.8453693,23.6781475 L9.15463172,23.6781475 Z M9.15463172,34.754422 C8.38995198,34.754422 7.7700948,35.3742792 7.7700948,36.138959 C7.7700948,36.9036387 8.38995198,37.5234959 9.15463172,37.5234959 L36.8453693,37.5234959 C37.6100491,37.5234959 38.2299062,36.9036387 38.2299062,36.138959 C38.2299062,35.3742792 37.6100491,34.754422 36.8453693,34.754422 L9.15463172,34.754422 Z M9.15463172,45.8307174 C8.38995198,45.8307174 7.7700948,46.4505745 7.7700948,47.2152543 C7.7700948,47.979934 8.38995198,48.5997912 9.15463172,48.5997912 L36.8453693,48.5997912 C37.6100491,48.5997912 38.2299062,47.979934 38.2299062,47.2152543 C38.2299062,46.4505745 37.6100491,45.8307174 36.8453693,45.8307174 L9.15463172,45.8307174 Z" id="icon-document" fill="#075AA8" fill-rule="nonzero"></path>
    </g>
</svg>