<?xml version="1.0" encoding="UTF-8"?>
<svg width="60px" height="60px" viewBox="0 0 60 60" version="1.1" xmlns="http://www.w3.org/2000/svg" xmlns:xlink="http://www.w3.org/1999/xlink">
    <!-- Generator: Sketch 47 (45396) - http://www.bohemiancoding.com/sketch -->
    <title>listing__icon--question</title>
    <desc>Created with Sketch.</desc>
    <defs></defs>
    <g id="Wireframes" stroke="none" stroke-width="1" fill="none" fill-rule="evenodd">
        <g id="listing__icon--question" transform="translate(0.290082, -0.620035)">
            <circle id="Oval" fill="#FFFFFF" cx="30" cy="30.170328" r="29.4827586"></circle>
            <path d="M16.0674839,42.9166406 C16.0430783,42.8850568 16.018529,42.853473 15.9941234,42.8217457 C16.018529,42.853473 16.0429347,42.8849133 16.0674839,42.9166406 Z M28.9678846,13.2496958 L28.9805181,13.2496958 C29.3335388,13.2496958 29.6865595,13.272953 30.0390059,13.2894627 C30.772037,13.3236306 31.5043504,13.3348285 32.23853,13.3500461 C32.9831897,13.3651202 33.7212456,13.4168028 34.4608806,13.5059552 C35.2633961,13.6024294 36.0670601,13.6999084 36.8644073,13.831699 C37.2099628,13.8889805 37.5592508,13.949564 37.8979152,14.0414441 C38.261416,14.1407895 38.615298,14.2585109 38.9680316,14.3925985 C39.7412603,14.6874762 40.4910883,15.0548532 41.1903822,15.4973134 C41.5419672,15.7199792 41.8672803,15.9891592 42.1864202,16.2548938 C42.4622041,16.4854555 42.7303793,16.7467396 42.9658221,17.0182167 C43.5064792,17.6417095 43.9865529,18.3041078 44.3852265,19.026946 C44.5579324,19.3403434 44.7132673,19.6639337 44.8541023,19.9931229 C45.0301101,20.4025638 45.2016676,20.8135838 45.346953,21.235371 C45.590866,21.9435658 45.8152545,22.6748742 45.9302483,23.4168062 C46.0036088,23.8884097 46.0687863,24.3600132 46.1130036,24.8356364 C46.1455923,25.1895184 46.1606664,25.5455539 46.1724385,25.9005845 C46.1853592,26.2734168 46.1938294,26.6458185 46.1977056,27.0187944 C46.2015818,27.4213442 46.2139282,27.8257603 46.2010075,28.2284537 C46.1876562,28.6668942 46.1635377,29.0981565 46.104677,29.5332951 C46.0508409,29.925939 45.9896832,30.3157118 45.9100059,30.704336 C45.7585473,31.4456938 45.5914403,32.1836061 45.4580706,32.9289836 C45.32628,33.6691929 45.1939152,34.4061002 44.9751256,35.1266414 C44.7244652,35.9555724 44.3998699,36.7557909 44.052161,37.5481135 C43.4235,38.9798643 42.5094363,40.2692009 41.487557,41.4445487 C41.0064784,41.9975522 40.5123355,42.544239 39.9807229,43.0501539 C39.3817793,43.6198107 38.7442173,44.1374978 38.089715,44.6422643 C37.542454,45.0639079 36.9732279,45.4884228 36.353037,45.797944 C35.6699657,46.1381876 34.9801469,46.4728323 34.2745362,46.764121 C34.2731006,46.7648388 34.271665,46.7655566 34.2702293,46.7659873 C34.2708036,46.7715862 34.2713778,46.7770416 34.2720957,46.7826406 C34.3157387,47.1024983 34.3567977,47.4224995 34.3981437,47.7426444 C34.4613113,48.1714661 34.5375431,48.5939712 34.6376063,49.0157584 C34.7335062,49.4218973 34.8529503,49.8222936 34.968949,50.2232642 C35.084517,50.6236606 35.2122878,51.0256362 35.2981383,51.4345027 C35.3357517,51.6128076 35.3676226,51.794558 35.3811175,51.9767391 C35.3867165,52.0519659 35.390162,52.12547 35.3811175,52.1999791 C35.3446526,52.4938519 35.2919651,52.8315114 35.0497748,53.0383852 C34.8882668,53.1757747 34.7956688,53.2396601 34.5915227,53.304694 C34.4485342,53.3502034 34.2069182,53.3496292 34.0633555,53.3036891 C33.9022781,53.2514323 33.7424929,53.1662996 33.587158,53.0955232 C33.4424468,53.029915 33.3023296,52.9565545 33.1609204,52.8841989 C32.8435032,52.7226909 32.5171852,52.5802767 32.1986196,52.4209221 C31.8672769,52.2555378 31.5386619,52.0782379 31.2324426,51.869067 C30.8656399,51.6189808 30.5129064,51.3553997 30.1636183,51.0811949 C29.8909927,50.8669994 29.6274116,50.6404575 29.3667018,50.4121928 C29.1064226,50.1839281 28.84399,49.9556634 28.5972057,49.7123246 C28.1327804,49.2556516 27.7088397,48.7498803 27.2128306,48.3265139 C27.1200891,48.3292415 27.0273476,48.3352712 26.9344625,48.3372811 C26.7976472,48.3394345 26.6614062,48.3328306 26.524591,48.3272317 C26.2004264,48.3131625 25.8706629,48.3158902 25.5487953,48.2728214 C25.3093327,48.2413812 25.0704444,48.2110894 24.834858,48.1589762 C24.6806717,48.1246647 24.5287823,48.0815959 24.3767494,48.039532 C24.0678025,47.9536815 23.7604348,47.8622321 23.4536413,47.770352 C22.715729,47.5498396 22.0191628,47.2246701 21.3434131,46.8590159 C21.0192486,46.6834388 20.6935048,46.5113071 20.365464,46.3430516 C20.0440272,46.1788159 19.7177091,46.0183128 19.4147918,45.8204834 C19.0688057,45.5943721 18.7452154,45.3375384 18.4221993,45.0807048 C18.1385194,44.8547371 17.8496713,44.6343683 17.5675706,44.4066779 C17.2748462,44.169943 16.9933198,43.9266042 16.7252882,43.6618746 C16.4416083,43.3814967 16.188938,43.0729804 15.9447378,42.7580038 C15.9612475,42.7792511 15.9776137,42.8003548 15.9941234,42.8217457 C15.9213371,42.7278557 15.8485508,42.6338221 15.7759081,42.5397885 C15.8257243,42.6036739 15.8756842,42.6682772 15.925644,42.7327368 C15.5470691,42.2437623 15.1858654,41.7422977 14.8404535,41.2297789 C14.5572043,40.8102887 14.2937668,40.3684027 14.0856009,39.9062744 C13.824891,39.3269989 13.6027995,38.7382482 13.3959256,38.1375819 C13.213601,37.6086969 13.0314199,37.0805298 12.8905849,36.5387241 C12.502535,35.0481126 12.3825165,33.5015116 12.3427497,31.9666828 C12.333131,31.5914099 12.3292548,31.2168548 12.3269578,30.8417255 C12.3248043,30.4866949 12.3174826,30.1283624 12.3387299,29.7733319 C12.3858185,28.9854598 12.4957875,28.2043351 12.6545679,27.4309629 C12.8076057,26.6834319 12.9764354,25.9397771 13.1917795,25.2068895 C13.3969306,24.5080263 13.6404129,23.8210788 13.8590589,23.1268096 C14.0946453,22.3771251 14.3609541,21.6413663 14.6951681,20.9291518 C15.0036843,20.2713475 15.3284231,19.6118204 15.7130276,18.9943572 C16.1302208,18.3259293 16.6266606,17.7202383 17.1413329,17.1258887 C17.6169561,16.5761871 18.0717628,15.9980601 18.6028012,15.5006154 C19.1675769,14.9712997 19.8393067,14.5377404 20.5330017,14.1973532 C20.7529398,14.0891069 20.9733085,13.9825834 21.2015732,13.8917082 C21.391076,13.8166249 21.5890489,13.7268982 21.7903238,13.687562 C21.9703515,13.6528199 22.1627255,13.6136273 22.3477778,13.6292756 C22.4768407,13.6398992 22.6051857,13.6539684 22.7336743,13.670191 C22.7982776,13.678374 22.8627372,13.6869878 22.9269097,13.6964629 C23.00429,13.6792354 23.082101,13.6638742 23.1603427,13.6506664 C23.5753824,13.5804643 23.9914272,13.5322272 24.4109174,13.5065295 C24.803992,13.4818367 25.1972103,13.4650399 25.5902849,13.4386243 C26.3293457,13.3880902 27.0679758,13.3174574 27.8081851,13.2832895 C28.1952301,13.2653441 28.5809831,13.2507007 28.9678846,13.2496958 Z M27.1694746,48.2957914 C27.1719152,48.2962221 27.1742122,48.2965092 27.1766528,48.2967964 C27.1765092,48.2966528 27.1763656,48.2966528 27.1762221,48.2965092 C27.1739251,48.2962221 27.1717716,48.295935 27.1694746,48.2957914 Z M34.4081931,46.706983 C34.3790499,46.7193294 34.3496195,46.7315323 34.3203327,46.7441658 C34.3496195,46.7318194 34.3787627,46.719473 34.4081931,46.706983 Z M25.8909052,14.9130132 C25.4249007,14.9362704 24.9580348,14.9497653 24.4918867,14.9747452 C24.4249865,15.10711 24.3203293,15.2198067 24.1916971,15.29489 C24.0716787,15.3649486 23.9421851,15.3996908 23.8030729,15.4002651 C23.7345935,15.3913642 23.6662576,15.3817455 23.5977782,15.3728446 C23.5604519,15.3672456 23.5231256,15.3616467 23.4857993,15.3563349 C23.2202083,15.3213056 22.951459,15.2836921 22.6834274,15.2657468 C22.5609684,15.3068057 22.4398015,15.3518844 22.3190653,15.397968 C22.2158437,15.4433339 22.1133399,15.4899917 22.0106926,15.5376546 C21.8374124,15.6180497 21.672746,15.6608314 21.4845353,15.6170447 C21.0354712,15.8474629 20.6050702,16.1091777 20.1934759,16.4056346 C19.9598994,16.5982958 19.7395307,16.7997143 19.5280628,17.0182167 C19.3082683,17.2453329 19.1097211,17.4959933 18.9057185,17.7376094 C18.52901,18.1838022 18.1445491,18.6229605 17.7813354,19.0797771 C17.6119315,19.3126358 17.4478393,19.5477915 17.2989648,19.7945757 C17.1436299,20.0519837 17.0012157,20.3167133 16.8603807,20.5825914 C16.6078539,21.0595067 16.3765744,21.5470456 16.1590769,22.0409013 C15.9453121,22.5753852 15.7651409,23.1173344 15.597029,23.6680409 C15.4191548,24.2523411 15.2240531,24.8310424 15.0457482,25.4149119 C14.7034947,26.5378593 14.4534085,27.6962667 14.2791234,28.8574019 C14.231317,29.2918226 14.2001639,29.7260998 14.2023173,30.1642531 C14.205045,30.6420298 14.2158122,31.1192322 14.2308863,31.5964346 C14.259886,32.4970034 14.3134349,33.3944139 14.4216811,34.2880917 C14.5348085,35.0499789 14.6798069,35.80799 14.9145319,36.5421696 C15.1531331,37.28726 15.401353,38.032494 15.6889091,38.7600698 C15.9232034,39.2796232 16.1893687,39.7803699 16.5026225,40.2578594 C16.8223366,40.7441063 17.1575555,41.218581 17.5065564,41.6832935 C17.8768046,42.1379565 18.2740426,42.5643378 18.7228196,42.9434869 C19.1626957,43.3151707 19.6077401,43.6824041 20.057522,44.0418851 C20.2998559,44.2181801 20.5483629,44.3792574 20.8089292,44.5288498 C21.087728,44.6887786 21.3754276,44.8339205 21.6575283,44.9871019 C22.2111061,45.2874351 22.7514761,45.6045651 23.323717,45.866567 C23.6656834,46.0003674 24.0129616,46.1153611 24.3655515,46.2203055 C24.7419729,46.3322844 25.1169587,46.4434019 25.5032859,46.514609 C25.7740452,46.5400196 26.0445173,46.5470542 26.3171429,46.5522224 C26.5606252,46.5566729 26.8012363,46.5619847 27.0428523,46.5393018 C27.1842616,46.5170496 27.3263887,46.4943667 27.4689464,46.493936 C27.7128595,46.4922132 27.9758663,46.5819399 28.1761363,46.7204779 C28.4088514,46.8802632 28.6315172,47.0620136 28.8333663,47.2599866 C29.1754762,47.595349 29.5046655,47.9436321 29.8489289,48.2766976 C30.2084099,48.6244065 30.5779403,48.9613481 30.9402925,49.305755 C31.2753679,49.6244642 31.6151808,49.9334112 31.9738004,50.2236949 C32.2874849,50.455118 32.6089218,50.6740511 32.9557693,50.854653 C33.0101795,50.8830784 33.0648769,50.9110731 33.1197179,50.9386372 L33.1111041,50.8994446 C32.9994123,50.3975494 32.8816909,49.8979512 32.7886623,49.3926105 C32.6798418,48.8032856 32.618684,48.2076439 32.564848,47.6109974 C32.541878,47.3564607 32.5216357,47.1017805 32.5042646,46.8472438 C32.4835915,46.5377226 32.5480512,46.2197312 32.7190344,45.9572986 C32.8239787,45.7952163 32.9361012,45.6858215 33.0943073,45.577001 C33.1583362,45.5330708 33.228682,45.5020613 33.3001762,45.4732052 C33.4005265,45.4245374 33.4974313,45.3684044 33.5989302,45.3218901 C33.7368939,45.2590096 33.8754319,45.196847 34.0116729,45.1300903 C34.2898974,44.9944236 34.5641022,44.8508609 34.8400297,44.7111744 C35.1366302,44.56029 35.443998,44.4190243 35.7249502,44.2395709 C35.9657048,44.0853846 36.1985635,43.9230152 36.4274025,43.7521755 C37.1686167,43.1687367 37.8930341,42.5505557 38.556868,41.8802615 C39.2719538,41.1585718 39.9395204,40.3943876 40.5805278,39.6060848 C40.903831,39.1837233 41.2193818,38.7530352 41.4892797,38.2946395 C41.651362,38.0198605 41.816172,37.7455122 41.959304,37.4601095 C42.0956886,37.1883453 42.2263306,36.9154326 42.3538143,36.6393616 C42.8162297,35.5189983 43.2021263,34.3716452 43.4071338,33.1734709 C43.5115039,32.5650521 43.610275,31.9559156 43.7363231,31.3519473 C43.866678,30.725009 43.9997606,30.0990757 44.1103039,29.4681176 C44.129972,29.3168025 44.1479174,29.1654874 44.1598331,29.0128803 C44.1793576,28.7656653 44.1878278,28.5206038 44.1951495,28.272671 C44.2090751,27.8139882 44.1978772,27.3524341 44.190699,26.893177 C44.1763428,25.9812667 44.1525114,25.074094 44.0547452,24.1670649 C44.0158397,23.8965928 43.9737758,23.6268384 43.9147715,23.3595247 C43.8424159,23.0343552 43.7615901,22.7124876 43.6741604,22.3910507 C43.5165286,21.811201 43.3113775,21.2465689 43.0884246,20.6892585 C42.9164365,20.3062332 42.7355475,19.9282326 42.5250846,19.5641576 C42.316488,19.204533 42.0875055,18.8622796 41.8433053,18.5267735 C41.6314068,18.26793 41.4160627,18.00923 41.1753081,17.7769456 C40.9527859,17.5626064 40.726244,17.3584603 40.4886477,17.1623536 C40.1634782,16.9257623 39.8294078,16.7015174 39.4720802,16.5140245 C39.125807,16.3325612 38.7752269,16.1635879 38.4178993,16.0050947 C38.1299125,15.8908188 37.8397723,15.7858745 37.5413055,15.6997368 C37.2088142,15.603837 36.8672786,15.5309071 36.5257429,15.4714722 C35.8545873,15.3556171 35.1798426,15.2651726 34.5050979,15.1730053 C33.8649518,15.0885904 33.2227959,15.0119279 32.5771944,14.9898193 C31.8043964,14.9628295 31.0321726,14.9454584 30.2599489,14.8983699 C29.5517541,14.8557317 28.8484404,14.7980195 28.1385229,14.8130936 C27.3881206,14.8293162 26.640159,14.8753998 25.8909052,14.9130132 Z M29.7344089,19.7845407 C30.04594,19.7308483 30.357471,19.6955318 30.6718733,19.6955318 C30.7416448,19.6955318 30.8117034,19.6972546 30.881762,19.7009872 C31.3662861,19.7262542 31.8620081,19.8030603 32.3146613,19.9802167 C32.5356043,20.0666414 32.7694679,20.1636898 32.9701686,20.2920348 C33.1636911,20.4149245 33.3447237,20.5449923 33.5264741,20.686258 C33.6795119,20.8057022 33.8288171,20.9291661 33.9662066,21.0665556 C34.143363,21.2431377 34.2942474,21.436086 34.446711,21.6352075 C34.8326075,22.1386819 35.0058877,22.7623182 35.1089657,23.3786329 C35.1505989,23.6281449 35.1903658,23.8945972 35.2009894,24.1491339 C35.2285534,24.7772207 35.1045153,25.3925305 34.8449539,25.9633357 C34.7741775,26.1192448 34.7058416,26.2778816 34.613818,26.4231671 C34.4731265,26.6446843 34.3216679,26.8544294 34.1545609,27.0574271 C33.6426163,27.679915 32.9734705,28.1605629 32.296716,28.5901025 C32.0151895,28.7684073 31.7224652,28.9260392 31.4201221,29.0661564 C31.1476401,29.1926351 30.8870738,29.3284454 30.6417252,29.4995722 C30.5518549,29.5782445 30.4677272,29.6606495 30.3886241,29.7503762 C30.2938727,29.8846073 30.2096014,30.0250117 30.136528,30.1721634 C30.1109739,30.2453804 30.0898702,30.3191716 30.0739347,30.3958341 C29.9918168,31.1475284 29.9946881,31.9076929 29.97502,32.6631198 C29.9638221,33.0915109 29.95205,33.5200456 29.9586538,33.9490109 C29.9620993,34.1425335 29.9643964,34.3359124 29.9721487,34.5294349 C29.9761685,34.6141369 29.9806189,34.6982647 29.9867921,34.7829667 C29.9985643,34.9595488 29.9710002,35.1222053 29.9447283,35.2999359 C29.9048178,35.5640913 29.6620533,35.8243705 29.4422588,35.9532898 C29.1893013,36.1007287 28.8820772,36.1412134 28.5999765,36.0632588 C28.3267766,35.988032 28.0896111,35.8052766 27.9466226,35.5613636 C27.7878423,35.2898866 27.7828176,35.0184095 27.8360793,34.7183634 C27.8423961,34.6839084 27.8487128,34.6494533 27.854886,34.6149983 C27.8616335,34.533024 27.8668017,34.4513368 27.87197,34.3696496 C27.9207813,33.6389155 27.9886865,32.9104784 28.0637698,32.1818977 C28.1064079,31.7697291 28.151343,31.3575606 28.2079067,30.9471149 C28.2354708,30.7497162 28.2651882,30.5528917 28.2987819,30.3566415 C28.3246232,30.2018809 28.3520437,30.0392244 28.4064539,29.8916419 C28.7115247,29.0634287 29.2890774,28.3579616 30.0232571,27.8711405 C30.303635,27.6849396 30.599087,27.5245801 30.881762,27.3418248 C31.140462,27.1744307 31.388969,26.9896655 31.6356097,26.8047567 C31.9932244,26.51677 32.3254285,26.2127042 32.6263359,25.8649953 C32.7274041,25.7234425 32.8220119,25.579162 32.9107336,25.4278469 C32.9604063,25.3428578 33.003188,25.2544231 33.0430985,25.1646964 C33.11086,24.9741887 33.1631169,24.7842553 33.200156,24.5880051 C33.2165222,24.3218398 33.2004432,24.0618478 33.1723049,23.7982667 C33.1289489,23.5358341 33.0746822,23.2791439 32.9884011,23.0266172 C32.9213573,22.8929603 32.843977,22.7682043 32.7587007,22.6458889 C32.5587179,22.4194905 32.3438045,22.2129038 32.1120943,22.0206733 C31.9214431,21.8893134 31.727777,21.7727405 31.5196111,21.6729645 C31.2544508,21.5776388 30.9862756,21.5110257 30.7097739,21.4642243 C30.4359998,21.4457047 30.1712702,21.4510165 29.899506,21.4757093 C29.1890142,21.6003217 28.5086706,21.8176757 27.8356486,22.0775241 C27.4734399,22.2381708 27.1232905,22.4117381 26.7852004,22.6216268 C26.3859525,22.8699903 25.994457,23.1285467 25.5840113,23.3585341 C25.2048622,23.5704327 24.7153134,23.452137 24.4926476,23.0718394 C24.2761551,22.702309 24.4001932,22.1925179 24.7786245,21.9806193 C25.108388,21.7961413 25.4275279,21.5958713 25.7404946,21.384547 C26.0158479,21.1983462 26.2950773,21.0092741 26.5939748,20.8618352 C27.2888183,20.5197253 28.0099338,20.249971 28.7485638,20.0184043 C29.0704314,19.918054 29.4023484,19.8416787 29.7344089,19.7845407 Z M28.2913454,38.4067476 C28.4409377,38.3283624 28.6017279,38.2914668 28.7686913,38.2914668 C28.7870674,38.2914668 28.8055869,38.2918975 28.8241065,38.2929024 C29.1398009,38.30812 29.4600893,38.4320147 29.6692602,38.6747792 C29.8935051,38.9344841 30.0264442,39.2630991 30.0062018,39.6096595 C29.9849545,39.96469 29.8026299,40.3050772 29.4969849,40.4951542 C29.2227802,40.6655631 28.8622942,40.7323198 28.5470305,40.6493406 C28.417537,40.6151726 28.2884741,40.5640643 28.1797971,40.4851048 C28.060353,40.3981058 28.0024972,40.3459926 27.9189437,40.2236771 C27.8753007,40.1665392 27.8444347,40.1020795 27.8264893,40.0313031 C27.7636089,39.875394 27.7597327,39.6729706 27.8079697,39.5120368 C27.8098361,39.5058636 27.8117024,39.4996905 27.8137123,39.4935173 C27.7367626,39.2830543 27.750114,39.0408641 27.8674047,38.8335595 C27.9689035,38.6541061 28.106293,38.503796 28.2913454,38.4067476 Z" id="Combined-Shape" fill="#029CA6"></path>
        </g>
    </g>
</svg>