<?xml version="1.0" encoding="UTF-8"?>
<svg width="44px" height="33px" viewBox="0 0 44 33" version="1.1" xmlns="http://www.w3.org/2000/svg" xmlns:xlink="http://www.w3.org/1999/xlink">
    <!-- Generator: Sketch 47 (45396) - http://www.bohemiancoding.com/sketch -->
    <title>list-icon--tag-white</title>
    <desc>Created with Sketch.</desc>
    <defs>
        <polygon id="path-1" points="43.680858 0.287833882 43.680858 33.1040986 0.000167283758 33.1040986 0.000167283758 0.287833882 43.680858 0.287833882"></polygon>
    </defs>
    <g id="Wireframes" stroke="none" stroke-width="1" fill="none" fill-rule="evenodd">
        <g id="list-icon--tag-white" transform="translate(-8.736135, -13.363467)">
            <circle id="Oval" cx="30" cy="30.170328" r="29.4827586"></circle>
            <g id="Page-1" transform="translate(9.000000, 12.670328)">
                <g id="Group-3" transform="translate(0.000000, 0.422677)">
                    <mask id="mask-2" fill="white">
                        <use xlink:href="#path-1"></use>
                    </mask>
                    <g id="Clip-2"></g>
                    <path d="M20.8285077,28.6547895 C20.801315,28.6737061 20.7717578,28.6902582 20.7433828,28.7091748 C20.7717578,28.6902582 20.8001327,28.6737061 20.8285077,28.6547895 M28.2130862,2.2306251 C28.674179,2.28146354 29.1340895,2.32520824 29.5963646,2.37013523 C30.5540189,2.45998921 31.4939388,2.64206175 32.4385879,2.81349369 C33.3808725,2.98374334 34.3290684,3.1197066 35.2725352,3.28877396 C36.1769865,3.45192988 37.074344,3.66001278 37.9847067,3.8007052 C38.6822574,3.90711123 39.3833549,3.97450172 40.0773587,4.09864209 C40.3859362,4.15302739 40.6909668,4.22278246 40.9971797,4.28899065 C41.2608302,4.34455825 41.5268453,4.39539669 41.7893135,4.45332886 C41.685272,4.81983852 41.5457619,5.17452529 41.4086164,5.53157664 C41.2348198,5.98675799 41.0657525,6.44312164 40.900232,6.90184986 C40.5833785,7.78856679 40.2878062,8.68237745 40.0324317,9.588011 C39.7699635,10.5172903 39.5417817,11.456028 39.2828603,12.3864896 C39.0333973,13.2803003 38.8123092,14.1788401 38.5746691,15.0761976 C38.4942734,15.3788637 38.4091486,15.6791651 38.3192946,15.9794666 C38.2684562,16.1461694 38.2247115,16.316419 38.157321,16.4772104 C38.1265815,16.5197728 38.0934774,16.5611529 38.0580087,16.602533 C37.6631241,16.978501 37.2055781,17.2918077 36.7622197,17.6062966 C36.3094029,17.9290615 35.8459455,18.2340922 35.3765767,18.5308468 C33.6764448,19.5216051 31.8864589,20.3373847 30.1626812,21.286763 C29.283058,21.769137 28.4258983,22.2905265 27.549822,22.7799943 C26.7411361,23.2304465 25.9359972,23.6844455 25.1273113,24.1337154 C24.0845322,24.7118549 23.037024,25.280536 21.998974,25.8669515 C21.4622147,26.1684352 20.9266377,26.4722836 20.3946075,26.7832256 C19.8625774,27.0929854 19.3423701,27.4240264 18.8221628,27.7515205 C18.1518048,28.1605926 17.4660771,28.5377428 16.7768025,28.9160754 C16.0366894,29.319236 15.3308627,29.7826934 14.6155777,30.230781 C13.9570426,30.6209365 13.2724972,30.9708941 12.5477539,31.2215394 C12.4720874,31.2416383 12.3940563,31.2558258 12.3160252,31.2664664 C12.2971086,31.2652841 12.2793742,31.2629195 12.2616399,31.260555 C12.2344472,31.2416383 12.2108014,31.2215394 12.1847911,31.2002582 C11.9660676,30.974441 11.7568024,30.7391654 11.5357143,30.5133482 C11.2980742,30.275708 11.0497934,30.0498908 10.8038773,29.8205267 C10.4444613,29.454017 10.112238,29.0674084 9.80838972,28.6512426 C9.50335909,28.2303476 9.21015136,27.7999944 8.91694363,27.3708234 C8.31870528,26.4912002 7.69682114,25.6293113 7.119864,24.7355007 C6.88104157,24.3252463 6.65404204,23.9102628 6.43650082,23.4881855 C6.22605334,23.0767489 6.03097561,22.6594008 5.82525729,22.2455995 C5.38189882,21.3553357 4.93026434,20.4662542 4.44197888,19.5996362 C3.98443295,18.785039 3.47250171,18.0011812 3.03741927,17.1759433 C2.82342492,16.7668712 2.61415973,16.3566169 2.43445176,15.9309927 C2.33395718,15.6921703 2.24055633,15.4521656 2.14833777,15.2109786 C2.32922802,15.1128486 2.51011827,15.0194477 2.68864395,14.9236823 C3.02914325,14.7404275 3.36136652,14.5429852 3.69122522,14.3443606 C4.30483333,13.9731218 4.91962373,13.6054298 5.55805992,13.2743888 C6.31472503,12.8818688 7.0642964,12.4810728 7.77958139,12.0176154 C8.39200721,11.6203662 8.99970388,11.2136587 9.61685886,10.8199564 C10.4054458,10.348223 11.2094025,9.90841138 12.0299112,9.489881 C12.8882532,9.05361627 13.7489597,8.6220807 14.5907497,8.15389416 C15.4656437,7.66797329 16.349996,7.20451591 17.2402598,6.75169913 C18.1009664,6.31188753 18.9581261,5.86379991 19.8247441,5.43462892 C20.4040658,5.14851493 20.9822053,4.86240093 21.5556155,4.56801091 C22.0829165,4.29844897 22.6019415,4.01706413 23.1292425,3.74986676 C23.6660018,3.47557566 24.2039434,3.20601372 24.7489788,2.94827466 C25.2656392,2.70472308 25.7834818,2.45762463 26.3261526,2.2743698 C26.5732511,2.20461473 26.8250787,2.14550027 27.0816354,2.12185449 C27.4587857,2.12894822 27.8383005,2.18924497 28.2130862,2.2306251 M29.0525116,0.460738115 C28.7214706,0.428816305 28.3892473,0.398076785 28.0582063,0.35906124 C27.5982958,0.309405093 27.137203,0.253837499 26.6749279,0.31413425 C26.2303872,0.374431 25.7834818,0.508029684 25.367316,0.665274152 C24.4876928,0.993950559 23.6459029,1.43021529 22.8076598,1.84756339 C21.9587762,2.27082293 21.1311737,2.72955115 20.2834723,3.15162841 C19.4038491,3.58907543 18.5242259,4.02179329 17.6505142,4.46988091 C16.7377869,4.93924973 15.8215128,5.40270711 14.9135146,5.88271654 C14.0776361,6.32371043 13.2630389,6.80253757 12.4200666,7.22934398 C11.4458603,7.72235859 10.4657425,8.20236802 9.52109343,8.74858565 C8.53979337,9.31490219 7.60342029,9.94506235 6.65640662,10.5622173 C6.1645743,10.8613365 5.66564824,11.1427213 5.15489929,11.4099187 C4.65006179,11.6735692 4.14758886,11.9336728 3.65930341,12.2256983 C3.13791386,12.5378226 2.62480033,12.8617699 2.09277017,13.1537953 C1.8373957,13.2944878 1.57610978,13.4280864 1.31837072,13.5687789 C1.23679277,13.6137058 1.15403252,13.6609974 1.07363685,13.7094713 C0.901022625,13.679914 0.717767794,13.6988307 0.543971277,13.778044 C0.0970659461,13.9802155 -0.135845033,14.5453498 0.0840607645,14.9969842 C0.102977392,15.0348175 0.120711731,15.0750153 0.139628359,15.1140309 C0.157362697,15.1684162 0.178643903,15.2204369 0.207018845,15.2700931 C0.334706082,15.5786706 0.437565246,15.8990709 0.559341037,16.2088307 C0.739049,16.6628298 0.936491302,17.1073705 1.15521481,17.5436353 C1.5737452,18.3712377 2.07030668,19.1550955 2.53258177,19.9578699 C3.03150783,20.820941 3.49023605,21.7064757 3.94068825,22.5955572 C4.36867695,23.4385294 4.7470095,24.3098765 5.22583664,25.1256561 C5.91984042,26.3103099 6.72497939,27.4133858 7.49583197,28.5460189 C7.85879477,29.0792313 8.21939298,29.6148083 8.61427759,30.124375 C9.02216737,30.651676 9.49862994,31.1080396 9.98455081,31.5620387 C10.1618942,31.7334706 10.3333261,31.9072672 10.5000289,32.0881574 C10.8204293,32.438115 11.150288,32.8377288 11.61611,32.9902441 C11.9365103,33.0954678 12.2332649,33.1238428 12.5690351,33.091921 C12.8409616,33.0647283 13.1069767,32.9713275 13.3623512,32.8814735 C13.8825584,32.6970364 14.3850313,32.4605785 14.8721345,32.2016572 C15.4325396,31.9049026 15.9633875,31.5466689 16.4977822,31.2073519 C17.1574996,30.8065559 17.8325867,30.4388639 18.5064916,30.0617137 C19.2395109,29.6538239 19.9500668,29.2033717 20.6618049,28.7588309 C22.3595722,27.7349685 24.108178,26.7997777 25.841414,25.8373942 C26.654829,25.3881243 27.4635148,24.9317607 28.2769298,24.4777616 C29.1470947,23.993023 29.9995253,23.4728158 30.8720547,22.9928063 C32.6265719,22.0280583 34.4496619,21.1992736 36.1769865,20.1860517 C37.0376931,19.6788496 37.8617487,19.1030748 38.6574293,18.5012895 C39.0286681,18.221087 39.408183,17.9113272 39.6730158,17.5247186 C39.898833,17.1960422 39.988687,16.8070691 40.1010045,16.4311011 C40.3587435,15.5774883 40.5502744,14.7049588 40.7820031,13.8466168 C41.0314661,12.9244312 41.2821114,12.0069748 41.5244807,11.0847892 C41.7715792,10.1413224 42.0553286,9.21086074 42.3686352,8.28631056 C42.6736658,7.39131761 43.0141651,6.50814755 43.3475707,5.62143062 C43.4244195,5.41571229 43.49181,5.2064471 43.5438307,4.99363504 C43.598216,4.77254695 43.6561482,4.55500573 43.6738825,4.32918849 C43.7058043,3.96267883 43.6313201,3.62690868 43.4244195,3.32306035 C43.2518053,3.06768588 42.9479569,2.90098309 42.6642075,2.79812393 C42.3958279,2.7023585 42.1120785,2.64560862 41.8342405,2.58885874 C40.9829922,2.41624451 40.1376554,2.22589594 39.2757666,2.11830762 C38.3358466,2.0000787 37.4101142,1.83574049 36.4831994,1.65130337 C35.5231806,1.46095481 34.5584325,1.30252805 33.5925022,1.14528358 C32.679775,0.997497427 31.7776883,0.797690546 30.8637787,0.665274152 C30.4960867,0.612071137 30.1260302,0.569508724 29.757156,0.530493179 C29.5230627,0.505665105 29.2866048,0.484383899 29.0525116,0.460738115" id="Fill-1" fill="#FFFFFF" mask="url(#mask-2)"></path>
                </g>
                <path d="M13.0223248,12.2702788 C12.9549343,13.2042873 12.9714863,14.1477541 12.9939498,15.0829449 C13.0187779,16.1091719 13.1121788,17.127123 13.2292254,18.1474386 C13.3403606,19.1157335 13.4964228,20.0792992 13.6418443,21.0452295 C13.7872659,22.0182535 13.9598801,22.9841838 14.1502287,23.9501141 C14.2755514,24.5755452 14.3996917,25.2021584 14.5959517,25.8086728 C14.6668891,26.0250318 14.8998001,26.2082866 15.1007892,26.2875 C15.3301534,26.3773539 15.5914393,26.3702602 15.8160742,26.2685833 C16.0347977,26.169271 16.207412,25.9871985 16.2949014,25.7637458 C16.375297,25.5580275 16.3646564,25.3735904 16.313818,25.1773304 C16.3161826,25.1867887 16.3185472,25.196247 16.322094,25.204523 L16.3114534,25.1702366 C16.3031774,25.1418617 16.2960837,25.1123045 16.2866253,25.0839295 C16.0915476,24.3982018 15.9721364,23.6840991 15.8385377,22.9853661 C15.6718349,22.1175658 15.5358717,21.2485832 15.4058199,20.3748715 C15.1551745,18.7137551 14.9234459,17.0550033 14.8288627,15.3761526 C14.8063992,14.4054932 14.785118,13.4289223 14.8548731,12.4606274 C14.8903418,11.9593367 14.5451133,11.5029731 14.0331821,11.4497701 C13.5460789,11.3989316 13.0577934,11.7689882 13.0223248,12.2702788" id="Fill-4" fill="#FFFFFF"></path>
                <path d="M19.6634799,8.76384539 C19.6362872,8.99439179 19.6008185,9.22966735 19.5925425,9.46257833 C19.5830842,9.78061414 19.5889956,10.0986499 19.6079123,10.4155035 C19.6386518,10.9014243 19.6942194,11.3849806 19.7426932,11.8685369 C19.839641,12.8356495 19.962599,13.8003975 20.0938331,14.7639633 C20.223885,15.7109769 20.3444785,16.6579906 20.4875355,17.6026397 C20.6365039,18.5780283 20.8386754,19.5392295 21.090503,20.4933369 C21.2264662,21.0111796 21.3636118,21.52784 21.3978982,22.0657816 C21.4120856,22.2915988 21.5858822,22.5268744 21.760861,22.6569262 C21.9606678,22.8023478 22.21486,22.8638268 22.4584116,22.8224467 C22.6936872,22.7822488 22.9088638,22.6510147 23.0495562,22.4583016 C23.207983,22.2419427 23.2328111,22.01849 23.2150767,21.7607509 C23.1878841,21.339856 23.0992124,20.9307839 22.9939886,20.5205295 C22.8674837,20.0251503 22.7362496,19.5309534 22.6227498,19.0332097 C22.4123023,18.1039303 22.2775214,17.158099 22.1474695,16.2146321 C21.8850013,14.2934121 21.6248977,12.3710098 21.4511012,10.4379669 C21.4392783,10.3090974 21.42982,10.1790456 21.4215439,10.0501761 C21.4215439,9.68130184 21.4522835,9.3230682 21.4972105,8.95419396 C21.5575072,8.4552679 21.1673518,7.9941751 20.6743372,7.94333667 C20.1694996,7.89013365 19.7249589,8.26491934 19.6634799,8.76384539" id="Fill-6" fill="#FFFFFF"></path>
                <path d="M23.3223103,9.8225854 C23.1118629,9.90889252 22.9049622,10.0034757 22.6992439,10.0980588 C22.241698,10.3085063 21.7841521,10.5236829 21.3277884,10.7376773 C20.4327955,11.1609368 19.5378025,11.5806495 18.6286221,11.9743518 C17.6697855,12.3893353 16.7003083,12.7759439 15.7485655,13.2027503 C14.8523903,13.6047287 13.9869546,14.0752798 13.1321594,14.5564715 C12.5894887,14.8603198 12.0480002,15.1665327 11.5029649,15.4644696 C10.9047265,15.7955106 10.3183111,16.1371922 9.76263512,16.5356237 C9.35474534,16.8276491 9.32518811,17.4589916 9.62903644,17.8314127 C9.78155175,18.020579 10.0061867,18.1411725 10.2473737,18.1671828 C10.5027482,18.1931932 10.7202894,18.1116152 10.9236431,17.9661936 C11.0844345,17.8503293 11.2475904,17.7380118 11.4119286,17.6304235 C12.2111561,17.1598724 13.0293003,16.7224254 13.8368038,16.2660617 C14.6821406,15.7884169 15.5404826,15.3155012 16.4271995,14.9194343 C17.3931298,14.4855341 18.3673362,14.0800089 19.3427248,13.6721191 C20.2554521,13.2926043 21.1468982,12.8634333 22.0395265,12.4401738 C22.4344111,12.2533721 22.830478,12.0653881 23.2277272,11.8833155 C23.5705911,11.7248888 23.9146373,11.5617329 24.2669594,11.4222227 C24.4750424,11.4304988 24.7055888,11.3323688 24.8557395,11.210593 C25.0460881,11.0568954 25.1666816,10.8322604 25.1915096,10.5898911 C25.21752,10.3475218 25.1442181,10.102788 24.9905205,9.91362167 C24.825,9.70908564 24.6204639,9.63223684 24.3710009,9.57903382 C24.3414437,9.57194009 24.3130687,9.56839322 24.2835115,9.56484635 C23.9524705,9.53055996 23.6226118,9.69608045 23.3223103,9.8225854" id="Fill-8" fill="#FFFFFF"></path>
                <path d="M24.5831036,16.4845488 C24.564187,16.4951894 24.5476349,16.5070123 24.5299006,16.5164706 C24.5476349,16.5070123 24.564187,16.4951894 24.5831036,16.4845488 M24.0427974,14.674464 C23.5970744,14.9381145 23.1596273,15.2171347 22.7198158,15.4902435 C21.9253174,15.9678884 21.1178138,16.4218875 20.3020343,16.8605168 C19.4094059,17.3428908 18.522689,17.8335408 17.627696,18.3100034 C16.7622603,18.7710962 15.8909131,19.2250952 15.0231128,19.6790943 C14.5679315,19.9167344 14.116297,20.1567391 13.6670271,20.3979261 C13.2366738,20.6284725 12.8134143,20.8720241 12.3795141,21.0942945 C11.8049215,21.3863199 11.2185061,21.6464236 10.6332729,21.9136209 C10.1769093,22.1205216 9.96764408,22.6738329 10.1745447,23.1325611 C10.3814453,23.5889248 10.9371212,23.7993723 11.3946672,23.5924717 C11.8250205,23.3950294 12.2660143,23.217686 12.6869093,23.0036916 C13.1456375,22.7695983 13.597272,22.5284113 14.0477242,22.2824952 C14.9415349,21.7965743 15.8424393,21.3283878 16.7433437,20.8578367 C18.4730328,19.95575 20.1861699,19.0181946 21.9004893,18.0853684 C22.7848417,17.6065413 23.6360899,17.0745111 24.4873382,16.5436632 C24.5925619,16.4798196 24.6977856,16.4147937 24.8030094,16.3533147 C25.018186,16.2244451 25.1860711,16.0908465 25.2806542,15.8496595 C25.3705082,15.6202953 25.3634145,15.3578271 25.2617376,15.1331922 C25.1636076,14.915651 24.9803528,14.7418544 24.7580824,14.6555473 C24.6824159,14.6259901 24.5937442,14.6047089 24.5027079,14.5940683 C24.3407343,14.5786985 24.1693024,14.5976152 24.0427974,14.674464" id="Fill-10" fill="#FFFFFF"></path>
                <path d="M34.6002856,8.47051943 L34.5991033,8.47051943 L34.6014679,8.47051943 L34.6002856,8.47051943 Z M33.5149441,10.1328181 C33.5279492,10.1399118 33.5409544,10.1481879 33.5539596,10.1552816 C33.5409544,10.1481879 33.526767,10.1410941 33.5137618,10.1328181 L33.5149441,10.1328181 Z M33.4865691,10.1174483 C33.4948451,10.1221775 33.5043035,10.1269067 33.5137618,10.1328181 L33.5125795,10.1328181 C33.5031212,10.1269067 33.4948451,10.1221775 33.4865691,10.1174483 L33.4865691,10.1174483 Z M34.7279728,8.4740663 C34.7823581,8.49416522 34.8355611,8.51544643 34.8887642,8.5402745 C34.8994048,8.54618595 34.9100454,8.55446197 34.920686,8.56155571 C34.9490609,8.59347752 34.9762536,8.6277639 35.0034462,8.66205029 C35.0235451,8.70579499 35.043644,8.75072198 35.0613784,8.79564897 C35.072019,8.8583103 35.0826596,8.91978934 35.0897533,8.98363296 C35.0862065,9.05102345 35.0779304,9.11959622 35.0684721,9.18698671 C35.0519201,9.23427828 35.0330034,9.28038756 35.0140868,9.32649684 C34.9691598,9.39270504 34.9218683,9.45773095 34.8710298,9.52039227 C34.7528009,9.63034517 34.6262959,9.72847518 34.4926973,9.82069374 C34.3165362,9.91882375 34.1344636,10.001584 33.9452973,10.0713391 C33.8471673,10.0938026 33.7514019,10.1103546 33.6532719,10.1209952 C33.5977043,10.1174483 33.5421367,10.1115369 33.4889337,10.1032609 C33.4652879,10.0949848 33.4428244,10.0855265 33.4215432,10.0760682 C33.3990797,10.0618807 33.3777985,10.0453287 33.355335,10.0287766 C33.310408,9.9791205 33.2690279,9.92828206 33.2288301,9.87389676 C33.220554,9.85616242 33.212278,9.83724579 33.204002,9.81832916 C33.1898145,9.74384494 33.1768093,9.6717253 33.1649865,9.59605879 C33.2879445,9.52985059 33.391986,9.43644974 33.4912983,9.32413226 C33.604798,9.19053358 33.723027,9.06284634 33.8424382,8.93634139 C33.9583025,8.82047705 34.0777137,8.71407102 34.2077656,8.6171233 C34.2869789,8.58047233 34.3673746,8.54855052 34.4477703,8.52017558 C34.5376243,8.49889438 34.6251137,8.48470691 34.7173322,8.47288401 C34.7220614,8.4740663 34.724426,8.4740663 34.7279728,8.4740663 L34.7279728,8.4740663 Z M34.6239314,8.46224341 C34.6168376,8.46579028 34.6085616,8.46815486 34.6014679,8.47051943 C34.6097439,8.46933715 34.6180199,8.46933715 34.6251137,8.46933715 C34.6180199,8.47051943 34.6085616,8.47051943 34.5991033,8.47051943 C34.5860981,8.47524859 34.5730929,8.47879546 34.5589055,8.48352462 C34.5730929,8.47879546 34.5849158,8.47524859 34.5991033,8.47051943 C34.5872804,8.47051943 34.5754575,8.47051943 34.5648169,8.47170172 C34.5766398,8.47051943 34.5884627,8.47051943 34.6002856,8.47051943 C34.6085616,8.46815486 34.6168376,8.46460799 34.6239314,8.46224341 L34.6239314,8.46224341 Z M34.508067,6.64624715 C34.1179116,6.67580438 33.7171155,6.79758017 33.3695225,6.97610584 C33.3139549,7.00566307 33.2607519,7.03640259 33.2087312,7.0683244 C33.0148357,7.02221512 32.7783779,7.02694428 32.6140397,7.12507429 C32.3941339,7.25867297 32.1647698,7.38517792 31.9673275,7.55424528 C31.6741197,7.80607289 31.5097815,8.19268146 31.417563,8.55919113 C31.3714537,8.73889909 31.3371673,8.90560187 31.3182507,9.0888567 C31.291058,9.32294997 31.3135215,9.56650155 31.3312558,9.79941253 C31.3501725,10.018136 31.4033755,10.2451356 31.479042,10.4508539 C31.56062,10.671942 31.6788489,10.8611083 31.810083,11.0585506 C31.8443694,11.1022953 31.8786558,11.1436754 31.9141244,11.1850555 C32.0075253,11.2772741 32.1021084,11.3683103 32.1978739,11.4581643 C32.3917693,11.6094974 32.6022168,11.7241794 32.8268517,11.8234917 C33.0089243,11.9015228 33.2264655,11.93108 33.4227255,11.9547258 C33.6308084,11.9795539 33.8530788,11.9535435 34.0599794,11.9298977 C34.2290468,11.9097988 34.401661,11.8495021 34.5624523,11.7986636 C34.7468894,11.7407315 34.920686,11.6686118 35.0980293,11.5846693 C35.4420755,11.4179665 35.7719342,11.1968784 36.0533191,10.9367748 C36.3477091,10.6624837 36.5593388,10.3550885 36.7354999,9.99449026 C36.8218071,9.81478229 36.8549112,9.60906397 36.8974736,9.41635082 C36.9424006,9.22363768 36.9305777,9.00491417 36.9187548,8.80983644 C36.8986559,8.46224341 36.8017081,8.11819724 36.6373699,7.81080204 C36.5262347,7.60863058 36.3961829,7.43365178 36.2294801,7.27522502 C36.1514491,7.18537104 36.0627774,7.10970453 35.9646474,7.04467862 C35.8641528,6.98201729 35.7601113,6.92408512 35.6572522,6.86969981 C35.4184297,6.74910631 35.1748781,6.67698667 34.920686,6.6509763 C34.785905,6.63678883 34.6487594,6.63560654 34.508067,6.64624715 L34.508067,6.64624715 Z" id="Fill-12" fill="#FFFFFF"></path>
            </g>
        </g>
    </g>
</svg>