<?xml version="1.0" encoding="UTF-8"?>
<svg width="33px" height="33px" viewBox="0 0 33 33" version="1.1" xmlns="http://www.w3.org/2000/svg" xmlns:xlink="http://www.w3.org/1999/xlink">
    <!-- Generator: Sketch 47 (45396) - http://www.bohemiancoding.com/sketch -->
    <title>list-icon--practice-example</title>
    <desc>Created with Sketch.</desc>
    <defs></defs>
    <g id="Wireframes" stroke="none" stroke-width="1" fill="none" fill-rule="evenodd">
        <g id="list-icon--practice-example" transform="translate(-13.373435, -10.916910)">
            <circle id="Oval" cx="30" cy="30.170328" r="29.4827586"></circle>
            <path d="M15.3328943,41.7697116 C15.3371061,41.7752588 15.3413178,41.7806005 15.3455296,41.786045 C15.3412151,41.7811141 15.3371061,41.7761833 15.3333052,41.7711497 C15.3332025,41.7707388 15.3330998,41.7702252 15.3328943,41.7697116 M44.1697417,19.3421254 C44.1724125,19.3454127 44.1749807,19.3488026 44.1775488,19.3521926 C44.1749807,19.3488026 44.1723098,19.3455154 44.1697417,19.3421254 M15.573067,19.3296956 C15.5654653,19.3395573 15.5576581,19.3495217 15.5499537,19.3594861 C15.5572472,19.3492135 15.5648489,19.3392491 15.573067,19.3296956 M20.5472503,18.9324554 C21.0909774,18.9103694 21.6326499,18.9175602 22.176377,18.9396462 C22.7080852,18.9617322 23.2381497,19.0114514 23.7706797,19.0171014 C24.3283775,19.0226485 24.886178,19.0223404 25.4435676,19.0379547 C25.9925337,19.053569 26.5390343,19.0969192 27.0859459,19.1438649 C27.6456982,19.1924541 28.2051423,19.2305653 28.7668463,19.2505969 C29.3178669,19.2703202 29.8700175,19.2666221 30.4209354,19.2743265 C30.9534654,19.2815173 31.4854817,19.2960016 32.0180117,19.3135677 C34.2105888,19.3854757 36.4051177,19.3638006 38.5984139,19.411568 C39.0980717,19.4227651 39.5980376,19.4364276 40.0971817,19.4676562 C40.589135,19.4981658 41.0810884,19.5359688 41.5738635,19.5535349 C42.0485589,19.5707928 42.5240761,19.5644238 42.9991824,19.5568221 C43.2568185,19.5528158 43.5140436,19.5475768 43.7712687,19.5375097 C43.9207346,19.5316543 44.0715359,19.5203545 44.2218236,19.5188136 C44.2373352,19.6037678 44.2480186,19.6899546 44.2596266,19.7747033 C44.2784254,19.9090685 44.297327,20.0434337 44.3161258,20.1779016 C44.3455053,20.4126298 44.3683104,20.6475635 44.3747821,20.8842435 C44.3819729,21.1546175 44.3836166,21.4246833 44.3903964,21.6947492 C44.4032372,22.2071449 44.4490528,22.7163562 44.4863422,23.227211 C44.5653383,24.315487 44.5316443,25.4084883 44.532877,26.4984079 C44.5336988,27.5833966 44.5421223,28.6693099 44.4878831,29.7534768 C44.4329249,30.8657906 44.3518743,31.9786179 44.2403142,33.0869254 C44.1773434,33.7157094 44.1011209,34.3424388 44.0405127,34.9712227 C43.9858627,35.5339541 43.9398416,36.0956581 43.8698854,36.6560268 C43.7699333,37.3390499 43.6662831,38.0213539 43.5798908,38.7059179 C43.4951421,39.3741485 43.4264186,40.0436118 43.3415672,40.7115343 C43.3207138,40.8653146 43.2977033,41.0203277 43.2605166,41.1706154 C43.2204536,41.1803743 43.1799796,41.1887978 43.1390948,41.1962968 C42.9371361,41.2172528 42.7343556,41.2316344 42.5324996,41.2536177 C42.2716791,41.2820727 42.0108586,41.3117605 41.7500381,41.3406264 C41.2319924,41.3976391 40.7135358,41.437394 40.1918948,41.4458175 C39.0880045,41.4637945 37.9837034,41.4810524 36.880224,41.4622536 C35.8152668,41.4441739 34.7534941,41.331792 33.6885369,41.3294293 C33.2968438,41.3286075 32.9055616,41.3302511 32.5143822,41.331792 C31.7896525,41.3342574 31.0653336,41.337031 30.3411175,41.3250121 C29.2415418,41.3065214 28.1420687,41.2844354 27.0421847,41.2820727 C26.5045185,41.28084 25.9647977,41.2909071 25.4275424,41.3153559 C24.8729264,41.3406264 24.3192349,41.3843875 23.764208,41.4020563 C22.6499424,41.437394 21.5339306,41.3972282 20.4199732,41.4521865 C19.85981,41.4799224 19.3021122,41.5364215 18.7434899,41.5881953 C18.226677,41.6359627 17.7078095,41.6616442 17.189353,41.6857847 C16.6317579,41.7117743 16.0677939,41.7606717 15.5103016,41.7145479 C15.4452762,41.7037617 15.3813808,41.6911264 15.3179991,41.674793 C15.2861541,41.2510496 15.3278608,40.8211426 15.3431669,40.3977073 C15.3627875,39.8655882 15.3623766,39.3330582 15.382819,38.8010419 C15.4036723,38.2552603 15.4458926,37.7103005 15.483182,37.1654435 C15.5196496,36.6284963 15.5442011,36.0912409 15.5566309,35.553061 C15.5686498,35.0177575 15.5790251,34.4828648 15.6063501,33.9479721 C15.6332642,33.4195512 15.6858598,32.8926711 15.7235601,32.3645584 C15.7632122,31.8096342 15.7877637,31.2542991 15.8113906,30.6985531 C15.8355311,30.1355136 15.8551517,29.5737068 15.8572062,29.0103592 C15.8587471,28.4999152 15.8406674,27.9887522 15.8286485,27.4787191 C15.8162187,26.940642 15.7973172,26.402873 15.7700948,25.8652067 C15.7392771,25.2543998 15.7073294,24.6436955 15.6889416,24.0324777 C15.6953105,23.8725338 15.7010632,23.7125899 15.7042477,23.5522351 C15.7090758,23.3179178 15.6950024,23.0836005 15.6793881,22.8495914 C15.6780526,22.8297653 15.6766145,22.8098365 15.6750736,22.7899078 C15.675279,22.7722389 15.6755872,22.7546728 15.6757927,22.7369013 C15.6763063,22.699201 15.67117,22.6626306 15.6612056,22.6278066 C15.6249434,22.2500843 15.5640271,21.8741082 15.5108152,21.4984404 C15.4713685,21.1802989 15.4421944,20.8635956 15.426991,20.5430915 C15.4130203,20.2599795 15.4283265,19.9779975 15.4589387,19.6966318 C15.4737312,19.6123967 15.4911946,19.5304216 15.5147188,19.4491656 C15.5351612,19.4446457 15.5558091,19.4406394 15.5766624,19.4369413 C15.8194032,19.4109517 16.0640958,19.407459 16.3077611,19.3930774 C16.6203554,19.3749977 16.9314088,19.3429472 17.2415376,19.300727 C17.8073507,19.22358 18.3689521,19.1170535 18.9341488,19.0363111 C19.4702742,18.9829964 20.0087622,18.9541305 20.5472503,18.9324554 M24.7241063,17.9446491 C24.7102151,17.8237671 24.7000038,17.7024252 24.6939988,17.5816331 C24.6687282,17.0515686 24.6835207,16.5282839 24.7325209,16.0001711 C24.760565,15.6992876 24.7986762,15.3951168 24.8580517,15.0989587 C24.9074627,14.8541633 24.9580038,14.6065944 25.0415198,14.3706335 C25.1570862,14.0443767 25.3276108,13.7446232 25.5539155,13.4822618 C25.7593669,13.2442463 25.9869043,13.0379732 26.2384795,12.8494715 C26.6725983,12.5243447 27.1497591,12.2583879 27.6368843,12.0203725 C27.9077719,11.88837 28.1818441,11.7623255 28.4667024,11.6637089 C28.7167368,11.5765975 28.9743728,11.5103394 29.2347824,11.461442 C29.7897066,11.3566618 30.3498698,11.2519843 30.9133202,11.2021624 C30.9918026,11.195177 31.0705932,11.1923007 31.1492811,11.1923007 C31.3244284,11.1923007 31.4996784,11.206785 31.6736957,11.2230157 C31.9509524,11.249108 32.2418715,11.2535252 32.5115264,11.3254332 C32.777586,11.3960057 33.0259767,11.5240019 33.2731347,11.6424447 C33.511561,11.7563675 33.7498846,11.8715229 33.9894409,11.9826721 C34.2109175,12.0853978 34.4332159,12.186069 34.6358937,12.3245432 C34.7727243,12.4180236 34.9079113,12.516743 35.0299494,12.6291249 C35.1499331,12.7402741 35.2474197,12.8670376 35.34655,12.9974992 C35.7666981,13.5480062 35.9010633,14.2442809 35.9946464,14.9135388 C36.075697,15.4921926 36.1218208,16.0748527 36.1434959,16.6587455 C36.1531521,16.9211069 36.1595211,17.1831602 36.1567475,17.4460352 C36.1551039,17.5824549 36.1538712,17.7188746 36.149454,17.8552944 C36.1457512,17.9738632 36.1301273,18.0914229 36.1216108,18.2093078 C36.9171591,18.2137605 37.71288,18.2240819 38.5082207,18.2378243 C39.0378744,18.2470696 39.5683499,18.2650466 40.0971817,18.3028496 C40.633718,18.3413718 41.1709733,18.3950973 41.7091532,18.4099925 C42.2540103,18.424785 42.7997919,18.4231414 43.3447517,18.402699 C43.6047504,18.3931455 43.8639273,18.3714704 44.123926,18.357397 C44.2443205,18.3509253 44.3651259,18.3417827 44.4855204,18.3553425 C44.6412526,18.3734222 44.7776723,18.4007472 44.9128593,18.486215 C45.0469163,18.5704501 45.1568328,18.6960836 45.2239127,18.8388723 C45.3523198,19.1122253 45.3787203,19.4183479 45.4249469,19.7136843 C45.4694271,19.9989535 45.5167836,20.2850445 45.5445196,20.5727792 C45.5946497,21.090003 45.5914652,21.610925 45.6243374,22.1293816 C45.6576206,22.654618 45.7250086,23.1774918 45.7519227,23.7031391 C45.7796587,24.2456335 45.7860277,24.7881279 45.7892122,25.331444 C45.795273,26.4241372 45.8181808,27.5172413 45.8081137,28.6095235 C45.7976357,29.7210155 45.7354866,30.828912 45.6624487,31.9380413 C45.5910543,33.0259064 45.4553537,34.1081215 45.3815966,35.1955756 C45.3454372,35.7276947 45.3185231,36.260122 45.2576067,36.7897756 C45.1974095,37.3155257 45.1319732,37.8403512 45.0730087,38.3659986 C45.0128114,38.9029458 44.9618595,39.4402011 44.9064903,39.9775592 C44.8731045,40.2952898 44.8398213,40.6139449 44.791643,40.9301345 C44.7712006,41.0654243 44.7531209,41.2010222 44.7246658,41.3346683 C44.6717621,41.5826481 44.611873,41.8426468 44.4550109,42.0476873 C44.353107,42.1805116 44.2480186,42.3089187 44.0918756,42.3843194 C44.0100032,42.4240742 43.92659,42.4594119 43.8418413,42.4935168 C43.7941765,42.5127265 43.7459982,42.5303953 43.6961762,42.543236 C43.5248298,42.5874081 43.3483471,42.6063096 43.1729943,42.6263411 C42.9277881,42.6543852 42.6793974,42.6620896 42.4330612,42.683662 C41.9061811,42.7302995 41.3801228,42.7768342 40.8515992,42.7972767 C40.3247191,42.8173082 39.7954764,42.7968658 39.2685963,42.7884422 C38.7164457,42.7796078 38.1642951,42.7711843 37.6125555,42.7575218 C37.0864972,42.7446811 36.5607471,42.7210542 36.0359216,42.6825321 C35.4797647,42.6419554 34.9244296,42.5922362 34.3678618,42.5573094 C33.8153004,42.5223827 33.2615062,42.5196091 32.7082256,42.5123156 C32.1531987,42.5051248 31.5982745,42.4943386 31.0429394,42.4806761 C29.9634979,42.4541729 28.8844673,42.4095899 27.8046148,42.3827785 C26.6975401,42.3554535 25.5920062,42.352269 24.4849314,42.397571 C23.9187074,42.4204788 23.3533052,42.430135 22.7867731,42.424896 C22.2297944,42.4200679 21.6732266,42.4140071 21.1162479,42.4224306 C20.560091,42.4305459 20.0058859,42.4666027 19.4521945,42.5156028 C18.9308616,42.5613157 18.4108641,42.6191503 17.8884013,42.6495571 C17.3390243,42.6817103 16.7893391,42.7101653 16.2395512,42.7350249 C15.9863324,42.7467356 15.7267446,42.7567 15.4739367,42.7286559 C15.074231,42.6833539 14.5485837,42.6355864 14.3632665,42.211432 C14.3239226,42.1207253 14.2934131,42.0445028 14.2769769,41.9489679 C14.271327,41.9169175 14.2669098,41.8847644 14.2624926,41.852303 C14.2500628,41.763548 14.2388657,41.6761285 14.2307504,41.5870653 C14.2223269,41.4894759 14.2195533,41.3915783 14.2191424,41.2936807 C14.2179097,41.0565898 14.2292095,40.8193962 14.237633,40.5826135 C14.2568427,40.0513162 14.2500628,39.518889 14.2733816,38.9880026 C14.3206354,37.9270517 14.4334282,36.8696962 14.4542815,35.8075126 C14.4647595,35.2726199 14.4671222,34.7360836 14.4988644,34.2020128 C14.5321476,33.6326043 14.5843322,33.0648394 14.636106,32.4965609 C14.6854143,31.957251 14.7167456,31.4168112 14.7529051,30.8762686 C14.7885509,30.3386023 14.8314902,29.8008333 14.8523435,29.2619344 C14.894872,28.1769456 14.9093563,27.087437 14.8876812,26.0016264 C14.8771004,25.4783418 14.8643624,24.9550571 14.8581989,24.4318752 C14.8374483,24.3819505 14.8257376,24.3276086 14.8251212,24.270904 C14.8214231,23.9355046 14.8198822,23.5995916 14.8053979,23.2645004 C14.7921463,22.9558097 14.7622531,22.6497899 14.7252719,22.3433592 C14.6066237,21.5264845 14.4591096,20.7006727 14.5205396,19.8730118 C14.530504,19.7397766 14.5437556,19.6069523 14.5634789,19.4745389 C14.5790932,19.3709914 14.5931666,19.2638485 14.6268606,19.1643073 C14.6742172,19.025114 14.7279427,18.86743 14.8379619,18.7622389 C14.9329832,18.671224 15.0317026,18.6114376 15.1569252,18.5688065 C15.2661226,18.5323388 15.3756282,18.5174436 15.489551,18.5026511 C15.6697318,18.4789215 15.8511454,18.4717307 16.0321481,18.4593009 C16.1972283,18.4477956 16.3613839,18.4304349 16.5251287,18.4104034 C17.2424622,18.3061369 17.9452086,18.1253396 18.6596658,18.0058697 C19.241915,17.908383 19.831355,17.8690391 20.4199732,17.8393513 C20.6595295,17.827127 20.8987776,17.8215798 21.1380257,17.8215798 C21.4254522,17.8215798 21.712776,17.8295924 22.0002025,17.8433576 C22.5552294,17.8698609 23.1085099,17.9168065 23.6639477,17.9336535 C24.0171945,17.9442044 24.3706758,17.9425133 24.7241063,17.9446491 Z M25.9909101,17.9817382 C26.2927171,17.997466 26.5941979,18.0178524 26.8958006,18.0427482 C27.4414795,18.087742 27.9875693,18.1338659 28.5349945,18.1498911 C29.0842687,18.1656081 29.6332348,18.1623209 30.1826118,18.1639645 C30.7688673,18.1656081 31.3547119,18.1732098 31.9405565,18.1835851 C32.4634303,18.1932413 32.9858931,18.2092665 33.5087669,18.2096774 C33.9263448,18.2099773 34.3441416,18.2083623 34.7618379,18.2074676 C34.7562372,18.0789788 34.768291,17.950717 34.7827914,17.8191349 C34.7975839,17.6843588 34.8112465,17.54948 34.8244981,17.4147039 C34.8518231,17.1385772 34.8670265,16.8589579 34.870211,16.5817013 C34.8734982,16.2735242 34.8726764,15.9660662 34.864972,15.6578891 C34.8581921,15.3899805 34.8333325,15.1232019 34.8056993,14.8571424 C34.7602945,14.5542043 34.7009191,14.2550671 34.595728,13.9667161 C34.5291617,13.8251601 34.4511929,13.6927467 34.3623352,13.5642369 C34.2794356,13.4672638 34.1912969,13.3789197 34.0941184,13.2956092 C33.8774699,13.1428561 33.6483917,13.0217425 33.4084244,12.9059706 C33.16291,12.7870143 32.9160602,12.6708315 32.6657177,12.5624559 C32.4994048,12.4940406 32.3335028,12.4323025 32.1561983,12.3968621 C31.9221892,12.3731325 31.6858174,12.3617299 31.4513973,12.3438557 C31.2033148,12.3248514 30.9593413,12.3356376 30.7131078,12.3629626 C30.3543897,12.4165855 29.9972125,12.4829463 29.6416789,12.5541352 C29.4438292,12.5933764 29.2440277,12.633953 29.051417,12.6945612 C28.8956849,12.7436641 28.7437536,12.7978005 28.5928496,12.8573814 C28.0542588,13.1094702 27.5318987,13.4037793 27.049807,13.7526358 C26.9462595,13.8365627 26.8446638,13.9223386 26.7476907,14.014689 C26.6497932,14.1076558 26.5600109,14.2063751 26.4726941,14.3086899 C26.3870208,14.4325771 26.3112093,14.5579025 26.2458757,14.6926786 C26.1247622,15.055403 26.0570659,15.4346662 26.0030322,15.8129022 C25.9633801,16.1621695 25.9329733,16.5117451 25.927837,16.863786 C25.9227007,17.2097661 25.9426295,17.5552326 25.9777617,17.8991582 C25.9817585,17.9267432 25.9860652,17.9543158 25.9909101,17.9817382 Z" id="Combined-Shape" stroke="#009BA6" stroke-width="0.3" fill="#009BA6"></path>
        </g>
    </g>
</svg>