<?xml version="1.0" encoding="UTF-8"?>
<svg width="33px" height="37px" viewBox="0 0 33 37" version="1.1" xmlns="http://www.w3.org/2000/svg" xmlns:xlink="http://www.w3.org/1999/xlink">
    <!-- Generator: Sketch 47 (45396) - http://www.bohemiancoding.com/sketch -->
    <title>list-icon</title>
    <desc>Created with Sketch.</desc>
    <defs></defs>
    <g id="Wireframes" stroke="none" stroke-width="1" fill="none" fill-rule="evenodd">
        <g id="list-icon" transform="translate(-13.373435, -11.916910)">
            <circle id="Oval" cx="30" cy="30.170328" r="29.4827586"></circle>
            <path d="M18.2427455,19.2558161 C18.2456421,19.2521573 18.2476239,19.2497182 18.2494533,19.2471265 C18.2471666,19.250023 18.2450323,18.2529196 18.2427455,18.2558161 M18.2427455,19.2558161 C18.2188111,19.2867632 18.1948766,19.3178628 18.1709422,19.3489623 C18.1948766,19.3178628 18.2188111,19.2869157 18.2427455,19.2558161 Z M30.688969,14.342087 C31.6474145,14.3960538 32.6044879,14.4452948 33.5577502,14.5561251 C34.0150965,14.6337215 34.4655827,14.7219893 34.9093611,14.8619373 C35.3622864,15.0046294 35.8078942,15.1596698 36.2509103,15.3290404 C36.6919447,15.5275287 37.1252041,15.7368409 37.5413893,15.9856373 C37.9606234,16.2367204 38.3559231,16.5184458 38.7457347,16.8119097 C39.2355526,17.2040079 39.7212544,17.6038811 40.170521,18.0424762 C40.4153537,18.2824306 40.6540885,18.5248242 40.8899268,18.7731633 C41.0926837,18.9865916 41.2768418,19.2186186 41.4605426,19.4491212 C41.7639156,19.8619525 42.0582942,20.281644 42.3191341,20.7234405 C42.6069574,21.2120389 42.868712,21.7099366 43.1109531,22.2217072 C43.1752865,22.3765951 43.2382478,22.5319404 43.2975504,22.6891151 C43.3958798,22.9517844 43.4839952,23.2173501 43.5721106,23.4835257 C43.7422435,23.9939242 43.8542933,24.5194152 43.9453053,25.0488698 C44.0088764,25.5639942 44.0602516,26.0806432 44.0700084,26.5998837 C44.0812896,27.252517 44.0693986,27.9034732 44.0366221,28.5548869 C43.9760999,29.7665498 43.8770082,30.9786701 43.7366029,32.1833203 C43.6492497,32.7441794 43.5490909,33.3009224 43.3887148,33.8459268 C43.2158378,34.4337693 42.9944822,35.0008787 42.7626076,35.5666162 C42.6260135,35.8838621 42.4895718,36.2020227 42.3388,36.5131706 C42.1398543,36.9240201 41.9285603,37.3254178 41.7021739,37.7226993 C41.322424,38.3892054 40.853644,39.0061656 40.3900472,39.6168754 C40.0918574,39.9937288 39.7871123,40.3628073 39.4672747,40.7222815 C39.1332595,41.0985251 38.7562536,41.4445838 38.3858031,41.7845446 C37.6410908,42.4670578 36.8956162,43.1448451 36.1085232,43.7773551 C35.9880886,43.8631838 35.867959,43.9491649 35.7478294,44.0349935 C35.6013261,44.1398783 35.4417122,44.2290608 35.2892634,44.3255609 C35.0130262,44.4999623 34.7110252,44.6357942 34.4158844,44.7751324 C34.1866014,44.8694982 33.9560988,44.9609674 33.7194983,45.0349051 C33.3562129,45.1486319 32.9923176,45.2551936 32.6220195,45.3414796 C31.9224321,45.5047522 31.2144599,45.6122286 30.5040486,45.7140644 C29.9811493,45.7820566 29.45825,45.8436459 28.9310821,45.8662083 C28.6386853,45.8787091 28.3444592,45.8893805 28.0526722,45.8721538 C27.7508236,45.8546222 27.4514142,45.8306877 27.1509377,45.8020274 C26.381986,45.6825075 25.6241631,45.5140516 24.8649682,45.3404125 C24.4385689,45.242083 24.0133893,45.1426864 23.591716,45.02774 C23.3689883,44.9675227 23.1486998,44.9015124 22.9284113,44.8335203 C22.743186,44.776352 22.563144,44.704701 22.3820349,44.6350319 C22.262515,44.5838092 22.1434525,44.5313668 22.0285061,44.4714544 C21.8047113,44.3554409 21.5860998,44.2392749 21.3717568,44.108169 C21.0072518,43.8865084 20.6653091,43.6369498 20.3258057,43.380226 C19.8855336,43.0248679 19.4420601,42.6693574 19.0254176,42.2853389 C18.8092452,42.0859359 18.5883469,41.8876 18.3877243,41.6726472 C18.1749058,41.4447363 17.9712343,41.2136239 17.7700019,40.9761087 C17.6722822,40.8465273 17.5754772,40.716336 17.4855324,40.5811139 C17.3324739,40.3500016 17.1865804,40.1190417 17.044803,39.8807642 C16.8007325,39.4697623 16.5915728,39.041991 16.3859194,38.6107134 C16.1866688,38.1314145 15.9956505,37.6479994 15.8436591,37.1516261 C15.7508178,36.8473384 15.6555373,36.5406114 15.5936431,36.227939 C15.5614764,36.0664957 15.520925,35.9045951 15.4983626,35.7420847 C15.4844897,35.6428406 15.4706169,35.5439013 15.4567441,35.4448096 C15.4300655,35.1188741 15.4093325,34.7959876 15.3975939,34.4694423 C15.3881421,34.1883267 15.3905813,33.9067538 15.3934778,33.6256383 C15.3988135,32.973005 15.4225955,32.3220487 15.4536951,31.6706351 C15.5101011,30.4870228 15.561019,29.2986845 15.7032537,28.1219324 C15.7698739,27.7667267 15.8361891,27.4127406 15.9342136,27.0643952 C16.037269,26.6992803 16.1407817,26.3349277 16.2563379,25.9733192 C16.4955301,25.2243384 16.753016,24.4860289 17.0406869,23.7539699 C17.3615916,22.9998057 17.6998754,22.2558557 18.0601119,21.5184609 C18.4258365,20.7708521 18.8738835,20.0741612 19.3656833,19.4046061 C19.5772822,19.1353816 19.7942168,18.8730172 20.0196885,18.6172082 C20.3044629,18.7483141 20.667291,18.7077627 20.8894088,18.4676559 C21.1912574,18.1424826 21.5014907,17.8244745 21.8094372,17.5047894 C22.1963523,17.1024771 22.5744252,16.6803464 23.0055504,16.324226 C23.6171749,15.8885274 24.2835285,15.5433834 24.9639074,15.2291864 C25.9440007,14.83907 26.9492479,14.5395081 27.9871192,14.3437639 C28.3840959,14.2975719 28.7803102,14.2672346 29.1810981,14.2783634 C29.6843315,14.291474 30.1863454,14.3140364 30.688969,14.342087 Z M27.5363282,12.3643689 C28.0121208,12.2893641 28.4844072,12.2279273 28.9655355,12.2100908 C29.12332,12.2039928 29.280952,12.2018585 29.438889,12.2018585 C29.6517075,12.2018585 29.8646784,12.2059746 30.0773445,12.2107006 C30.852699,12.2285371 31.6292731,12.2399707 32.4040178,12.271985 C32.8256911,12.2899739 33.2449253,12.3190916 33.6647692,12.3602528 C34.1333968,12.407207 34.5960788,12.4870902 35.0575413,12.5799315 C35.2343819,12.6156045 35.4107651,12.6692665 35.5839469,12.7198795 C35.7620071,12.7717121 35.9400673,12.8223251 36.1158407,12.8807129 C36.5041278,13.0098371 36.8863169,13.1468885 37.2639325,13.304673 C37.686673,13.4809038 38.1190177,13.658964 38.5181286,13.8858078 C38.8693706,14.0853632 39.2107034,14.2931509 39.5428893,14.5218241 C39.9496227,14.8011103 40.3350132,15.1102764 40.7231478,15.4145641 C41.0114285,15.6414079 41.2878181,15.8856309 41.5568902,16.1338175 C41.8617878,16.4149331 42.1554041,16.7038235 42.4394162,17.0056721 C42.7109275,17.2945625 42.9581994,17.6035762 43.2059287,17.9131997 C43.7358406,18.5766568 44.1925772,19.291794 44.6040364,20.0339147 C44.7904813,20.3697594 44.9548211,20.7150558 45.1156546,21.0640111 C45.2287715,21.3082341 45.3383822,21.5678543 45.4300039,21.8209193 C45.4920506,21.9901375 45.5605001,22.1585934 45.615839,22.3300982 C45.6748367,22.5134941 45.7403897,22.6962802 45.7926796,22.8821153 C45.8469514,23.0757252 45.9123519,23.2685729 45.956562,23.4644696 C45.9987903,23.6509145 46.0522999,23.8373593 46.0821798,24.0254811 C46.1244081,24.2947057 46.167856,24.5627106 46.2006325,24.8330023 C46.2940836,25.6030211 46.3590268,26.3789854 46.3477456,27.1554071 C46.3352448,27.9600317 46.3059746,28.7632844 46.2488063,29.5654699 C46.1940772,30.3330495 46.1481902,31.1030683 46.0631237,31.8677514 C45.9660139,32.7388437 45.8582326,33.6154242 45.6211747,34.4616674 C45.4021058,35.2460164 45.1007146,35.9992658 44.7875848,36.7502285 C44.4677472,37.5171983 44.1360187,38.2925528 43.7067229,39.0060131 C43.3012092,39.6807514 42.8467593,40.3155482 42.3734059,40.9431798 C41.8576716,41.6279797 41.3144966,42.2937236 40.6964693,42.8897983 C40.1217374,43.4436447 39.5281018,43.9813316 38.9236424,44.5036211 C38.6359715,44.75257 38.3513497,45.0092937 38.0499584,45.2426928 C37.8231146,45.4183138 37.5997772,45.6076552 37.3645487,45.7726048 C37.2168258,45.8756601 37.0733715,45.9883198 36.9203129,46.0823807 C36.5969691,46.2823935 36.274235,46.4854553 35.9281763,46.6444593 C35.4732691,46.8534666 35.0140934,47.0482962 34.5407399,47.2108066 C33.790387,47.4685975 33.0125933,47.6306505 32.2312933,47.7593173 C31.7495552,47.8378284 31.264768,47.8986555 30.7807432,47.9629889 C30.4055667,48.0136019 30.0261217,48.0629953 29.6480487,48.090436 C29.2306439,48.1201635 28.8149161,48.1463847 28.3962918,48.1367805 C27.9848325,48.1279384 27.5780991,48.092113 27.1695364,48.0463783 C26.3156708,47.9498783 25.4825382,47.752762 24.6494056,47.5497002 C23.8769476,47.3620358 23.1087582,47.169188 22.3520025,46.9237455 C21.9077667,46.7796814 21.4824346,46.5772294 21.0584745,46.3823999 C20.7113487,46.2233958 20.3892244,46.0102724 20.0669477,45.8066008 C19.9026079,45.7024783 19.7489395,45.5785375 19.5905452,45.4654205 C19.3612623,45.3004709 19.1428032,45.1164652 18.9200755,44.9419113 C18.619294,44.7054633 18.332233,44.4495018 18.043495,44.1993333 C17.4431517,43.6788732 16.8882381,43.1131358 16.3944565,42.4914496 C16.215939,42.2668926 16.0485502,42.0365425 15.8836006,41.8023811 C15.7721606,41.6445966 15.6739836,41.4779701 15.5721478,41.3140877 C15.366037,40.9847983 15.1928552,40.6352333 15.0189112,40.2887172 C14.6425151,39.5389741 14.3549967,38.7457831 14.1083346,37.9448172 C13.9904917,37.5606462 13.9058826,37.1694627 13.8243225,36.7764497 C13.803437,36.6740041 13.7927656,36.5685096 13.7772158,36.4656066 C13.7546534,36.3101089 13.7249259,36.1517146 13.7112055,35.9963693 C13.6950459,35.8158699 13.6689772,35.6336936 13.663489,35.4525845 C13.651598,35.0673464 13.6433658,34.6843951 13.6618121,34.299157 C13.6802584,33.906144 13.7009914,33.5135884 13.7314812,33.1211853 C13.7927656,32.3369887 13.8695998,31.5538593 13.9535991,30.7719495 C13.9952176,30.3842723 14.0345494,29.9959852 14.0804365,29.6089178 C14.132269,29.1652918 14.1744974,28.7157204 14.2542281,28.2762105 C14.3257265,27.8825878 14.4013411,27.4924713 14.5162875,27.1084529 C14.6371794,26.7035489 14.7724015,26.304438 14.915246,25.9066991 C15.1856901,25.1516203 15.4709218,24.399438 15.7948755,23.6652447 C16.1141032,22.9405032 16.4487283,22.2182008 16.8214656,21.5190707 C17.1906965,20.8252763 17.568617,20.1383421 18.0000471,19.570013 C18.0383117,19.5200098 18.0726127,19.4700066 18.1122494,19.4247294 C18.1561546,19.3680184 18.2000599,19.3113075 18.2602772,19.2335586 C18.2864983,19.1995625 18.3125671,19.1661762 18.3381785,19.1321801 C18.46029,18.9743957 18.5930728,18.8237763 18.7247886,18.6743764 C19.0037699,18.3566732 19.2944897,18.0488791 19.5977103,17.7540432 C19.6147846,17.678581 19.6432925,17.6066252 19.683539,17.5375659 C20.0128283,17.0950071 20.3665095,16.6698274 20.7250691,16.2512031 C20.9484065,15.9903632 21.168695,15.7266268 21.3996549,15.472952 C21.6457073,15.2025079 21.9028883,14.9547786 22.1870529,14.7248859 C22.3215127,14.615885 22.4626803,14.5152688 22.6020185,14.4123659 C23.4261566,13.8042477 24.3545697,13.3606217 25.31332,13.0069405 C25.6843804,12.8698891 26.058947,12.7418321 26.4388494,12.6311543 C26.7986285,12.5258122 27.1654203,12.422147 27.5363282,12.3643689 Z M30.6401549,20.3664969 C30.7339109,20.4131463 30.822941,20.4655887 30.9099892,20.5247388 C30.9412412,20.5518747 30.9708163,20.5800777 30.9991718,20.6101101 C31.0395707,20.6771876 31.0758535,20.7460944 31.110002,20.8163733 C31.1404918,20.9032691 31.1639689,20.9904698 31.181653,21.0810244 C31.1932391,21.2267654 31.1911048,21.3702197 31.1773844,21.5155034 C31.1455226,21.6873132 31.1013125,21.8536348 31.0403329,22.0169075 C30.984994,22.1297196 30.92249,22.2352141 30.8503818,22.3373548 C30.7685168,22.4344647 30.6831454,22.5247144 30.5874076,22.607494 C30.4375505,22.7108543 30.2844919,22.8044579 30.1199996,22.8815969 C30.0020043,22.9241302 29.8835516,22.9570591 29.7606779,22.9808411 C29.6445119,22.989988 29.5312424,22.9896831 29.4153814,22.979774 C29.2682683,22.9508087 29.1264909,22.9104098 28.9859332,22.8587296 C28.8953786,22.8154342 28.8097024,22.7661932 28.7261604,22.7097872 C28.6238673,22.6212144 28.5301113,22.5250192 28.4424532,22.4218114 C28.356777,22.2992426 28.284059,22.1721003 28.2214025,22.0368782 C28.1657587,21.8795511 28.1259696,21.7220715 28.0989861,21.5583415 C28.0927357,21.4927885 28.0886196,21.4275405 28.0863329,21.3622924 C28.1316102,21.3472 28.175363,21.3275341 28.2168291,21.3032947 L28.3579966,21.1942938 C28.441691,21.1101421 28.5002313,21.0112028 28.5342274,20.8979334 C28.5901761,20.7770415 28.6517654,20.6602658 28.7250933,20.5491306 C28.769151,20.500347 28.8150381,20.4546123 28.8641266,20.4105546 C28.9237341,20.3704606 28.9851709,20.3343303 29.0495043,20.3012489 C29.1316742,20.2733507 29.2143014,20.2518555 29.3001301,20.235391 C29.5842946,20.2081027 29.8664773,20.2140482 30.1507943,20.2431659 C30.3177257,20.2712165 30.4808459,20.3100909 30.6401549,20.3664969 Z M28.6409416,18.8933844 C28.4473316,18.9558884 28.2592098,19.0475101 28.0936504,19.1661152 C27.9995895,19.2327354 27.909035,19.3071304 27.8221392,19.3839645 C27.7321944,19.4632379 27.6541406,19.5733059 27.5844715,19.6681291 C27.4475725,19.8532019 27.3623536,20.0622092 27.2771348,20.275485 C27.2455779,20.3546059 27.2205763,20.4357087 27.1943551,20.516659 C27.1422176,20.6764253 27.1621884,20.8433567 27.2314001,20.988488 C27.1775857,21.3345467 27.1967943,21.6856363 27.2461877,22.0315425 C27.2760676,22.2388729 27.3480234,22.4382759 27.4332423,22.6283795 C27.5189185,22.8183307 27.6213641,22.9880062 27.7506407,23.1511264 C27.8643675,23.2947331 27.9816006,23.4281258 28.1245975,23.5430722 C28.3110424,23.6918622 28.5051097,23.7961372 28.7247884,23.8854722 C29.1030138,24.0389881 29.510357,24.1110964 29.9170903,24.0604834 C30.1052121,24.0373112 30.2838821,24.0004186 30.4637716,23.9395915 C30.6685104,23.871142 30.8633399,23.7722027 31.0496323,23.6638116 C31.3932519,23.4644086 31.6797031,23.1976233 31.9102057,22.8748892 C32.1585448,22.5259339 32.3103837,22.1108159 32.3872179,21.6915818 C32.4610031,21.2901841 32.456887,20.8834508 32.3538316,20.4869315 C32.3068774,20.3058223 32.2210488,20.1308111 32.1423852,19.9622028 C32.0483243,19.7597508 31.8786488,19.592362 31.7083635,19.4536336 C31.5428041,19.318564 31.371909,19.1999589 31.1776893,19.1106239 C30.9930738,19.0255575 30.8031226,18.9587849 30.6066162,18.9081719 C30.392883,18.8534428 30.1683259,18.8319475 29.9498668,18.8040494 C29.8077845,18.7857555 29.6640253,18.7778282 29.5202661,18.7778282 C29.4332179,18.7778282 29.3463221,18.7807247 29.2595787,18.7860604 C29.051791,18.7997808 28.8397348,18.829051 28.6409416,18.8933844 Z M26.4671286,41.4481969 C26.4546278,41.4437759 26.4424319,41.4387451 26.4305409,41.4326471 C26.4427368,41.4378304 26.4549327,41.4428612 26.4671286,41.4481969 Z M27.3792297,27.8837616 C27.3810591,27.8700412 27.3830409,27.8564733 27.3850228,27.8429053 C27.3831934,27.8564733 27.3812115,27.8700412 27.3792297,27.8837616 Z M28.972167,27.696707 C29.3673143,27.7134763 29.7615468,27.7401549 30.1556269,27.7651565 C30.1586759,27.9304109 30.1577612,28.0958179 30.1565416,28.2607675 C30.1536451,28.6507314 30.1512059,29.0408479 30.14648,29.4308119 C30.1380953,30.1889397 30.1262043,30.9476772 30.069036,31.7033658 C30.0100383,32.4750616 29.9284782,33.2444706 29.8659742,34.0163188 C29.80408,34.7826788 29.7588027,35.5508682 29.6760231,36.3155513 C29.5610767,37.370192 29.4289036,38.4230033 29.3045054,39.4764243 C29.2448979,39.9772186 29.198401,40.4780128 29.150837,40.9800267 C29.1275123,41.2254692 29.1014436,41.4707593 29.0768993,41.7160494 C29.0732406,41.7538567 29.0697343,41.7918164 29.0666853,41.8297762 C28.7090404,41.7546189 28.3533774,41.6718392 27.9937507,41.6082681 C27.7072995,41.5570453 27.4179517,41.5207625 27.1284515,41.491035 C26.9871314,41.4763999 26.8453541,41.4699971 26.7034243,41.4626795 C26.6444266,40.7891608 26.6770506,40.1064952 26.7032718,39.4323666 C26.7323895,38.6844529 26.7657758,37.9363867 26.7961131,37.1890828 C26.8288896,36.3737867 26.866392,35.5592529 26.9087728,34.7451764 C26.9474948,34.0138796 27.0075596,33.2844122 27.0671671,32.5549447 C27.1315004,31.7658699 27.1874491,30.9774048 27.2219026,30.1871103 C27.2403489,29.7553753 27.259405,29.3236404 27.2850164,28.8919054 C27.3071214,28.5199304 27.3499595,28.1490225 27.3940172,27.7787244 C27.4022495,27.7209463 27.4106342,27.6631682 27.4191713,27.6055426 C27.9368874,27.6329834 28.4541461,27.6750592 28.972167,27.696707 Z M26.7531226,25.7749376 C26.3378521,25.8539061 26.0172523,26.245547 26.0172523,26.6725561 C26.0172523,26.9919362 26.1809823,27.2643622 26.4259675,27.4262628 C26.3657502,27.8633335 26.3093442,28.300709 26.2690977,28.7406762 C26.201258,29.4885899 26.1846411,30.2401624 26.1280826,30.988686 C26.0709143,31.7474235 25.9881346,32.5025024 25.9201424,33.2600204 C25.8487964,34.0573275 25.7939148,34.8552444 25.7486375,35.6545334 C25.6783587,36.8913503 25.6189036,38.1287771 25.5557898,39.3662039 C25.5254525,39.9724927 25.5033475,40.5775619 25.509293,41.184308 C25.5105125,41.3433121 25.5254525,41.5017064 25.5402401,41.6594909 C25.5539604,41.8043172 25.5748459,41.9447226 25.6164644,42.0836034 C25.6689068,42.257395 25.7992505,42.451005 25.9648099,42.5360714 C26.1303693,42.6206805 26.263762,42.6481212 26.4460907,42.6712935 C26.5114912,42.6796781 26.577654,42.6868432 26.6436643,42.6933985 C26.7529701,42.7043748 26.861971,42.7162658 26.9708194,42.7293764 C27.3022431,42.7805992 27.6318373,42.8466096 27.9574679,42.9261878 C28.3295954,43.0178095 28.6988264,43.1245237 29.0721734,43.2108097 C29.3139572,43.2667584 29.5694614,43.3167616 29.8153612,43.2638619 C29.8969213,43.2464827 29.9737555,43.2108097 30.0458638,43.1685814 C30.1387051,43.1143096 30.2786531,42.9815267 30.3257598,42.8821301 C30.3911603,42.7440115 30.4417733,42.6122958 30.4692141,42.4635058 C30.5311083,42.1233925 30.5878192,41.7822122 30.6419385,41.4410318 C30.8849419,39.9266056 31.0843449,38.4057765 31.2867969,36.884795 C31.3886327,36.1190448 31.4703452,35.3513127 31.54535,34.5819037 C31.6221842,33.8012135 31.7174647,33.0223527 31.8055801,32.2428821 C31.8912563,31.4878033 31.938363,30.7296755 31.9693101,29.9709379 C31.9842501,29.611921 31.9914152,29.2527517 31.9990376,28.8943446 C32.0068125,28.5107835 32.0229721,28.1261552 32.012758,27.7432038 C32.0045257,27.4364769 31.9830305,27.1381346 31.9293685,26.8350665 C31.9049767,26.6998444 31.8418629,26.5598964 31.762742,26.4492186 C31.6805721,26.3104902 31.5703516,26.1996599 31.4310134,26.1180998 C31.3439652,26.0805974 31.2564596,26.0437048 31.168954,26.0072696 C31.0642217,25.9638217 30.9390612,25.970377 30.8193889,25.9769323 C30.7735018,25.9793714 30.7282245,25.9816582 30.6859962,25.9812008 C30.5079361,25.9799812 30.3280465,25.9578762 30.1505961,25.9447656 C29.9475343,25.9293682 29.7444726,25.9168674 29.5414108,25.9060436 C29.1108954,25.8828714 28.6797703,25.8644251 28.2492549,25.8388137 C28.0190572,25.8247884 27.7893169,25.8077141 27.5594242,25.7926217 C27.5530213,25.7846943 27.5463136,25.776767 27.5393009,25.7685348 C27.4476792,25.6599912 27.295078,25.6077013 27.1500992,25.6077013 C27.0993337,25.6077013 27.049483,25.6141042 27.0034435,25.6267574 C26.9124315,25.6519115 26.823249,25.7045063 26.7531226,25.7749376 Z" id="Combined-Shape" fill="#009BA6"></path>
        </g>
    </g>
</svg>