<?xml version="1.0" encoding="UTF-8"?>
<svg width="60px" height="60px" viewBox="0 0 60 60" version="1.1" xmlns="http://www.w3.org/2000/svg" xmlns:xlink="http://www.w3.org/1999/xlink">
    <!-- Generator: Sketch 47 (45396) - http://www.bohemiancoding.com/sketch -->
    <title>listing__icon</title>
    <desc>Created with Sketch.</desc>
    <defs></defs>
    <g id="Wireframes" stroke="none" stroke-width="1" fill="none" fill-rule="evenodd">
        <g id="listing__icon" transform="translate(0.374812, 0.051427)">
            <circle id="Oval" fill="#778A92" opacity="0.200000003" cx="30" cy="30.170328" r="29.4827586"></circle>
            <path d="M43.9997432,20.5876601 C44.6868725,21.2747894 45.2625754,22.649048 45.2625754,23.6333143 L45.2625754,45.0271774 C45.2625754,46.0114436 44.4640197,46.8099993 43.4797535,46.8099993 L18.5202465,46.8099993 C17.5359803,46.8099993 16.7374246,46.0114436 16.7374246,45.0271774 L16.7374246,15.3134786 C16.7374246,14.3292123 17.5359803,13.5306567 18.5202465,13.5306567 L35.1599178,13.5306567 C36.1441841,13.5306567 37.5184427,14.1063596 38.2055719,14.7934889 L43.9997432,20.5876601 Z M35.7541918,16.0563211 L35.7541918,23.0390403 L42.736911,23.0390403 C42.6254846,22.7233322 42.4583451,22.4076242 42.3283476,22.2776267 L36.5156053,16.4648844 C36.3856079,16.334887 36.0698998,16.1677474 35.7541918,16.0563211 Z M42.8854795,44.4329034 L42.8854795,25.4161362 L35.1599178,25.4161362 C34.1756516,25.4161362 33.3770959,24.6175805 33.3770959,23.6333143 L33.3770959,15.9077526 L19.1145205,15.9077526 L19.1145205,44.4329034 L42.8854795,44.4329034 Z" id="" fill="#029CA6"></path>
        </g>
    </g>
</svg>