<?xml version="1.0" encoding="UTF-8"?>
<svg width="30px" height="39px" viewBox="0 0 30 39" version="1.1" xmlns="http://www.w3.org/2000/svg" xmlns:xlink="http://www.w3.org/1999/xlink">
    <!-- Generator: Sketch 47 (45396) - http://www.bohemiancoding.com/sketch -->
    <title>list-icon--how-to</title>
    <desc>Created with Sketch.</desc>
    <defs></defs>
    <g id="Wireframes" stroke="none" stroke-width="1" fill="none" fill-rule="evenodd">
        <g id="list-icon--how-to" transform="translate(-15.000000, -10.916910)">
            <circle id="Oval" cx="30" cy="30.170328" r="29.4827586"></circle>
            <path d="M19.396489,16.2459692 C19.4099394,16.2470561 19.4232539,16.2488223 19.4367042,16.2516755 C19.4229821,16.2497734 19.4093959,16.2480072 19.395538,16.2461051 C19.3958097,16.2461051 19.3962173,16.2459692 19.396489,16.2459692 M17.2235096,16.0789946 C17.2255475,16.081576 17.2274496,16.0841574 17.2294875,16.0866029 C17.2273137,16.0841574 17.2255475,16.081576 17.2235096,16.0789946 M16.8107603,15.85686 C16.821901,15.8583545 16.8329059,15.859849 16.8440466,15.8614793 C16.8329059,15.8603924 16.8217652,15.8588979 16.8107603,15.85686 M20.876979,13.046687 C21.1408233,12.9623166 21.3986897,12.8657186 21.6519368,12.7543116 C21.6797885,12.7420841 21.7076403,12.7297206 21.7353562,12.7172213 C21.7535617,13.1394809 21.7513879,13.5636426 21.7500293,13.9840001 C21.7479913,14.6335571 21.7516596,15.2836575 21.7304651,15.9326711 C21.7091348,16.5865757 21.6884837,17.2393934 21.6810113,17.8931621 C21.6742182,18.5072591 21.6306064,19.1170085 21.5935161,19.7294751 C21.5902554,19.7812386 21.5872664,19.8327304 21.582783,19.8844938 C21.5584636,20.043996 21.5338726,20.2037699 21.5239546,20.3651742 C21.5111836,20.5753529 21.5133574,20.7855317 21.5086022,20.9962539 C21.4990919,21.4595439 21.4454263,21.921747 21.4120042,22.3840859 C21.3780387,22.8521311 21.3440731,23.3201762 21.3095641,23.7883572 C21.2931248,24.0122581 21.2825276,24.2367024 21.2783159,24.4612825 C21.2769572,24.534784 21.279131,24.6077419 21.2849731,24.6805641 C21.0944943,24.7001282 20.9037439,24.7169751 20.7135368,24.7361317 C20.577403,24.7503972 20.4411332,24.7650703 20.3047276,24.7695538 C20.2982062,24.5660323 20.3009234,24.3619673 20.2995648,24.1587175 C20.2975269,23.8355014 20.2933152,23.5122853 20.2884241,23.1890692 C20.2789138,22.5252467 20.2482089,21.8623752 20.2257917,21.1989603 C20.214651,20.8826732 20.2098958,20.5669295 20.1967172,20.25105 C20.1844896,19.9449525 20.1569096,19.6392626 20.137753,19.3339804 C20.1171019,19.0081829 20.0984888,18.6829289 20.0899295,18.3564521 C20.0820495,18.0379912 20.1027006,17.7191227 20.1234875,17.4017487 C20.1467199,17.0403553 20.1706316,16.678962 20.1897882,16.3168893 C20.2062275,16.0160905 20.1918261,15.6943689 20.0166998,15.4365025 C19.8729576,15.2237423 19.6421278,15.084076 19.3810007,15.0798643 C19.2042441,15.0767395 19.0264005,15.1132864 18.8576597,15.1653216 C18.5026519,15.2750982 18.1534861,15.4036238 17.8058148,15.5356819 C17.6365306,15.6004881 17.4672463,15.6652944 17.2968752,15.7268399 C17.2324765,15.7503441 17.1676702,15.7734406 17.1020488,15.7951786 C17.0581653,15.6681475 17.0163198,15.5403012 16.9720287,15.4136776 C16.901788,15.2135527 16.8171459,15.017096 16.747992,14.8165634 C16.7553286,14.7609958 16.7547851,14.7054282 16.7460899,14.6510833 C16.8335852,14.6615447 16.9235259,14.6548874 17.0118363,14.6282585 C17.4756698,14.4881846 17.9352915,14.3072162 18.3657028,14.0848098 C18.7501927,13.8857717 19.1325088,13.6836088 19.526645,13.5042708 C19.9700991,13.3294162 20.4230635,13.1921954 20.876979,13.046687 M21.7834514,11.1908099 C21.9074935,11.1510023 22.0631916,11.1054884 22.1967441,11.1054884 C22.2163082,11.1054884 22.2353289,11.1064395 22.2536703,11.1086133 C22.3274435,11.1022277 22.3964615,11.1139119 22.4601808,11.1429864 C22.576343,11.1760009 22.6771527,11.2342858 22.76261,11.3191996 C22.83747,11.3850928 22.8975211,11.4694632 22.9367853,11.5607625 C22.9765929,11.6345357 23.0056674,11.7119771 23.024824,11.7932227 C23.0428936,11.8849297 23.0566157,11.9773159 23.0662619,12.0707891 C23.0715605,12.1137215 23.0784895,12.156654 23.0816143,12.1997223 C23.0964233,12.3838155 23.1091944,12.5680446 23.1150364,12.7526813 C23.1389482,13.5656805 23.127264,14.3788155 23.1172102,15.1923582 C23.1086509,15.8488441 23.0784895,16.5042432 23.0693867,17.1601857 C23.0609633,17.7812117 23.0710171,18.4021018 23.0359647,19.0220408 C23.0189819,19.3180845 22.9914019,19.614264 22.9828426,19.910987 C22.9765929,20.1418168 22.9717019,20.3726466 22.9691205,20.602933 C22.962735,21.215943 22.913417,21.8241979 22.8730659,22.4355777 C22.8310845,23.0697823 22.7664141,23.7012696 22.7196775,24.3349307 C22.698483,24.6247247 22.6815003,24.9192739 22.5927823,25.1979272 C22.5482195,25.3380011 22.4936029,25.456337 22.3942877,25.5651626 C22.3057055,25.6617606 22.168213,25.7375717 22.0419971,25.767869 C21.8811363,25.8060462 21.7166072,25.8288711 21.5526216,25.8474842 C21.2463882,25.8825366 20.9375735,25.8936773 20.6302533,25.9148718 C20.3320359,25.9360663 20.0130315,25.9636463 19.7226941,25.8739773 C19.537514,25.8171869 19.3804573,25.696813 19.2860331,25.5258984 C19.2015268,25.3741404 19.1872613,25.2068941 19.1691916,25.0376098 C19.1538392,24.8927808 19.1485406,24.7461855 19.1437854,24.600813 C19.1331882,24.2876507 19.1288406,23.9740808 19.122455,23.6609185 C19.1076461,22.9954657 19.0879461,22.3304204 19.0598226,21.6649675 C19.0333295,21.0413602 19.0285743,20.4172094 19.0020812,19.7936021 C18.9749087,19.1515175 18.9447473,18.5029115 18.9759956,17.8602835 C18.9914839,17.5381543 19.0158032,17.2169761 19.0424322,16.8953904 C19.0569695,16.7152372 19.0784357,16.5293777 19.0845495,16.3448769 C18.9927067,16.3787066 18.9019508,16.4149818 18.8114666,16.4496266 C18.6432692,16.5138894 18.4761587,16.5791033 18.3094559,16.6464909 C17.9734687,16.7828965 17.6401988,16.9309863 17.2974186,17.0493222 C17.1418564,17.1029878 16.9763763,17.1427954 16.8107603,17.1331492 C16.5278953,17.1167098 16.2779089,16.9733753 16.1281888,16.7303179 C15.9902887,16.5069605 15.9185535,16.2368665 15.8469542,15.9847063 C15.7923376,15.7931407 15.7392155,15.6004881 15.6845989,15.4089225 C15.6537582,15.3011838 15.6219664,15.1960264 15.6028098,15.0857064 C15.5763167,14.932318 15.5688443,14.7948255 15.6208795,14.6452412 C15.661774,14.5269053 15.7185644,14.4434859 15.8060596,14.3554472 C15.9025218,14.2574906 16.029417,14.2046402 16.1594371,14.1958092 C16.1512854,14.1750223 16.1443564,14.1538278 16.1383785,14.131954 C16.0337646,13.7520834 16.264051,13.3704466 16.6345471,13.2590396 C16.8377969,13.197494 17.0356122,13.1249436 17.2338351,13.049676 C17.9284984,12.7388234 18.5756098,12.332052 19.2917393,12.0664415 C19.9330087,11.8286827 20.5994126,11.6690447 21.2332096,11.4124011 C21.4144497,11.3338727 21.5956899,11.2515403 21.7834514,11.1908099 Z M29.6325074,16.8428389 C29.6683751,16.8418879 29.704922,16.8413444 29.741333,16.8413444 C29.9516477,16.8413444 30.1690271,16.8602293 30.3706466,16.9081886 C30.4991722,16.9388934 30.6200895,16.9792445 30.7416861,17.0301928 C30.8912704,17.0922818 31.0435719,17.1554577 31.1788906,17.2462137 C31.3758907,17.3784075 31.5674564,17.5184814 31.7447565,17.6755381 C31.9352352,17.8448224 32.1039761,18.0343501 32.2573644,18.2375999 C32.3773307,18.3968303 32.4962101,18.5555173 32.593895,18.7295568 C32.9313766,19.3303392 33.1786458,19.9714728 33.3453486,20.6390995 C33.3862431,20.8009113 33.409068,20.9676142 33.4333873,21.1321433 C33.4604239,21.3162365 33.4901777,21.5067152 33.498737,21.6935257 C33.5130025,22.0278825 33.5199315,22.3644131 33.4832487,22.6982264 C33.4403163,23.0888301 33.3877376,23.476309 33.3177686,23.8631086 C33.2657334,24.1518157 33.1988892,24.4485387 33.1001174,24.7255616 C32.9653422,25.1055681 32.8066552,25.4744339 32.6176709,25.8305286 C32.4600708,26.1276591 32.2838576,26.4143283 32.1081878,26.7008616 C31.7664944,27.2585758 31.4310508,27.821181 31.0824284,28.37414 C30.903498,28.6586354 30.7194047,28.9367452 30.5181929,29.2057523 C30.3027155,29.4950029 30.0697119,29.7725693 29.826111,30.0384515 C29.3883631,30.5155994 28.9483056,30.9943777 28.4782225,31.4401414 C28.3371976,31.5738298 28.1952216,31.7064313 28.0505284,31.8363155 C28.4390942,31.7731396 28.82766,31.710643 29.2200299,31.675183 C29.8058676,31.6220609 30.3912976,31.7277616 30.9696629,31.8118603 C31.3920583,31.8641673 31.815269,31.9020728 32.2398382,31.9299245 C32.380999,31.9390273 32.5243336,31.9421521 32.6649509,31.9607653 C32.8300235,31.9825032 32.9499897,32.0000294 33.099574,32.0833129 C33.1393816,32.1055943 33.1755209,32.1300495 33.210981,32.1576295 C33.3208934,32.2414565 33.4111059,32.3163165 33.4960198,32.4224249 C33.5730536,32.517936 33.6435661,32.6108657 33.7025303,32.718061 C33.7777979,32.8544666 33.8320069,33.0237508 33.8579566,33.1771392 C33.8818683,33.3177565 33.9052366,33.4594608 33.9180077,33.6017085 C33.9392022,33.8400107 33.9503429,34.0814378 33.9428704,34.3208269 C33.9339035,34.6121154 33.9083614,34.9008225 33.8585,35.1885785 C33.7863572,35.6062188 33.4928949,35.9818777 33.0566415,36.0461405 C32.7504082,36.0907033 32.4341211,36.1109468 32.1246271,36.0954585 C31.7946179,36.0790191 31.4666466,36.0408419 31.137045,36.0116315 C30.5033839,35.9553846 29.8649676,35.9405756 29.2291327,35.9097349 C28.921269,35.8949259 28.6119109,35.8821549 28.3040472,35.8874535 C27.9777063,35.8927521 27.6523164,35.9139466 27.3270624,35.928348 C26.7008737,35.955928 26.0809346,35.9129956 25.4578708,35.8529445 C25.1160415,35.8200659 24.7738048,35.7813451 24.4372742,35.7112403 C24.293532,35.6810789 24.1518278,35.6412713 24.010667,35.5998333 C23.8593165,35.555814 23.6985916,35.5149194 23.5669412,35.4252504 C23.2278292,35.1938772 23.1009339,34.7872417 23.010178,34.4062842 C22.9268945,34.0544012 22.885049,33.6882527 22.8578765,33.3272669 C22.8335572,33.0036432 22.82296,32.6793402 22.8186124,32.3544938 C22.8149441,32.0562764 22.8107324,31.7537113 22.8399427,31.4560373 C22.85842,31.266102 22.8796145,31.0738571 22.9301552,30.8897638 C22.9624904,30.770341 23.0070532,30.6333919 23.0830001,30.534756 C23.1317747,30.4715801 23.1737561,30.3994373 23.2353016,30.3474021 C23.2935865,30.2984917 23.3536376,30.2513475 23.4157266,30.2062413 C23.5430294,30.1127681 23.6768537,30.0278543 23.8057868,29.9356038 C23.8961352,29.8701183 23.9852608,29.8024589 24.0741146,29.7342561 C24.4511321,29.4390276 24.831682,29.147875 25.1872333,28.8262893 C25.538437,28.5087794 25.8452138,28.1400495 26.1386761,27.7683306 C26.6091667,27.1426854 27.0398498,26.4859277 27.4379259,25.8119155 C27.8296165,25.1476854 28.1723968,24.4556035 28.4880046,23.7522451 C28.5788964,23.5282084 28.6601419,23.3022696 28.7318772,23.070217 C28.80796,22.8259368 28.8514359,22.5716029 28.8894773,22.3187634 C28.9245297,22.0365777 28.9510228,21.7561582 28.929149,21.4726138 C28.9117587,21.3870207 28.8909718,21.3041448 28.8644786,21.2201819 C28.8454579,21.1829557 28.8252145,21.147224 28.8023896,21.1117639 C28.793151,21.1022536 28.7836406,21.0928791 28.7738586,21.0837763 C28.7575551,21.0733149 28.7408441,21.0635329 28.7237254,21.0542942 C28.6973682,21.0458708 28.6707392,21.0385342 28.6435668,21.0325563 C28.6085143,21.0305184 28.5730543,21.0305184 28.5377301,21.0322846 C28.4632777,21.046686 28.3916783,21.0651632 28.3193996,21.0901618 C28.1324533,21.1768419 27.9535228,21.2750703 27.7797551,21.3883793 C27.6130522,21.4972049 27.4618377,21.627225 27.2967651,21.7376809 C27.1428333,21.8405286 26.9592835,21.9265293 26.7692124,21.9217741 C26.6201716,21.9175624 26.5161011,21.8878086 26.3818693,21.8304748 C26.2927437,21.792841 26.2248127,21.7376809 26.1483223,21.6770864 C25.9854235,21.5481532 25.8187207,21.4006069 25.6876137,21.2387951 C25.592646,21.122497 25.5035204,21.0026666 25.4154818,20.88107 C25.3687452,20.8162637 25.3177969,20.7521368 25.2774458,20.6825754 C25.2354644,20.6098891 25.185603,20.5281001 25.1713374,20.4459035 C25.1463388,20.3041992 25.1437574,20.2145302 25.1649519,20.0739129 C25.191445,19.8997376 25.2769023,19.7273285 25.3528493,19.5702718 C25.5683267,19.1254591 25.8373338,18.6855374 26.219514,18.3659896 C26.2210085,18.3647669 26.2226389,18.3634082 26.2242692,18.3621855 C26.233372,18.3318882 26.2436975,18.3018627 26.2555175,18.2715654 C26.3223617,18.1006508 26.4025204,17.9728045 26.5155577,17.8289265 C26.6939447,17.6017649 26.9406704,17.4006889 27.2076396,17.2854778 C27.4554521,17.178826 27.699053,17.082228 27.9643918,17.0291059 C28.0514794,17.0117156 28.1385671,16.9903852 28.2260623,16.9781576 C28.693564,16.9113134 29.1601147,16.8572403 29.6325074,16.8428389 Z M25.0280029,34.6540968 C25.0482463,34.6569499 25.0682181,34.659803 25.0880539,34.6623844 C25.0680822,34.6595313 25.0478387,34.6569499 25.0280029,34.6540968 Z M26.9455614,32.7364023 L26.9454256,32.7364023 L26.9454256,32.7365382 C26.9437952,32.7402065 26.9421649,32.7440106 26.9406704,32.7478148 C26.9423007,32.7440106 26.9439311,32.7402065 26.9455614,32.7364023 Z M24.1534581,29.6733899 C24.1374264,29.6856175 24.1215305,29.6978451 24.1056346,29.7100727 C24.1215305,29.6979809 24.1374264,29.6857533 24.1534581,29.6733899 Z M28.6867709,21.0360887 C28.6873144,21.0363604 28.6878578,21.0366322 28.6884013,21.036768 C28.6878578,21.0366322 28.6874502,21.0363604 28.6870426,21.0360887 L28.6867709,21.0360887 Z M28.6994061,21.0227742 C28.7142151,21.0343225 28.7287523,21.0455991 28.7435613,21.0570115 C28.7292958,21.0450556 28.7146227,21.0336432 28.6994061,21.0227742 Z M28.5657177,21.0191059 C28.5712881,21.0197852 28.5769943,21.0206004 28.5825646,21.0214156 C28.5769943,21.0206004 28.5712881,21.0197852 28.5657177,21.0191059 Z M28.6367736,21.0147583 C28.6529412,21.0216873 28.668973,21.0286163 28.6851406,21.0354094 C28.6852764,21.0354094 28.6854123,21.0355453 28.685684,21.0355453 C28.6696523,21.0280728 28.6534847,21.0211439 28.6367736,21.0147583 Z M26.8546697,20.8783527 C26.8537186,20.8786245 26.8526317,20.8786245 26.8515448,20.8788962 C26.8516807,20.8788962 26.8516807,20.8788962 26.8518165,20.879032 C26.8527676,20.8787603 26.8537186,20.8786245 26.8546697,20.8783527 Z M26.2157099,20.1173888 C26.2158458,20.1196984 26.2161175,20.1220081 26.2162533,20.1243177 L26.2166609,20.1251329 C26.2163892,20.1224157 26.2159816,20.1198343 26.2157099,20.1173888 Z M29.9122476,18.2013247 C29.4463763,18.1632833 28.9704511,18.2105633 28.5064818,18.264093 C28.2607072,18.3058027 28.0209105,18.3534903 27.7858689,18.4365021 C27.7137261,18.4725055 27.6451157,18.5113621 27.5782715,18.5555173 C27.5406377,18.5907056 27.5055853,18.6263015 27.4714839,18.6643429 C27.4640115,18.6762988 27.456539,18.6883905 27.4494742,18.7008898 C27.4212149,18.7927327 27.4030093,18.8852548 27.3843962,18.9817169 C27.354099,19.1376867 27.2257092,19.2836027 27.0924284,19.3615875 C26.983467,19.4257145 26.8563,19.4550607 26.7307634,19.446909 C26.5582184,19.6869774 26.3992597,19.9368279 26.2686961,20.2023026 C26.2869017,20.2277088 26.3052431,20.2532509 26.3234486,20.2786571 C26.3719514,20.3467241 26.419639,20.4156062 26.4686852,20.4835373 C26.5720764,20.6096174 26.6876951,20.7316216 26.8096993,20.8418058 C26.8283124,20.8290348 26.8467896,20.815992 26.8649952,20.8025416 C27.4356163,20.3599027 28.0831353,19.884521 28.8460014,20.0027211 C29.0560443,20.0350563 29.2519575,20.1141281 29.4228721,20.2415668 C29.5724564,20.3524303 29.7205461,20.4973952 29.8038296,20.6672229 C29.8909173,20.8454741 29.9780049,21.0375832 30.0097967,21.2366213 C30.0554464,21.5205732 30.0782712,21.7965092 30.0559898,22.0837218 C30.011427,22.6525767 29.9354801,23.2274095 29.7269316,23.7622989 C29.5141715,24.3079213 29.2545389,24.8300396 28.9897435,25.3517503 C28.6957378,25.9307949 28.3619245,26.4912263 27.9989008,27.0293763 C27.6258233,27.5828788 27.2441865,28.1354302 26.8223345,28.6538802 C26.6110688,28.9128335 26.3919231,29.1628199 26.1621802,29.4058773 C25.9456159,29.6352126 25.7014716,29.8399569 25.453659,30.0342398 C25.1994609,30.2327344 24.9436325,30.4295987 24.6852226,30.6217078 C24.5493605,30.7226534 24.4124114,30.8212893 24.2732885,30.9178873 C24.1817175,30.9816066 24.0867498,31.040435 23.9950428,31.1040185 C23.994907,31.104426 23.9947711,31.1048336 23.9944994,31.1052412 C23.9898801,31.1211371 23.9859401,31.137033 23.9822718,31.1532006 C23.9674628,31.347891 23.9739842,31.543125 23.9809132,31.7378154 C23.9893366,31.9782915 23.9962656,32.2180882 24.0048249,32.4585642 C24.0201773,32.8976707 24.0504746,33.3336524 24.1026457,33.7693624 C24.1440836,34.002366 24.1942168,34.2312937 24.2711148,34.454787 C24.5605012,34.5547815 24.8591262,34.6239354 25.1614195,34.6717589 C25.7642399,34.748521 26.3753479,34.7902307 26.9826518,34.7799051 C27.2903796,34.7746065 27.5971564,34.7470265 27.9044766,34.7353424 C28.2324478,34.7231148 28.5582453,34.7242017 28.8862166,34.7362934 C29.5257198,34.7596617 30.1663099,34.7952576 30.8052696,34.8328914 C31.1216926,34.8515045 31.4368928,34.8865569 31.7526365,34.9152239 C32.0109105,34.9389997 32.26769,34.9398149 32.5254205,34.9135935 C32.5530005,34.9088383 32.5804447,34.9038114 32.607753,34.8982411 C32.615633,34.8587052 32.6221543,34.8187617 32.6279964,34.7786824 C32.6741896,34.3738131 32.6937537,33.9643246 32.6539461,33.5586402 C32.6399523,33.4856822 32.6239206,33.4144904 32.6031336,33.3432986 C32.5956612,33.3299841 32.5880529,33.3170772 32.5800371,33.3040345 C32.5720212,33.2954751 32.5641412,33.2869158 32.5559895,33.2783565 C32.4505604,33.279851 32.3443162,33.2869158 32.2398382,33.2869158 C32.0238174,33.2874593 31.8072531,33.2832475 31.5919116,33.2699331 C31.0725105,33.2373261 30.5611253,33.1537709 30.0475664,33.0766012 C29.7725813,33.0438584 29.4973246,33.0218487 29.2200299,33.0370653 C28.9195028,33.0532329 28.6216929,33.0877419 28.3237472,33.1257833 C27.8552945,33.1907254 27.3834452,33.2597434 26.9099656,33.2578413 C26.744893,33.2572979 26.5840322,33.249282 26.4211335,33.2211585 C26.3006237,33.2005075 26.1738644,33.1617868 26.0734622,33.0916819 C25.9408607,32.9998391 25.792771,32.8544666 25.7619303,32.6846389 C25.7359806,32.5370925 25.7179109,32.3996 25.7725275,32.2553144 C25.820351,32.1278757 25.88244,31.9963611 25.9885484,31.9050618 C26.0832443,31.8239521 26.1837823,31.7519451 26.2844562,31.6789871 C26.5313177,31.4766884 26.7602454,31.255233 26.9821084,31.025626 C27.2262527,30.7725148 27.471348,30.5192677 27.7107371,30.2608579 C28.2013354,29.7315389 28.6805213,29.1894488 29.1357954,28.628474 C29.5860426,28.025246 29.9638753,27.3765041 30.3499955,26.730072 C30.7564951,26.049946 31.1840533,25.3805531 31.5258825,24.6646954 C31.5760157,24.5401098 31.6241109,24.4155242 31.6704399,24.2887648 C31.7261434,24.1359198 31.7637772,23.9756025 31.8041283,23.8180024 C31.8803469,23.5195132 31.9352352,23.2173557 31.9848249,22.9141114 C32.0183829,22.6255402 32.0422946,22.3387351 32.0519408,22.0470391 C32.0603643,21.782923 32.0357732,21.5182635 32.0039815,21.2557778 C31.9596904,21.0083728 31.9111876,20.7609678 31.8344255,20.5217146 C31.7663586,20.309362 31.6904116,20.1017646 31.6079433,19.8951183 C31.5291432,19.7318119 31.4473542,19.5719022 31.359859,19.4125359 C31.2871727,19.2800702 31.1989982,19.1565715 31.109465,19.0342956 C31.0241436,18.9314479 30.9377352,18.8266982 30.8403221,18.7359423 C30.7579896,18.659316 30.6751137,18.5859505 30.5899281,18.5139435 C30.465886,18.427671 30.3407569,18.3484634 30.2058458,18.2805323 C30.1091119,18.2471102 30.0125139,18.2210247 29.9122476,18.2013247 Z M39.2508285,25.291971 C39.4615507,25.2872158 39.672273,25.2857213 39.883131,25.2857213 C40.0751043,25.2857213 40.2670775,25.2870799 40.4591866,25.2881668 C40.7314544,25.2903406 41.0042656,25.291971 41.2770768,25.2897972 C41.4452742,25.2887103 41.613064,25.2861289 41.7801744,25.2950958 C41.9870925,25.3067799 42.1952333,25.3376207 42.3984831,25.3774283 C42.5513281,25.4070462 42.7014558,25.4400607 42.8490021,25.491009 C42.9806525,25.5361153 43.111216,25.5832594 43.2470782,25.6157305 C43.3457141,25.6395064 43.4461163,25.6502395 43.5452956,25.6708905 C43.6679792,25.6968402 43.7905269,25.7435768 43.8982655,25.8056658 C43.9598111,25.8412617 44.0149711,25.8847376 44.0770602,25.9187031 C44.1424099,25.954299 44.2097975,25.9850039 44.2750113,26.0211432 C44.499048,26.1458647 44.694282,26.3352565 44.8073193,26.5667656 C44.9161449,26.790123 44.9718484,27.0305991 44.9575828,27.280042 C44.9453552,27.4928022 44.8954938,27.7172464 44.8137048,27.9142466 C44.6608599,28.2809386 44.4968742,28.6396147 44.3186231,28.9947584 C44.0193187,29.5911933 43.6806144,30.167113 43.3219383,30.7290389 C42.9503552,31.3102572 42.553366,31.8754438 42.1506705,32.4353318 C41.9542139,32.7086865 41.7595234,32.9829922 41.5562736,33.2510482 C41.4531542,33.3865028 41.3466383,33.5192401 41.2398506,33.6518416 C41.2484099,33.6542871 41.2568334,33.6565968 41.2653927,33.6591782 C41.5540998,33.7435486 41.8311227,33.8730252 42.0741801,34.0512764 C42.3156072,34.2274896 42.5126073,34.4329132 42.6919454,34.6695851 C43.0968146,35.2035234 43.3834838,35.8112348 43.6212426,36.4352497 C43.8504421,37.0360322 43.953969,37.6830078 44.0176884,38.3203373 C44.050567,38.6510258 44.0686367,38.9806274 44.0739353,39.3122669 C44.0792339,39.6031478 44.0818153,39.8982404 44.0521974,40.187491 C44.0134767,40.5695354 43.9693215,40.9595956 43.8473172,41.3253366 C43.6922985,41.7906645 43.5107867,42.2646876 43.1908313,42.6436071 C43.1032002,42.7475417 43.0167918,42.8499818 42.9110911,42.936526 C42.7922117,43.0336674 42.669664,43.1259178 42.5475239,43.2183041 C42.4218514,43.3127283 42.2859893,43.3934304 42.152165,43.4763063 C41.8703869,43.6498023 41.5742074,43.7984355 41.2743596,43.9385094 C40.9448938,44.0929847 40.6061895,44.2330586 40.2661265,44.3630787 C39.9672297,44.4772029 39.6668385,44.587523 39.3527252,44.6523292 C39.0108959,44.7228417 38.6675723,44.7854742 38.3220748,44.8332976 C37.9665235,44.8820722 37.6040432,44.9410363 37.2441444,44.9319336 C36.4651107,44.9123694 35.7103964,44.7222982 35.0029621,44.3986746 C34.6925171,44.2564269 34.3784038,44.1099675 34.093365,43.9204398 C33.7918868,43.7188203 33.4798114,43.509185 33.2409657,43.2327055 C32.9852731,42.9354391 32.7840613,42.5857299 32.6863764,42.2035496 C32.6657253,42.1224399 32.6445308,42.0411943 32.6306729,41.9584543 C32.6100219,41.8368576 32.5818984,41.7079244 32.5818984,41.5837464 C32.5818984,41.3847083 32.6073046,41.1772468 32.671024,40.9877191 C32.7867785,40.6443954 32.9571497,40.3078648 33.1370312,39.9937515 C33.2250699,39.8403631 33.3143313,39.6880616 33.4129672,39.5416022 C33.4914956,39.4247608 33.5795342,39.3149841 33.6663502,39.2052075 C33.7080599,39.1484171 33.7484109,39.0908116 33.7898489,39.0341571 C33.8625351,38.9338908 33.9140269,38.8818556 34.0137497,38.807539 C34.1125215,38.7337658 34.2918596,38.7231686 34.4001417,38.7629762 C34.5332866,38.8122941 34.6351833,38.8898714 34.706375,39.0140495 C34.7291999,39.0538571 34.7498509,39.0951592 34.7737627,39.1345592 C34.8252544,39.219473 34.88286,39.2992241 34.9429111,39.3781601 C35.0479325,39.5104898 35.1532257,39.6449933 35.2704747,39.76659 C35.3937017,39.8943004 35.5208687,40.0120929 35.6576819,40.1230923 C36.0071194,40.3683235 36.3772079,40.5952133 36.7623771,40.7801217 C36.9883159,40.8663942 37.2175154,40.9260377 37.4556818,40.9658453 C37.5367915,40.9715515 37.6159991,40.9719591 37.6961578,40.9666605 C37.7865061,40.9469605 37.8740014,40.9215542 37.9608173,40.8903059 C38.0806477,40.8316135 38.192734,40.7642258 38.3045486,40.6904527 C38.3739741,40.6344775 38.4409542,40.575785 38.5019563,40.5096202 C38.5496439,40.4573132 38.5950219,40.4032401 38.6401281,40.3488952 C38.7134937,40.2476779 38.7872668,40.145102 38.8458234,40.0355971 C38.9125317,39.9120984 38.9739414,39.789279 39.0327698,39.6629271 C39.0819519,39.5357602 39.1315416,39.4073704 39.1648278,39.27572 C39.1953968,39.153444 39.2221616,39.033206 39.2455299,38.9103866 C39.2614258,38.7114844 39.2542251,38.5176091 39.2341175,38.3197938 C39.1678167,37.9579929 39.0759739,37.6063816 38.9498938,37.2612917 C38.8857669,37.1242068 38.8145751,36.9932356 38.7278951,36.8678349 C38.6281722,36.7505858 38.5211129,36.6421678 38.4039997,36.5421733 C38.3162327,36.4828015 38.2261561,36.4322608 38.1318678,36.3867469 C38.0133959,36.3473469 37.8945166,36.3129738 37.7716972,36.2898772 C37.6109722,36.2590365 37.4484811,36.2362117 37.2872127,36.2065937 C37.1635781,36.1837689 37.028667,36.1646123 36.9114179,36.1189626 C36.8142765,36.0807854 36.7134668,36.0489936 36.6285529,35.9873122 C36.503288,35.8965563 36.428428,35.8382714 36.3462313,35.7040396 C36.2571058,35.5579877 36.1922995,35.3441407 36.2098257,35.1711882 C36.2289823,34.9790791 36.2602306,34.8017789 36.3281617,34.621354 C36.3738114,34.4992139 36.42639,34.3803345 36.4778818,34.2605041 C36.6079019,33.9584825 36.7554482,33.662303 36.9092441,33.3719655 C37.0675236,33.0737481 37.2256671,32.7744437 37.4017445,32.4868235 C37.7744144,31.8785686 38.1781968,31.2916441 38.5518177,30.6850195 C38.7280309,30.3990297 38.89256,30.1054316 39.0592629,29.8141431 C39.148796,29.6580374 39.241454,29.5024753 39.3294927,29.3448752 C39.2174064,29.3448752 39.105456,29.3465055 38.9939132,29.347049 C38.7238192,29.3492228 38.4537252,29.3534345 38.1840388,29.3603634 C37.9170697,29.3678359 37.6496929,29.3806069 37.3832672,29.3731345 C37.2479485,29.3694662 37.1135808,29.3645752 36.9788056,29.3550648 C36.8596545,29.3463696 36.7410468,29.33224 36.6218957,29.3251751 C36.415521,29.4557387 36.1605078,29.4822318 35.9387807,29.3936497 C35.9368786,29.4019373 35.9349766,29.4099531 35.9328028,29.4182407 C35.9110648,29.469189 35.8898703,29.5201374 35.8679965,29.5710857 C35.7841696,29.7144202 35.645726,29.821072 35.4859521,29.8650914 C35.3203361,29.9107411 35.1404546,29.8868293 34.9923649,29.8002851 C34.8634317,29.7250175 34.7222709,29.5732595 34.6983592,29.4182407 C34.6585516,29.1565702 34.6165701,28.8943562 34.590077,28.6306478 C34.5683391,28.4098718 34.577306,28.1874654 34.5874956,27.9661459 C34.6054294,27.550136 34.6287977,27.1339902 34.6510791,26.7185237 C34.6596384,26.5651353 34.6733605,26.4059048 34.7078695,26.2561847 C34.7323247,26.1511633 34.7690075,26.065706 34.8124834,25.9627225 C34.8543289,25.8635431 34.9160103,25.7574347 34.9998373,25.6895037 C35.0581222,25.6411367 35.1181732,25.5944001 35.1791754,25.5492939 C35.246563,25.5100297 35.3177548,25.478238 35.392479,25.4537828 C35.4503562,25.4320449 35.508777,25.4145186 35.5703225,25.4060952 C35.7194992,25.3847648 35.8690834,25.3641138 36.019347,25.3513427 C36.2321071,25.3332731 36.4444597,25.3206379 36.6583067,25.3173772 C36.8726972,25.3142524 37.0876312,25.3248496 37.3020217,25.3290613 C37.6199391,25.3354469 37.9378566,25.3387076 38.255774,25.3290613 C38.5874136,25.319551 38.9190531,25.2993075 39.2508285,25.291971 Z M42.6181722,37.7392548 C42.620346,37.7562376 42.622384,37.7730845 42.6246936,37.7900672 C42.622384,37.7730845 42.620346,37.7561017 42.6181722,37.7392548 Z M39.5320632,28.9279142 L39.5320632,28.9287294 L39.5320632,28.9279142 Z M43.5128246,27.3718848 L43.5128246,27.3720207 C43.5129605,27.3720207 43.5129605,27.3720207 43.5129605,27.3721566 L43.5129605,27.3720207 C43.5129605,27.3720207 43.5129605,27.3718848 43.5128246,27.3718848 Z M37.1544754,26.8814224 C36.784251,26.8509893 36.4102224,26.8091437 36.0374166,26.8098231 C36.0098366,27.1172791 35.9920387,27.4258221 35.958209,27.7332782 C35.9497855,27.8096327 35.9410904,27.8859873 35.9330745,27.9620701 C35.9518235,27.9478045 35.9703007,27.9332673 35.9890497,27.9190018 C36.1185264,27.8430548 36.3106355,27.7963182 36.4598121,27.7953672 C36.6460791,27.7937368 36.8323462,27.8266155 37.0133146,27.8700914 C37.1709147,27.9081328 37.3282431,27.9403321 37.4878811,27.9673687 C37.8587848,28.0066329 38.2307754,28.0218494 38.6033095,28.0431798 C38.9526111,28.0632874 39.3012334,28.0829874 39.6478178,28.1280936 C39.8128903,28.1498316 39.9710339,28.1699392 40.128634,28.2246916 C40.3286231,28.2937096 40.4894839,28.412589 40.597766,28.5955953 C40.7400137,28.834441 40.6805061,29.1183929 40.6030646,29.366749 C40.4980432,29.7021927 40.3530783,30.029077 40.2002333,30.3448207 C40.0453505,30.6649119 39.8850331,30.9837804 39.7061026,31.2905572 C39.3527252,31.8960949 38.9599476,32.4767697 38.6049398,33.0806771 C38.2886527,33.6197781 38.0142111,34.1838778 37.7661268,34.757352 C37.7526765,34.7921327 37.7396337,34.8267776 37.7268626,34.8612866 C37.9268517,34.9040832 38.1286071,34.9398149 38.3231617,35.0023115 C38.5857832,35.0868178 38.8607683,35.1929261 39.0820877,35.3600366 C39.3017768,35.526196 39.4986411,35.6938499 39.6759412,35.9034852 C39.8855766,36.1518413 40.0404594,36.4156856 40.1598823,36.7166203 C40.2241451,36.8778887 40.2825658,37.0413308 40.3271286,37.2096641 C40.3822886,37.417669 40.4359542,37.6267609 40.4693763,37.8395211 C40.5197811,38.157982 40.5786095,38.4896215 40.5526598,38.8128376 C40.5314653,39.082524 40.4867666,39.3436511 40.4226397,39.6051857 C40.3844624,39.7629217 40.3233244,39.9152232 40.2665341,40.0664378 C40.1323022,40.4252497 39.9471221,40.753221 39.7252592,41.0631226 C39.3898155,41.5317112 38.9350849,41.9053322 38.388919,42.0985281 C38.0131242,42.2312655 37.6204826,42.26034 37.2304223,42.1775999 C37.0982284,42.1494765 36.9656269,42.1186357 36.8376448,42.0729861 C36.516059,41.9589977 36.218385,41.8151197 35.9428566,41.6129568 C35.6541495,41.4011477 35.3659858,41.1809151 35.0937181,40.9479115 C34.7889792,40.6874637 34.5336942,40.3744373 34.3010982,40.0453791 C34.2818058,40.0857302 34.2623775,40.1258095 34.2429492,40.1656172 C34.1137443,40.4306842 33.9910607,40.6986044 33.874491,40.9695136 C33.8208255,41.108093 33.774904,41.244091 33.7456937,41.3876973 C33.7436557,41.4304939 33.7432482,41.4726112 33.7446068,41.515136 C33.7773496,41.6626823 33.827211,41.8060169 33.8826427,41.9466343 C33.9484,42.0849419 34.0227166,42.2142827 34.1095325,42.33914 C34.2141464,42.4554381 34.3255534,42.5595085 34.4453838,42.659503 C34.8616655,42.959215 35.3059348,43.1977889 35.7733006,43.4074242 C35.9518235,43.4764422 36.1306181,43.5413843 36.3148472,43.5946423 C36.5034239,43.6483078 36.6930874,43.6868927 36.8853324,43.7212658 C37.0661649,43.7398789 37.245503,43.7529217 37.4283735,43.7480307 C37.5961632,43.742732 37.7623227,43.7257493 37.928618,43.7061851 C38.2214009,43.6625734 38.5147273,43.6143423 38.802891,43.5473623 C38.9637518,43.5102719 39.1286884,43.4778008 39.2853375,43.4248146 C39.4241887,43.3778063 39.5611377,43.3283525 39.6976792,43.2753662 C40.0131511,43.1403192 40.3278079,42.9991584 40.6264329,42.8293307 C40.9629635,42.6379009 41.2831906,42.4247332 41.5978474,42.1990662 C41.6737943,42.1381999 41.7486544,42.0762468 41.8221558,42.011984 C41.9218787,41.9253039 42.0084229,41.8304721 42.0911629,41.7306134 C42.2016189,41.5678505 42.2873479,41.395849 42.3691369,41.2178696 C42.4430459,41.034184 42.514917,40.8471018 42.5592081,40.6549927 C42.6017329,40.471307 42.6377364,40.2884365 42.6674902,40.1028488 C42.707162,39.7009686 42.7207482,39.3008545 42.7153137,38.8968004 C42.711102,38.5605416 42.678495,38.2252337 42.6374647,37.8916921 C42.5964343,37.6484989 42.5554039,37.4040828 42.4886956,37.1665958 C42.4238894,36.937668 42.349301,36.7143106 42.2634361,36.4927194 C42.0925215,36.1152943 41.9004124,35.7530858 41.6584419,35.4169628 C41.5663274,35.3124848 41.4725825,35.2141206 41.3679686,35.1235006 C41.2736803,35.0603246 41.1765388,35.0053005 41.0746422,34.9563901 C40.7917772,34.8550369 40.4998094,34.8102024 40.2060754,34.7475699 C40.0092111,34.7057244 39.8213138,34.5890188 39.7177868,34.4122621 C39.6620833,34.3177021 39.6297481,34.1940675 39.6297481,34.0848343 C39.6297481,33.9467984 39.6637136,33.8788673 39.7177868,33.7563196 C39.7528392,33.6776554 39.7910165,33.5960022 39.8382965,33.5238594 C39.9142435,33.4086483 40.0006518,33.3014531 40.0760553,33.186242 C40.1514588,33.0711667 40.2257754,32.9554121 40.3026734,32.8418314 C40.6762943,32.2883289 41.0663546,31.7454237 41.4293783,31.1844489 C42.1457795,30.0759495 42.788,28.92017 43.3179982,27.7105892 C43.3554962,27.6115457 43.3914997,27.5131815 43.4217969,27.4130511 C43.4019611,27.4070731 43.3819893,27.4009593 43.3622893,27.3945738 C43.2603927,27.3616952 43.1563223,27.3510979 43.0513008,27.3324848 C42.8384048,27.2943075 42.6271391,27.2407778 42.4180473,27.1860254 C42.2272968,27.1365716 42.0338291,27.0981226 41.8392745,27.0668743 C41.6220309,27.0471743 41.4042438,27.0447287 41.1863209,27.0379356 C40.9065807,27.0289687 40.6275198,27.0183715 40.3483231,27.0061439 C39.8132979,26.9822321 39.2805823,26.9610376 38.7455571,26.9568259 C38.2132492,26.9520707 37.6846095,26.9254418 37.1544754,26.8814224 Z M28.1989986,12.7444345 C28.2466862,12.7428041 28.294238,12.7421248 28.3419256,12.7421248 C28.7059003,12.7421248 29.0723206,12.7842421 29.4350725,12.8006814 C29.6303065,12.8097842 29.8256763,12.8023117 30.0209102,12.7942959 C30.2115248,12.7875028 30.4014601,12.7800304 30.5919389,12.7875028 C30.846137,12.7975566 31.0988406,12.8501352 31.3482835,12.8952415 C31.4928409,12.9215987 31.6378058,12.9452387 31.7831783,12.9665691 C32.0862868,13.0016215 32.3895311,13.0247181 32.6935907,13.0442823 C33.3829553,13.0883016 34.0697385,13.1584065 34.7591031,13.1929155 C35.4453429,13.2274245 36.1330772,13.219952 36.8198604,13.2369348 C37.5209092,13.2539176 38.2166593,13.3075831 38.9129529,13.3877418 C39.2473097,13.4264625 39.581123,13.4736067 39.9149364,13.5177619 C40.3225229,13.5707481 40.7322831,13.6169413 41.1362014,13.6934317 C41.3352394,13.7310655 41.5368589,13.7968228 41.7156535,13.8908394 C41.9656399,14.0219464 42.1710635,14.2193541 42.3233649,14.4565694 C42.5277016,14.7734 42.6312286,15.1379182 42.7097569,15.5025722 C42.7607052,15.7408745 42.7829866,15.9892305 42.807306,16.231201 C42.8233377,16.3862198 42.8344784,16.5411026 42.8403205,16.6966648 C42.8662701,17.4115715 42.8503743,18.1243044 42.8174956,18.8386677 C42.7866549,19.5211033 42.7362501,20.2031314 42.7075831,20.8861105 C42.6927742,21.2321514 42.6816335,21.5781923 42.6768783,21.9242333 C42.6725307,22.2474493 42.68897,22.5727034 42.6704928,22.895376 C42.6582652,23.109223 42.5934589,23.2992942 42.4391195,23.4536336 C42.2921166,23.6006365 42.0898179,23.6845993 41.8812695,23.6845993 C41.672721,23.6845993 41.4705581,23.6011799 41.3235553,23.4536336 C41.2253269,23.3549977 41.1579393,23.2392431 41.1203055,23.1055548 C41.0624282,22.7748663 41.0582165,22.4432267 41.052782,22.1088699 C41.0480268,21.824918 41.0438151,21.5409661 41.0363427,21.2575576 C41.0220771,20.6976696 40.9939537,20.1383251 40.9912364,19.5784371 C40.9852585,18.4597481 40.9931385,17.3443197 40.8696398,16.231201 C40.8315984,16.0098816 40.7871715,15.7929097 40.7177459,15.5796061 C40.5036271,15.5209136 40.2813566,15.4896653 40.0624827,15.457466 C39.8391253,15.4244515 39.615632,15.3949694 39.3922746,15.3646721 C39.2564125,15.3470101 39.1205503,15.3297556 38.9846881,15.3130445 C37.6032417,15.1428092 36.2132359,15.1735141 34.8249963,15.1225658 C34.1440551,15.0975671 33.4658312,15.0243374 32.7838031,15.0053167 C32.4240401,14.9947195 32.0621033,14.9856167 31.7038348,14.9447222 C31.3412187,14.9032842 30.9834936,14.8455428 30.6245458,14.7848124 C30.4244208,14.7691883 30.2260621,14.7723131 30.0241709,14.7701393 C29.7544845,14.766471 29.484934,14.7558738 29.2163345,14.7346793 C28.9489577,14.7128055 28.6798148,14.6799268 28.4117587,14.6746282 C28.1438385,14.6693296 27.8799942,14.6778889 27.6135685,14.7060124 C27.0786792,14.7622593 26.542703,14.8541021 26.0023791,14.8407876 C25.3650497,14.8248918 24.7366872,14.7473145 24.1077813,14.6380813 C23.8811632,14.5988171 23.663512,14.401817 23.5515616,14.2102513 C23.4252098,13.994774 23.3912442,13.7326958 23.4576808,13.4922198 C23.5212643,13.2597597 23.6773699,13.0575968 23.8853749,12.9354567 C24.1172916,12.800138 24.3470345,12.7975566 24.6034064,12.8421194 C24.7281279,12.8637214 24.8529852,12.8841008 24.978386,12.9029856 C25.3010586,12.9357284 25.6235954,12.9535263 25.948306,12.9546132 C26.2481538,12.9555643 26.5452843,12.9264898 26.842279,12.890758 C27.2929338,12.8264952 27.7434528,12.7600586 28.1989986,12.7444345 Z M40.6250879,15.4627646 C40.6423424,15.476215 40.6595969,15.4895295 40.6767155,15.502844 C40.6604121,15.4885784 40.6431576,15.4752639 40.6250879,15.4627646 Z M16.3399164,18.5319317 C16.492082,18.4543544 16.6485953,18.4081612 16.8110864,18.4081612 C16.8870334,18.4081612 16.9642031,18.4183509 17.0430031,18.4400888 C17.2707081,18.5027213 17.4686593,18.6550228 17.5880821,18.8593595 C17.7111732,19.0700817 17.7445953,19.3268612 17.6799249,19.5620386 C17.6151187,19.798167 17.4633607,19.9769616 17.2606543,20.1075252 C17.0840335,20.2206983 16.8936906,20.3113184 16.6992718,20.3933792 C16.7022608,20.6546421 16.7185643,20.9167202 16.7283463,21.1763528 C16.7426119,21.5707607 16.7575567,21.9650327 16.7644857,22.3593047 C16.7787512,23.1894225 16.7776643,24.0215782 16.8280692,24.8499298 C16.8716809,25.5701352 16.9385251,26.2881667 16.9862127,27.008372 C17.0340362,27.7264036 17.0632466,28.4460654 17.125879,29.1635535 C17.1863377,29.8572657 17.2749198,30.5477172 17.3285854,31.241837 C17.3842889,31.9631293 17.4485517,32.6833346 17.5212379,33.4029965 C17.5933807,34.1151859 17.6518015,34.8284623 17.7144339,35.5411952 C17.775436,36.2396626 17.8566816,36.9363637 17.9112982,37.6353746 C17.968632,38.3650902 17.9814031,39.093719 17.9987934,39.8250651 C18.0145534,40.4723124 18.0626487,41.115348 18.141177,41.7574326 C18.1985108,42.1351294 18.2585619,42.5120111 18.3114123,42.890523 C18.362904,43.2608833 18.4101841,43.6324663 18.4817834,43.9997017 C18.5597683,44.3981855 18.6505242,44.7935444 18.7737512,45.1810233 C18.8791803,45.5126628 18.9981955,45.8381885 19.1288949,46.1604536 C19.2018529,46.3185971 19.2769847,46.4722573 19.3697785,46.6188525 C19.3934185,46.6442588 19.417602,46.6685781 19.4427365,46.6927615 C19.4957228,46.7267271 19.54966,46.7577037 19.6060428,46.7865064 C19.8622789,46.8787568 20.128297,46.9419328 20.3929565,47.00769 C20.6710663,47.0768439 20.9486327,47.1389329 21.2305467,47.1858053 C21.8282044,47.2438185 22.4307531,47.2311833 23.0300411,47.2704475 C23.6821795,47.3128365 24.3366275,47.4020979 24.9914831,47.3915007 C25.621476,47.3818544 26.249295,47.3372916 26.8787444,47.3203089 C27.5315621,47.3033261 28.1816626,47.3144668 28.833801,47.3415034 C29.5737063,47.3723441 30.3140192,47.3967993 31.0543322,47.4280476 C31.7623099,47.4578014 32.4671628,47.5332049 33.1735102,47.5841532 C33.8899114,47.6360525 34.6084863,47.6376829 35.3261103,47.6068422 C35.9643907,47.5791263 36.6000898,47.493669 37.2348378,47.4164993 C37.2791289,47.4090269 37.3224689,47.4004676 37.3654014,47.3895986 C37.4789821,47.0566004 37.5231373,46.7014567 37.582645,46.3559592 C37.6071001,46.214255 37.7307347,46.0779853 37.8501576,46.0084238 C37.9849328,45.929352 38.1489185,45.9081576 38.2990461,45.9494596 C38.445098,45.9892673 38.5713139,46.0869522 38.6472609,46.2169722 C38.7321747,46.3623448 38.7338051,46.5056793 38.706225,46.6659967 C38.6531029,46.9742679 38.6164202,47.2905551 38.5421036,47.5952939 C38.4816449,47.844601 38.3936062,48.0776046 38.2316585,48.2799033 C38.0464784,48.5107332 37.7647003,48.6433346 37.4844166,48.7224064 C36.8317348,48.9071789 36.1480764,48.9931797 35.4773249,49.0806749 C35.1780205,49.1199391 34.8759989,49.1454812 34.5745208,49.1672191 C34.2513047,49.1911309 33.9271376,49.2187109 33.6028346,49.2265909 C32.9781404,49.2415357 32.3541255,49.2276778 31.7294312,49.2271343 C31.518709,49.2271343 31.3079868,49.2282212 31.0979439,49.2287647 C30.5718856,49.2309385 30.0454197,49.2335199 29.5200407,49.2165371 C28.8020092,49.1937122 28.0839777,49.1635508 27.3654027,49.1650453 C26.6674788,49.1661322 25.9717286,49.2293081 25.2743481,49.2346068 C24.9087431,49.2377316 24.5446325,49.2282212 24.1801143,49.1953426 C23.8170906,49.1619205 23.4546103,49.121026 23.0915866,49.0897777 C22.3390461,49.0255149 21.5753649,49.0308135 20.8317913,48.8891093 C20.5054503,48.8270203 20.1880763,48.7340905 19.8707023,48.6374925 C19.5124338,48.5288028 19.1441115,48.4231021 18.811385,48.2474323 C18.7386988,48.209255 18.6696808,48.1678171 18.6022932,48.1217598 C18.4976793,48.0494811 18.3592358,47.9508452 18.2673929,47.8531603 C18.07311,47.6456988 17.9208086,47.4190807 17.7913319,47.1685508 C17.6846801,46.9620404 17.5955545,46.7397699 17.5090103,46.5242925 C17.4463779,46.3670999 17.3815716,46.2100433 17.3253247,46.0502694 C17.0961252,45.4012558 16.9124396,44.7425961 16.8015761,44.0628777 C16.7475029,43.733276 16.7002229,43.4025875 16.6465573,43.0729859 C16.5908538,42.7285753 16.5287648,42.3852517 16.4799903,42.0397542 C16.4184448,41.6035008 16.3674964,41.1677908 16.3297268,40.7284126 C16.3005164,40.3860399 16.2878812,40.0405424 16.2761971,39.6972188 C16.2517419,38.9929093 16.2380198,38.2896867 16.1684584,37.5875511 C16.0983535,36.8780789 16.0187383,36.1690142 15.9540679,35.4584551 C15.8245912,34.037201 15.683838,32.6164904 15.5644152,31.1941494 C15.5050434,30.4872586 15.4170047,29.7834926 15.3543723,29.0771452 C15.289566,28.3468861 15.2614426,27.6133662 15.2168798,26.8816126 C15.1743549,26.1942859 15.1096845,25.5069593 15.0804742,24.8186815 C15.0507204,24.1234748 15.0375417,23.4282682 15.0406666,22.7319746 C15.0437914,22.0532072 15.0496335,21.3748474 15.0549321,20.6960801 C15.056019,20.5225841 15.056019,20.3490881 15.0576493,20.1759997 C15.0581928,20.0927162 15.0607742,20.0098403 15.06879,19.9271002 C15.0916149,19.701569 15.1054728,19.6617614 15.192968,19.4552509 C15.2232653,19.3725109 15.2731267,19.3009115 15.3426881,19.2408604 C15.3532854,19.2271383 15.3638826,19.2132804 15.3744799,19.2001018 C15.5607469,19.0439962 15.7650836,18.9145195 15.9619479,18.7728153 C16.0846314,18.6842331 16.2044618,18.6008138 16.3399164,18.5319317 Z M37.3334738,47.4398676 C37.3242351,47.4470683 37.3148606,47.4541331 37.305622,47.4614697 C37.3151324,47.4545407 37.3245068,47.4474759 37.3334738,47.4398676 Z M37.4117304,47.3526441 C37.4037145,47.3631055 37.3956986,47.373431 37.3876828,47.3837565 C37.3882262,47.3836206 37.3886338,47.3834848 37.3890414,47.3833489 C37.3970572,47.3735668 37.4045297,47.3633772 37.4117304,47.3526441 Z M37.3969214,47.326151 L37.3829276,47.3591655 C37.3878186,47.3482965 37.3925738,47.3372916 37.3969214,47.326151 Z" id="Combined-Shape" fill="#009BA6"></path>
        </g>
    </g>
</svg>