<?xml version="1.0" encoding="UTF-8"?>
<svg width="36px" height="33px" viewBox="0 0 36 33" version="1.1" xmlns="http://www.w3.org/2000/svg" xmlns:xlink="http://www.w3.org/1999/xlink">
    <!-- Generator: Sketch 47 (45396) - http://www.bohemiancoding.com/sketch -->
    <title>list-icon--tool</title>
    <desc>Created with Sketch.</desc>
    <defs></defs>
    <g id="Wireframes" stroke="none" stroke-width="1" fill="none" fill-rule="evenodd">
        <g id="list-icon--tool" transform="translate(-13.000000, -12.916910)">
            <circle id="Oval" cx="30" cy="30.170328" r="29.4827586"></circle>
            <path d="M31.7706148,36.8424231 L31.7732223,36.8429446 C31.7648783,36.8441614 31.7565342,36.8453783 31.7481902,36.8462475 C31.7556651,36.8446829 31.7631399,36.8432923 31.7706148,36.8424231 M33.8620129,13.8622499 C33.5272084,13.9076206 33.1958806,13.9748944 32.8652482,14.0414728 C32.5372232,14.1066606 32.2105889,14.1758466 31.8853453,14.2552888 C31.4921326,14.3517667 31.1180416,14.5085651 30.7486441,14.6702308 C30.4444344,14.8040831 30.1497856,14.9622721 29.8652192,15.1326295 C29.2329845,15.5122832 28.6070079,15.9197503 28.0446546,16.3984895 C27.8009392,16.6062212 27.576867,16.8534133 27.3766101,17.1025176 C27.1170758,17.4251537 26.8712744,17.7537001 26.6397274,18.0959795 C26.249296,18.6744994 25.9356993,19.3020405 25.6443533,19.9347966 C25.3272799,20.6219629 25.0467117,21.3289462 24.7989981,22.0446212 C24.6854844,22.3733415 24.5952645,22.7067553 24.515127,23.0455579 C24.4261239,23.4250378 24.3833607,23.8168599 24.3378162,24.2032931 C24.2223903,25.1743304 24.3256478,26.1596221 24.5170391,27.1136236 C24.6095189,27.5748055 24.7485862,28.026948 24.900691,28.4717895 C24.978221,28.696557 25.0715699,28.9162833 25.1683955,29.1337498 C25.0967759,29.2118013 25.0301974,29.2950678 24.9611853,29.3741623 C24.8627952,29.4881975 24.7628406,29.5996252 24.675402,29.7232212 C24.6248163,29.7944932 24.597872,29.8692419 24.5811839,29.946598 C24.5074783,29.9883182 24.4318604,30.0270832 24.3581548,30.0674127 C24.2163061,30.1461596 24.0805417,30.2351626 23.9452988,30.324861 C23.6649044,30.5108635 23.3912895,30.7071222 23.1034202,30.8816517 C22.9742615,30.9597032 22.8433644,31.0337565 22.7162917,31.11598 C22.5403715,31.2293199 22.375403,31.3624768 22.2132158,31.4940692 C21.9307353,31.7230087 21.6644215,31.9714177 21.3996722,32.2200004 C20.8828634,32.7048238 20.3837856,33.2080735 19.8772331,33.7029792 C19.375374,34.1940605 18.8851618,34.6945289 18.393559,35.1948235 C18.01321,35.5812567 17.6234739,35.958129 17.2248723,36.3261358 C16.8201865,36.6997053 16.4052445,37.0623232 16.0005587,37.4350236 C15.6080413,37.7955555 15.2292568,38.1705157 14.8278738,38.5214867 C14.6119719,38.7095752 14.3932886,38.8936655 14.1726931,39.0756698 C14.0605701,39.1679757 13.9512285,39.2637583 13.8460588,39.3635391 C13.6729201,39.5285077 13.5322883,39.7315459 13.3937425,39.9257186 C13.294657,40.0649597 13.2830102,40.279471 13.3264687,40.4385292 C13.3727086,40.6048885 13.4841362,40.7495184 13.6327644,40.8364355 C13.7862599,40.9266554 13.9736531,40.951166 14.1454012,40.9035354 C14.3241026,40.8546881 14.4388331,40.7439557 14.5433074,40.5979351 C14.5704255,40.5598654 14.5980652,40.5221434 14.6258786,40.4845953 C14.8883681,40.1703032 15.2245633,39.9199821 15.5348571,39.6541897 C15.8124702,39.4158632 16.0753074,39.1591102 16.3407521,38.9072246 C16.8683386,38.4046702 17.3973157,37.9055925 17.9325509,37.4106868 C18.4498812,36.9319477 18.9482636,36.4333915 19.4398665,35.9282296 C19.9267758,35.4277612 20.4183786,34.9335508 20.9181517,34.4466415 C21.7134427,33.6720367 22.4930887,32.8654465 23.363476,32.1737606 C23.5889389,32.0080967 23.8227457,31.8554703 24.044558,31.6849391 C24.2912286,31.4949384 24.5309459,31.2976367 24.7751828,31.1057238 C24.9236371,30.99447 25.0760896,30.8887789 25.2273253,30.7818709 C25.3517905,30.6940847 25.4526143,30.609949 25.544051,30.5032148 C25.544051,30.5032148 25.544051,30.5033887 25.5438772,30.5033887 C25.544051,30.5033887 25.5442249,30.5032148 25.5442249,30.503041 C25.5539596,30.4915679 25.5636943,30.4797472 25.573429,30.4677527 C25.641572,30.3897012 25.7244908,30.3220797 25.7971535,30.249417 C25.9294412,30.1171293 26.0572093,29.9792788 26.1882802,29.8454266 C26.2282621,29.8040541 26.2677224,29.7612909 26.3090949,29.7218305 C26.4062682,29.6288293 26.4733681,29.5344374 26.5203034,29.4019758 C26.5997455,29.1799896 26.4625904,28.9220198 26.3967073,28.7120282 C26.1307411,27.8531139 25.8997156,26.9872462 25.7656895,26.0980848 C25.7260553,25.7518073 25.6966774,25.4041391 25.6966774,25.0554278 C25.6966774,24.6867257 25.7250123,24.3221956 25.7639512,23.9566225 C25.8409597,23.4613691 25.9435218,22.9720261 26.1053613,22.4955468 C26.2790216,21.9827362 26.4719775,21.4775743 26.6776232,20.9764106 C26.8983925,20.4743777 27.1309826,19.9798197 27.3948627,19.4988207 C27.6344061,19.0631924 27.9186249,18.6534655 28.2188364,18.2574714 C28.5093132,17.9052835 28.8145659,17.5776062 29.1622341,17.282262 C29.5297194,17.0089948 29.9126759,16.7588476 30.2984138,16.5118293 C30.6947555,16.2580315 31.1056993,16.0377837 31.5342004,15.8458708 C31.7645306,15.7561725 31.9965991,15.6775994 32.2350995,15.6106733 C32.4706447,15.5447902 32.7110573,15.4938568 32.9500792,15.4403159 C33.4501999,15.3281929 33.9496253,15.2084212 34.4563517,15.1312388 C34.6486122,15.1075974 34.8412204,15.0883018 35.0346978,15.0810008 C35.2160067,15.0742213 35.3966204,15.0876065 35.5767125,15.1058591 C35.1391721,15.6588254 34.6861604,16.1999709 34.2274122,16.7352061 C33.9550141,17.0529749 33.6732291,17.3613566 33.395616,17.674258 C33.1237395,17.9807275 32.8659435,18.2939765 32.6147532,18.6166126 C32.6190991,18.6110499 32.6232711,18.6056611 32.6276169,18.5999246 C32.421102,18.8646739 32.2045047,19.1200362 31.9872121,19.37592 C31.824851,19.5673113 31.6631853,19.7658299 31.4757922,19.9346228 C31.3991313,19.9819057 31.3275117,20.0283194 31.255892,20.0875968 C31.1554159,20.1705157 31.0731924,20.3408731 31.0346012,20.4644692 C30.9727163,20.6607279 30.9558544,20.869155 30.9381233,21.0735839 C30.9103098,21.4002181 30.9346466,21.7172915 30.9869707,22.040623 C31.0392947,22.3603039 31.1451597,22.6712931 31.2280786,22.983673 C31.3103021,23.2946622 31.3902658,23.6070421 31.4514554,23.923594 C31.5790496,24.5848589 31.6816117,25.2523819 31.7902581,25.9164282 C31.8404961,26.2234192 31.898209,26.524326 31.9783466,26.8236684 C32.0238911,26.9921136 32.0409268,27.1734226 32.1000304,27.3370005 C32.1706071,27.531347 32.2432697,27.6412101 32.3783388,27.7993992 C32.4476986,27.880232 32.529053,27.9542854 32.6077998,28.0241667 C32.7559065,28.1559329 32.9182676,28.2781383 33.0995765,28.3603618 C33.3133925,28.4568398 33.5299898,28.5423661 33.7507591,28.621113 C34.3781264,28.8444898 35.0008001,29.0876837 35.6431171,29.2627347 C35.9725328,29.3531284 36.3052512,29.4278771 36.638665,29.5005397 C36.9442654,29.5676397 37.2484751,29.6409977 37.5552923,29.7021873 C37.8555038,29.7625077 38.1657977,29.820916 38.4727887,29.8190038 C38.9590027,29.8162225 39.3513462,29.4664682 39.7127473,29.1832925 C40.2599771,28.7535746 40.7644437,28.2734448 41.2697794,27.795401 C41.7831115,27.3084917 42.3004418,26.8257544 42.8186413,26.3435386 C43.3408389,25.8574984 43.8663394,25.3766733 44.4142645,24.9203587 C44.9289873,24.4918577 45.4675254,24.0810877 45.9203632,23.5846175 C46.0025867,23.4947453 46.0820289,23.4024394 46.1612973,23.3099596 C46.2765493,23.6244255 46.3813712,23.9425419 46.4841072,24.261006 C46.547209,24.4572647 46.6063126,24.6549141 46.6640255,24.8530849 C46.7201739,25.0472576 46.7601558,25.2440378 46.7966609,25.4418611 C46.8176948,25.6659332 46.8255174,25.887224 46.8215192,26.1140775 C46.8183902,26.3019922 46.7970086,26.4900807 46.7733671,26.6771262 C46.7236506,26.9905491 46.6638517,27.3011906 46.5764131,27.6059218 C46.4896699,27.9101315 46.3867601,28.2073878 46.2699436,28.500646 C46.0324862,29.0264941 45.7672154,29.5398262 45.4960341,30.0491602 C45.3493182,30.3234704 45.1972133,30.5944777 45.0390243,30.8620084 C44.8917868,31.1100697 44.7245584,31.3454411 44.5538533,31.5782049 C44.3821052,31.7909779 44.2047944,31.9961021 44.0184443,32.1975758 C43.8171444,32.4155638 43.5998517,32.609215 43.3716076,32.7969558 C43.1174621,32.9859135 42.8612306,33.1727852 42.5910924,33.3384491 C42.2536804,33.5447902 41.9100104,33.7328787 41.5555627,33.9087988 C41.2296237,34.0704645 40.8948192,34.2150945 40.5634914,34.3651133 C40.2106082,34.5259098 39.8561605,34.6832297 39.5004959,34.8375944 C39.1778598,34.9712728 38.853833,35.1018222 38.5195501,35.2029937 C38.1583228,35.3119877 37.7889253,35.3801306 37.4163988,35.4381912 C36.6487474,35.5332785 35.8809222,35.6229769 35.1143138,35.7258867 C34.6832052,35.7776892 34.2512275,35.8241029 33.8159469,35.8121084 C33.4340333,35.8023737 33.0491646,35.7728219 32.6688156,35.729711 C32.5469579,35.7069387 32.4294461,35.6753009 32.3117604,35.6328854 C32.230406,35.6029859 32.1509638,35.570479 32.0652636,35.5548339 C32.0477064,35.5520525 32.0299753,35.549445 32.012418,35.547359 C31.8255464,35.5214577 31.8105966,35.5139829 31.6238988,35.5445777 C31.4052155,35.5812567 31.217127,35.7170211 31.0474649,35.852264 C30.9136127,35.9588244 30.7867138,36.0721642 30.6624224,36.189676 C30.1437014,36.6786714 29.6261973,37.1681882 29.1114745,37.6618771 C28.0895038,38.6410846 27.0913484,39.6467149 26.0504298,40.6068006 C25.3448371,41.2572878 24.6569756,41.9282875 23.9446034,42.5712998 C23.5759013,42.905409 23.1983336,43.2285666 22.842669,43.5769301 C22.534635,43.8797491 22.2606725,44.2237668 21.9335167,44.5069426 C21.9074416,44.5246737 21.880845,44.5415356 21.8537268,44.5575283 C21.6402586,44.5849941 21.4492149,44.7374466 21.3901113,44.9547392 C21.3887206,44.9594328 21.3880253,44.9649954 21.3868084,44.969689 C21.3480434,45.1115376 21.3669913,45.2650331 21.44174,45.3928012 C21.5321337,45.5468182 21.7289139,45.683278 21.9163071,45.6650254 C22.0230412,45.6540738 22.1167378,45.648685 22.2104344,45.5883645 C22.2639753,45.5535977 22.3149087,45.5150066 22.3625393,45.4722434 C22.3992182,45.4395626 22.4331159,45.4049696 22.4677089,45.3710719 C22.5826132,45.2589489 22.6973437,45.1468259 22.8127696,45.0362674 C23.056485,44.8026344 23.292204,44.5601358 23.5345288,44.3259813 C24.0322158,43.8444608 24.5843129,43.4215224 25.1011217,42.9603406 C25.6191474,42.4972465 26.1284813,42.0240701 26.6492883,41.5635835 C27.1857403,41.0890164 27.7107193,40.6028024 28.2315263,40.1111996 C28.8126537,39.5631007 29.4000391,39.0219551 29.9928134,38.4861984 C30.3011951,38.2077162 30.609403,37.9287124 30.9217829,37.6544022 C31.2006128,37.40947 31.4750968,37.1582797 31.7627923,36.9241251 C31.7933871,36.9029174 31.8239819,36.8822311 31.8550982,36.8627617 C31.9884289,36.8966593 32.120369,36.9366412 32.2575241,36.9548938 C32.6166654,37.003915 32.976502,37.0072178 33.3385984,37.0188647 C33.6692309,37.0289471 34.001254,37.038508 34.3311911,37.0120852 C34.6965904,36.9828811 35.0599037,36.9413347 35.423217,36.893878 C36.1178581,36.8015721 36.8152805,36.7308216 37.5111384,36.6480766 C37.9043512,36.6011414 38.2914797,36.529174 38.6770438,36.442257 C39.0010705,36.3695943 39.3228374,36.2527778 39.6331313,36.1361351 C40.3291631,35.873298 41.0165031,35.5873409 41.7048862,35.3041651 C42.3908355,35.02238 43.0623567,34.7134768 43.6925053,34.3202641 C44.3429925,33.914883 44.9494997,33.4531796 45.4932528,32.9127293 C46.0420471,32.3667164 46.4962756,31.7318743 46.8927912,31.0690448 C47.0652346,30.7818709 47.2322892,30.4919156 47.3918689,30.197093 C47.5582281,29.8895804 47.7252827,29.5806772 47.8624378,29.2580411 C48.0268849,28.8696958 48.1722102,28.4832625 48.2848547,28.0771861 C48.3745531,27.7505518 48.4329613,27.4185287 48.4797227,27.0837242 C48.536045,26.678343 48.5673351,26.2783508 48.5633369,25.8696668 C48.5584696,25.4615043 48.4736385,25.0472576 48.3656875,24.6556094 C48.2773798,24.33645 48.1381387,24.0287636 48.0105445,23.7238586 C47.8577443,23.3612407 47.7138096,22.989931 47.5318053,22.6408721 C47.461924,22.5070199 47.38648,22.3787303 47.3002583,22.2558296 C47.1535423,22.0467072 47.0021328,21.8843461 46.8011806,21.7308506 C46.5743271,21.5577118 46.2110138,21.5109505 45.9712966,21.6887828 C45.8640409,21.7682249 45.7785146,21.8490578 45.6862087,21.9427544 C45.4810844,22.1518768 45.2773508,22.3637806 45.0703144,22.5715123 C44.8420703,22.8016687 44.5922706,23.0116603 44.3422972,23.2180014 C43.8100172,23.6579755 43.2586154,24.0743082 42.7303336,24.5203665 C42.1789318,24.9862419 41.6478686,25.4771494 41.1081137,25.9572792 C40.3653206,26.6183703 39.6486026,27.313359 38.8698258,27.9335991 C38.73128,28.0330322 38.5916912,28.1315962 38.4442799,28.2167749 C38.3862193,28.2016513 38.3285064,28.1853109 38.2711411,28.1701873 C38.0639309,28.1159511 37.8582851,28.0589335 37.6510749,28.0045234 C37.2150989,27.8911836 36.7704313,27.8157396 36.3309787,27.7166541 C35.8944812,27.618264 35.4645895,27.4979708 35.0388698,27.3601204 C34.6194081,27.2247036 34.1895164,27.1113638 33.7757912,26.9589113 C33.7274653,26.9345745 33.6803563,26.9084994 33.6346379,26.8791214 C33.5275561,26.7882062 33.4223865,26.6929451 33.3257347,26.5910783 C33.3224318,26.585168 33.3193028,26.5790838 33.3161738,26.5729996 C33.2598516,26.4236761 33.2103088,26.2712236 33.1694578,26.1175542 C33.1164384,25.9159067 33.0832361,25.7086964 33.0472525,25.5035722 C32.9678103,25.052125 32.8895849,24.5991133 32.8026679,24.1483615 C32.7164462,23.6960452 32.606583,23.251899 32.4767289,22.8098389 C32.3590432,22.4056746 32.1965084,22.0103758 32.1207167,21.5947385 C32.1007258,21.321819 32.114111,21.0471611 32.1452273,20.774763 C32.154962,20.7160071 32.1662612,20.6581204 32.1819063,20.6009289 C32.3486132,20.3984122 32.525924,20.2031965 32.6974982,20.0048518 C32.9311313,19.7345398 33.1680672,19.4677044 33.395616,19.1920035 C33.8234217,18.6738041 34.2986842,18.1978463 34.7510005,17.7008546 C35.2113132,17.194302 35.6641511,16.6788839 36.1103832,16.1594676 C36.33376,15.8992379 36.5531387,15.6358793 36.7723435,15.3716514 C36.8410079,15.2896017 36.9048051,15.20338 36.9692975,15.1176798 C36.997111,15.0804793 37.0181449,15.0410189 37.0372666,14.9989511 C37.1064526,14.8447602 37.1031498,14.8487584 37.124879,14.680487 C37.1485205,14.5017856 37.03379,14.2608515 36.88916,14.1487285 C36.7683453,14.0550319 36.6692598,13.9884534 36.517155,13.9484716 C36.4178957,13.921875 36.3120308,13.9138786 36.2094686,13.9097066 C36.0881324,13.9053607 35.9690561,13.8996242 35.8492844,13.8869343 C35.5464654,13.8394776 35.2445155,13.7779403 34.937003,13.7779403 C34.5764711,13.7779403 34.219242,13.813924 33.8620129,13.8622499" id="Fill-1" fill="#009BA6"></path>
        </g>
    </g>
</svg>