<?xml version="1.0" encoding="UTF-8"?>
<svg width="182px" height="182px" viewBox="0 0 182 182" version="1.1" xmlns="http://www.w3.org/2000/svg" xmlns:xlink="http://www.w3.org/1999/xlink">
    <!-- Generator: Sketch 47 (45396) - http://www.bohemiancoding.com/sketch -->
    <title>page-icon--tool</title>
    <desc>Created with Sketch.</desc>
    <defs></defs>
    <g id="Wireframes" stroke="none" stroke-width="1" fill="none" fill-rule="evenodd">
        <g id="page-icon--tool" transform="translate(0.290082, 0.500000)">
            <circle id="Oval" fill="#FFFFFF" cx="90.4117173" cy="90.417217" r="90.3760365"></circle>
            <path d="M78.216,109.918067 L70.648,109.918067 C70.312,109.918067 70.168,110.158067 70.168,110.718067 L70.168,111.214067 C70.168,111.774067 70.312,112.014067 70.648,112.014067 L73.192,112.014067 L73.192,120.638067 C73.192,120.974067 73.48,121.150067 74.152,121.150067 L74.712,121.150067 C75.384,121.150067 75.672,120.974067 75.672,120.638067 L75.672,112.014067 L78.216,112.014067 C78.552,112.014067 78.696,111.774067 78.696,111.214067 L78.696,110.718067 C78.696,110.158067 78.552,109.918067 78.216,109.918067 Z M84.68,109.790067 C87.976,109.790067 89.8,111.822067 89.8,115.518067 C89.8,119.214067 87.976,121.246067 84.68,121.246067 C81.384,121.246067 79.544,119.214067 79.544,115.518067 C79.544,111.822067 81.384,109.790067 84.68,109.790067 Z M84.68,111.902067 C82.968,111.902067 82.072,113.166067 82.072,115.518067 C82.072,117.870067 82.968,119.150067 84.68,119.150067 C86.392,119.150067 87.272,117.870067 87.272,115.518067 C87.272,113.166067 86.392,111.902067 84.68,111.902067 Z M96.376,109.790067 C99.672,109.790067 101.496,111.822067 101.496,115.518067 C101.496,119.214067 99.672,121.246067 96.376,121.246067 C93.08,121.246067 91.24,119.214067 91.24,115.518067 C91.24,111.822067 93.08,109.790067 96.376,109.790067 Z M96.376,111.902067 C94.664,111.902067 93.768,113.166067 93.768,115.518067 C93.768,117.870067 94.664,119.150067 96.376,119.150067 C98.088,119.150067 98.968,117.870067 98.968,115.518067 C98.968,113.166067 98.088,111.902067 96.376,111.902067 Z M104.824,109.886067 L104.28,109.886067 C103.608,109.886067 103.32,110.062067 103.32,110.398067 L103.32,120.478067 C103.32,120.926067 103.512,121.118067 103.96,121.118067 L109.352,121.118067 C109.688,121.118067 109.832,120.878067 109.832,120.318067 L109.832,119.822067 C109.832,119.262067 109.688,119.022067 109.352,119.022067 L105.784,119.022067 L105.784,110.398067 C105.784,110.062067 105.496,109.886067 104.824,109.886067 Z" id="TOOL" fill="#029CA6"></path>
            <path d="M133.326335,61.0426408 C135.432651,63.1489573 137.197403,67.3615904 137.197403,70.3787464 L137.197403,135.959196 C137.197403,138.976352 134.749521,141.424233 131.732365,141.424233 L55.2218413,141.424233 C52.2046852,141.424233 49.7568039,138.976352 49.7568039,135.959196 L49.7568039,44.8752384 C49.7568039,41.8580824 52.2046852,39.410201 55.2218413,39.410201 L106.228857,39.410201 C109.246013,39.410201 113.458646,41.1749527 115.564963,43.2812692 L133.326335,61.0426408 Z M108.050536,47.1523374 L108.050536,68.5570673 L129.455266,68.5570673 C129.113702,67.5893003 128.601354,66.6215332 128.202862,66.2230409 L110.384563,48.4047418 C109.986071,48.0062495 109.018303,47.4939022 108.050536,47.1523374 Z M129.910686,134.137516 L129.910686,75.8437839 L106.228857,75.8437839 C103.211701,75.8437839 100.76382,73.3959025 100.76382,70.3787464 L100.76382,46.6969176 L57.0435204,46.6969176 L57.0435204,134.137516 L129.910686,134.137516 Z" id="" fill="#029CA6"></path>
        </g>
    </g>
</svg>