<?xml version="1.0" encoding="UTF-8"?>
<svg width="181px" height="182px" viewBox="0 0 181 182" version="1.1" xmlns="http://www.w3.org/2000/svg" xmlns:xlink="http://www.w3.org/1999/xlink">
    <!-- Generator: Sketch 47 (45396) - http://www.bohemiancoding.com/sketch -->
    <title>page-icon--fact-sheet</title>
    <desc>Created with Sketch.</desc>
    <defs></defs>
    <g id="Wireframes" stroke="none" stroke-width="1" fill="none" fill-rule="evenodd">
        <g id="page-icon--fact-sheet" transform="translate(0.009449, 0.500000)">
            <circle id="Oval" fill="#FFFFFF" cx="90.4117173" cy="90.417217" r="90.3760365"></circle>
            <path d="M75.1797188,88.3 L69.8357188,88.3 C69.3877188,88.3 69.1957188,88.492 69.1957188,88.94 L69.1957188,99.02 C69.1957188,99.356 69.4837188,99.532 70.1557188,99.532 L70.6997188,99.532 C71.3717188,99.532 71.6597188,99.356 71.6597188,99.02 L71.6597188,94.828 L75.0677188,94.828 C75.4037188,94.828 75.5477188,94.588 75.5477188,94.028 L75.5477188,93.532 C75.5477188,92.972 75.4037188,92.732 75.0677188,92.732 L71.6597188,92.732 L71.6597188,90.396 L75.1797188,90.396 C75.5157188,90.396 75.6597188,90.156 75.6597188,89.596 L75.6597188,89.1 C75.6597188,88.54 75.5157188,88.3 75.1797188,88.3 Z M81.4677188,88.268 C81.9317188,88.268 82.2837188,88.348 82.3797188,88.604 L85.8997188,98.892 C85.9317188,99.004 85.9477188,99.1 85.9477188,99.18 C85.9477188,99.404 85.7077188,99.532 85.1477188,99.532 L84.4437188,99.532 C83.9797188,99.532 83.6277188,99.452 83.5477188,99.196 L82.9077188,97.244 L79.1317188,97.244 L78.4917188,99.196 C78.4117188,99.436 78.1397188,99.532 77.7557188,99.532 L77.1157188,99.532 C76.4437188,99.532 76.1397188,99.404 76.1397188,99.18 C76.1397188,99.1 76.1717188,99.004 76.2037188,98.892 L79.7237188,88.604 C79.8197188,88.348 80.1717188,88.268 80.6357188,88.268 L81.4677188,88.268 Z M81.0677188,91.26 L81.0037188,91.26 C80.9397188,91.596 80.8917188,91.948 80.7637188,92.284 L79.8197188,95.132 L82.2197188,95.132 L81.3077188,92.284 C81.1957188,91.948 81.1317188,91.596 81.0677188,91.26 Z M92.0117188,88.172 C88.4597188,88.172 86.6677188,90.06 86.6677188,93.868 C86.6677188,97.82 88.3477188,99.628 91.9317188,99.628 C93.2117188,99.628 95.4997188,99.244 95.4997188,98.284 C95.4997188,98.012 95.0677188,96.892 94.5557188,96.892 C94.3157188,96.892 93.4517188,97.532 91.9317188,97.532 C90.0917188,97.532 89.1957188,96.284 89.1957188,93.884 C89.1957188,91.484 90.0757188,90.284 91.9637188,90.284 C93.4837188,90.284 94.1237188,90.796 94.3157188,90.796 C94.7157188,90.796 95.3557188,89.74 95.3557188,89.292 C95.3557188,88.62 93.4197188,88.172 92.0117188,88.172 Z M104.027719,88.3 L96.4597188,88.3 C96.1237188,88.3 95.9797188,88.54 95.9797188,89.1 L95.9797188,89.596 C95.9797188,90.156 96.1237188,90.396 96.4597188,90.396 L99.0037188,90.396 L99.0037188,99.02 C99.0037188,99.356 99.2917188,99.532 99.9637188,99.532 L100.523719,99.532 C101.195719,99.532 101.483719,99.356 101.483719,99.02 L101.483719,90.396 L104.027719,90.396 C104.363719,90.396 104.507719,90.156 104.507719,89.596 L104.507719,89.1 C104.507719,88.54 104.363719,88.3 104.027719,88.3 Z M72.4597188,108.172 C70.5877188,108.172 68.6677188,109.1 68.6677188,111.404 C68.6677188,113.324 69.7237188,114.092 70.8277188,114.62 C72.0277188,115.18 73.2917188,115.452 73.2917188,116.412 C73.2917188,117.324 72.4757188,117.532 71.7877188,117.532 C70.5077188,117.532 69.7237188,116.796 69.4357188,116.796 C69.0997188,116.796 68.4437188,117.724 68.4437188,118.22 C68.4437188,118.764 69.7717188,119.628 72.2037188,119.628 C73.9477188,119.628 75.8197188,118.732 75.8197188,116.124 C75.8197188,113.948 74.2197188,113.292 72.9077188,112.748 C71.9797188,112.38 71.1957188,112.06 71.1957188,111.18 C71.1957188,110.812 71.4357188,110.284 72.6837188,110.284 C73.7557188,110.284 74.2517188,110.684 74.4597188,110.684 C74.8437188,110.684 75.3397188,109.724 75.3397188,109.292 C75.3397188,108.764 74.1557188,108.172 72.4597188,108.172 Z M85.7557188,108.268 L85.1957188,108.268 C84.5237188,108.268 84.2357188,108.444 84.2357188,108.78 L84.2357188,112.732 L79.9157188,112.732 L79.9157188,108.78 C79.9157188,108.444 79.6277188,108.268 78.9557188,108.268 L78.3957188,108.268 C77.7237188,108.268 77.4357188,108.444 77.4357188,108.78 L77.4357188,119.02 C77.4357188,119.356 77.7237188,119.532 78.3957188,119.532 L78.9557188,119.532 C79.6277188,119.532 79.9157188,119.356 79.9157188,119.02 L79.9157188,114.844 L84.2357188,114.844 L84.2357188,119.02 C84.2357188,119.356 84.5237188,119.532 85.1957188,119.532 L85.7557188,119.532 C86.4277188,119.532 86.7157188,119.356 86.7157188,119.02 L86.7157188,108.78 C86.7157188,108.444 86.4277188,108.268 85.7557188,108.268 Z M95.4197188,108.3 L89.5637188,108.3 C89.1157188,108.3 88.9237188,108.492 88.9237188,108.94 L88.9237188,118.86 C88.9237188,119.308 89.1157188,119.5 89.5637188,119.5 L95.4357188,119.5 C95.7717188,119.5 95.9157188,119.26 95.9157188,118.7 L95.9157188,118.204 C95.9157188,117.644 95.7717188,117.404 95.4357188,117.404 L91.3877188,117.404 L91.3877188,114.812 L94.9877188,114.812 C95.3237188,114.812 95.4677188,114.572 95.4677188,114.012 L95.4677188,113.516 C95.4677188,112.956 95.3237188,112.716 94.9877188,112.716 L91.3877188,112.716 L91.3877188,110.396 L95.4197188,110.396 C95.7557188,110.396 95.8997188,110.156 95.8997188,109.596 L95.8997188,109.1 C95.8997188,108.54 95.7557188,108.3 95.4197188,108.3 Z M104.155719,108.3 L98.2997188,108.3 C97.8517188,108.3 97.6597188,108.492 97.6597188,108.94 L97.6597188,118.86 C97.6597188,119.308 97.8517188,119.5 98.2997188,119.5 L104.171719,119.5 C104.507719,119.5 104.651719,119.26 104.651719,118.7 L104.651719,118.204 C104.651719,117.644 104.507719,117.404 104.171719,117.404 L100.123719,117.404 L100.123719,114.812 L103.723719,114.812 C104.059719,114.812 104.203719,114.572 104.203719,114.012 L104.203719,113.516 C104.203719,112.956 104.059719,112.716 103.723719,112.716 L100.123719,112.716 L100.123719,110.396 L104.155719,110.396 C104.491719,110.396 104.635719,110.156 104.635719,109.596 L104.635719,109.1 C104.635719,108.54 104.491719,108.3 104.155719,108.3 Z M113.467719,108.3 L105.899719,108.3 C105.563719,108.3 105.419719,108.54 105.419719,109.1 L105.419719,109.596 C105.419719,110.156 105.563719,110.396 105.899719,110.396 L108.443719,110.396 L108.443719,119.02 C108.443719,119.356 108.731719,119.532 109.403719,119.532 L109.963719,119.532 C110.635719,119.532 110.923719,119.356 110.923719,119.02 L110.923719,110.396 L113.467719,110.396 C113.803719,110.396 113.947719,110.156 113.947719,109.596 L113.947719,109.1 C113.947719,108.54 113.803719,108.3 113.467719,108.3 Z" id="FACT-SHEET-Copy" fill="#029CA6"></path>
            <path d="M133.326335,61.0426408 C135.432651,63.1489573 137.197403,67.3615904 137.197403,70.3787464 L137.197403,135.959196 C137.197403,138.976352 134.749521,141.424233 131.732365,141.424233 L55.2218413,141.424233 C52.2046852,141.424233 49.7568039,138.976352 49.7568039,135.959196 L49.7568039,44.8752384 C49.7568039,41.8580824 52.2046852,39.410201 55.2218413,39.410201 L106.228857,39.410201 C109.246013,39.410201 113.458646,41.1749527 115.564963,43.2812692 L133.326335,61.0426408 Z M108.050536,47.1523374 L108.050536,68.5570673 L129.455266,68.5570673 C129.113702,67.5893003 128.601354,66.6215332 128.202862,66.2230409 L110.384563,48.4047418 C109.986071,48.0062495 109.018303,47.4939022 108.050536,47.1523374 Z M129.910686,134.137516 L129.910686,75.8437839 L106.228857,75.8437839 C103.211701,75.8437839 100.76382,73.3959025 100.76382,70.3787464 L100.76382,46.6969176 L57.0435204,46.6969176 L57.0435204,134.137516 L129.910686,134.137516 Z" id="" fill="#029CA6"></path>
        </g>
    </g>
</svg>