<?xml version="1.0" encoding="UTF-8"?>
<svg width="182px" height="182px" viewBox="0 0 182 182" version="1.1" xmlns="http://www.w3.org/2000/svg" xmlns:xlink="http://www.w3.org/1999/xlink">
    <!-- Generator: Sketch 47 (45396) - http://www.bohemiancoding.com/sketch -->
    <title>page-icon--how-tos</title>
    <desc>Created with Sketch.</desc>
    <defs></defs>
    <g id="Wireframes" stroke="none" stroke-width="1" fill="none" fill-rule="evenodd">
        <g id="page-icon--how-tos" transform="translate(0.601168, 0.500000)">
            <circle id="Oval" fill="#FFFFFF" cx="90.4117173" cy="90.417217" r="90.3760365"></circle>
            <path d="M133.326335,61.0426408 C135.432651,63.1489573 137.197403,67.3615904 137.197403,70.3787464 L137.197403,135.959196 C137.197403,138.976352 134.749521,141.424233 131.732365,141.424233 L55.2218413,141.424233 C52.2046852,141.424233 49.7568039,138.976352 49.7568039,135.959196 L49.7568039,44.8752384 C49.7568039,41.8580824 52.2046852,39.410201 55.2218413,39.410201 L106.228857,39.410201 C109.246013,39.410201 113.458646,41.1749527 115.564963,43.2812692 L133.326335,61.0426408 Z M108.050536,47.1523374 L108.050536,68.5570673 L129.455266,68.5570673 C129.113702,67.5893003 128.601354,66.6215332 128.202862,66.2230409 L110.384563,48.4047418 C109.986071,48.0062495 109.018303,47.4939022 108.050536,47.1523374 Z M129.910686,134.137516 L129.910686,75.8437839 L106.228857,75.8437839 C103.211701,75.8437839 100.76382,73.3959025 100.76382,70.3787464 L100.76382,46.6969176 L57.0435204,46.6969176 L57.0435204,134.137516 L129.910686,134.137516 Z" id="" fill="#029CA6"></path>
            <path d="M70.0349841,115.272899 L69.4273959,115.272899 C68.69829,115.272899 68.3858161,115.463855 68.3858161,115.828408 L68.3858161,120.116245 L63.6987069,120.116245 L63.6987069,115.828408 C63.6987069,115.463855 63.3862329,115.272899 62.657127,115.272899 L62.0495388,115.272899 C61.3204329,115.272899 61.007959,115.463855 61.007959,115.828408 L61.007959,126.938593 C61.007959,127.303146 61.3204329,127.494102 62.0495388,127.494102 L62.657127,127.494102 C63.3862329,127.494102 63.6987069,127.303146 63.6987069,126.938593 L63.6987069,122.40772 L68.3858161,122.40772 L68.3858161,126.938593 C68.3858161,127.303146 68.69829,127.494102 69.4273959,127.494102 L70.0349841,127.494102 C70.76409,127.494102 71.076564,127.303146 71.076564,126.938593 L71.076564,115.828408 C71.076564,115.463855 70.76409,115.272899 70.0349841,115.272899 Z M77.2218849,118.241401 C79.9820715,118.241401 81.4229236,119.890569 81.4229236,122.911151 C81.4229236,125.931732 79.9820715,127.59826 77.2218849,127.59826 C74.4616984,127.59826 73.0034866,125.931732 73.0034866,122.911151 C73.0034866,119.890569 74.4616984,118.241401 77.2218849,118.241401 Z M77.2218849,120.272482 C76.1108665,120.272482 75.6074362,121.175184 75.6074362,122.911151 C75.6074362,124.647117 76.1108665,125.567179 77.2218849,125.567179 C78.3329034,125.567179 78.818974,124.647117 78.818974,122.911151 C78.818974,121.175184 78.3329034,120.272482 77.2218849,120.272482 Z M93.6441269,118.345559 C93.019179,118.345559 92.6893454,118.467077 92.6199067,118.710112 L91.4220899,123.293063 L91.213774,124.056888 C91.161695,123.813853 91.0922563,123.588177 91.0401773,123.345142 L89.9291588,118.710112 C89.8770798,118.467077 89.4604479,118.345559 88.9743773,118.345559 L88.5577454,118.345559 C88.0022362,118.345559 87.6550429,118.467077 87.6029639,118.710112 L86.4919454,123.240984 C86.4225068,123.518739 86.3530681,123.779134 86.2836294,124.056888 L86.0926731,123.293063 L84.912216,118.710112 C84.8427774,118.449717 84.4782244,118.345559 83.5408026,118.345559 C82.794337,118.345559 82.4645034,118.519156 82.4645034,118.79691 C82.4645034,118.866349 82.4645034,118.953147 82.4992227,119.057305 L84.6865404,127.129549 C84.755979,127.372584 85.068453,127.494102 85.6413219,127.494102 L86.4919454,127.494102 C86.978016,127.494102 87.3946479,127.372584 87.4467269,127.129549 L88.4362278,123.015309 L88.6271841,122.251483 C88.6966227,122.494519 88.7487017,122.754914 88.8181404,122.997949 L89.8770798,127.129549 C89.9465185,127.372584 90.2763521,127.494102 90.8318614,127.494102 L91.6824849,127.494102 C92.1685555,127.494102 92.5678277,127.372584 92.6372664,127.129549 L94.6857067,119.057305 C94.7030664,118.953147 94.720426,118.866349 94.720426,118.79691 C94.720426,118.519156 94.3905924,118.345559 93.6441269,118.345559 Z M99.6679302,121.92165 L96.1265588,121.92165 C95.7620059,121.92165 95.6057689,122.182045 95.6057689,122.789633 L95.6057689,122.911151 C95.6057689,123.518739 95.7620059,123.779134 96.1265588,123.779134 L99.6679302,123.779134 C100.032483,123.779134 100.18872,123.518739 100.18872,122.911151 L100.18872,122.789633 C100.18872,122.182045 100.032483,121.92165 99.6679302,121.92165 Z M103.712732,116.175601 L103.174582,116.175601 C102.601713,116.175601 102.289239,116.366557 102.23716,116.73111 L102.011485,118.380278 L101.73373,118.380278 C101.369177,118.380278 101.21294,118.640673 101.21294,119.248262 L101.21294,119.543376 C101.21294,120.150964 101.369177,120.411359 101.73373,120.411359 L102.011485,120.411359 L102.011485,124.785994 C102.011485,126.712917 102.914187,127.59826 104.545996,127.59826 C105.084145,127.59826 106.212523,127.546181 106.212523,126.747636 C106.212523,126.608759 106.021567,125.49774 105.674374,125.49774 C105.570216,125.49774 105.3619,125.567179 105.205663,125.567179 C104.754312,125.567179 104.580715,125.341504 104.580715,124.820714 L104.580715,120.411359 L105.431339,120.411359 C105.795892,120.411359 105.952129,120.150964 105.952129,119.543376 L105.952129,119.248262 C105.952129,118.640673 105.795892,118.380278 105.431339,118.380278 L104.580715,118.380278 L104.580715,116.73111 C104.580715,116.366557 104.32032,116.175601 103.712732,116.175601 Z M111.5593,118.241401 C114.319486,118.241401 115.760339,119.890569 115.760339,122.911151 C115.760339,125.931732 114.319486,127.59826 111.5593,127.59826 C108.799113,127.59826 107.340902,125.931732 107.340902,122.911151 C107.340902,119.890569 108.799113,118.241401 111.5593,118.241401 Z M111.5593,120.272482 C110.448281,120.272482 109.944851,121.175184 109.944851,122.911151 C109.944851,124.647117 110.448281,125.567179 111.5593,125.567179 C112.670318,125.567179 113.156389,124.647117 113.156389,122.911151 C113.156389,121.175184 112.670318,120.272482 111.5593,120.272482 Z M118.954517,114.318117 L118.624683,114.318117 C117.895577,114.318117 117.583103,114.613231 117.583103,115.081942 C117.583103,116.852628 117.166471,117.720611 116.940796,118.27612 C116.871357,118.484436 116.819278,118.640673 116.819278,118.779551 C116.819278,119.057305 117.287989,119.161463 117.600463,119.161463 C118.364288,119.161463 119.996097,117.026225 119.996097,115.081942 C119.996097,114.647951 119.683623,114.318117 118.954517,114.318117 Z M124.075618,118.241401 C122.148695,118.241401 120.916159,119.282981 120.916159,121.088386 C120.916159,122.824352 122.044537,123.362502 122.89516,123.692335 C123.676345,124.004809 124.388091,124.178406 124.388091,124.838073 C124.388091,125.306784 124.040898,125.567179 123.381231,125.567179 C122.461169,125.567179 121.8883,125.081109 121.627905,125.081109 C121.280712,125.081109 120.707843,125.966451 120.707843,126.417803 C120.707843,127.164268 122.287572,127.59826 123.589547,127.59826 C125.759505,127.59826 126.992041,126.400443 126.992041,124.629757 C126.992041,123.258344 126.262935,122.616036 125.48175,122.234124 C124.561688,121.800132 123.520108,121.626535 123.520108,120.86271 C123.520108,120.428719 123.867302,120.255122 124.44017,120.255122 C125.256075,120.255122 125.742145,120.619675 125.933102,120.619675 C126.262935,120.619675 126.679567,119.630174 126.679567,119.248262 C126.679567,118.519156 125.082478,118.241401 124.075618,118.241401 Z" id="How-to’s" fill="#029CA6"></path>
        </g>
    </g>
</svg>