<?xml version="1.0" encoding="UTF-8"?>
<svg width="181px" height="182px" viewBox="0 0 181 182" version="1.1" xmlns="http://www.w3.org/2000/svg" xmlns:xlink="http://www.w3.org/1999/xlink">
    <!-- Generator: Sketch 47 (45396) - http://www.bohemiancoding.com/sketch -->
    <title>page-icon--tag</title>
    <desc>Created with Sketch.</desc>
    <defs>
        <polygon id="path-1" points="92.5517115 0.609867105 92.5517115 70.1415017 0.000354443544 70.1415017 0.000354443544 0.609867105 92.5517115 0.609867105"></polygon>
    </defs>
    <g id="Wireframes" stroke="none" stroke-width="1" fill="none" fill-rule="evenodd">
        <g id="page-icon--tag" transform="translate(0.000000, 0.750000)">
            <circle id="Oval" fill="#FFFFFF" cx="90.4117173" cy="90.417217" r="90.3760365"></circle>
            <g id="Page-1" transform="translate(43.500000, 38.660786)">
                <g id="Group-3" transform="translate(0.000000, 0.895574)">
                    <mask id="mask-2" fill="white">
                        <use xlink:href="#path-1"></use>
                    </mask>
                    <g id="Clip-2"></g>
                    <path d="M44.1317803,60.7142333 C44.0741641,60.7543142 44.0115378,60.789385 43.9514165,60.8294658 C44.0115378,60.789385 44.071659,60.7543142 44.1317803,60.7142333 M59.7783453,4.72628469 C60.7553162,4.83400199 61.7297821,4.92668898 62.7092581,5.02188101 C64.7383515,5.21226509 66.7298691,5.59804335 68.731407,5.96127613 C70.7279347,6.32200385 72.7369877,6.61008502 74.7360205,6.96830769 C76.6523866,7.31400509 78.5537223,7.75489453 80.4826136,8.05299591 C81.9605952,8.27845073 83.446092,8.42123879 84.9165585,8.68426942 C85.5703775,8.79950189 86.2166813,8.94730005 86.8654902,9.08758306 C87.4241172,9.20532058 87.9877542,9.31303788 88.5438762,9.43578551 C88.3234314,10.2123521 88.0278351,10.9638682 87.7372489,11.7203944 C87.369006,12.6848401 87.0107833,13.6517908 86.6600758,14.6237516 C85.9887214,16.5025418 85.362458,18.3963624 84.8213665,20.3152334 C84.2652446,22.2842056 83.7817692,24.2732182 83.2331625,26.2446954 C82.7045961,28.1385159 82.2361511,30.0423567 81.7326353,31.9436924 C81.5622917,32.5849861 81.3819278,33.2212697 81.1915437,33.8575534 C81.0838264,34.2107659 80.9911395,34.5714936 80.8483514,34.9121809 C80.78322,35.0023629 80.7130785,35.0900397 80.6379269,35.1777166 C79.801239,35.9743237 78.8317832,36.6381629 77.8923881,37.3045072 C76.9329526,37.9883868 75.9509715,38.6346906 74.9564653,39.2634591 C71.3541981,41.362694 67.5615469,43.091181 63.9091787,45.1027391 C62.0454188,46.124801 60.229255,47.2295296 58.3730102,48.2666218 C56.6595535,49.2210473 54.953612,50.1829879 53.2401553,51.1349083 C51.030698,52.3598795 48.8112205,53.5648103 46.6117834,54.8073169 C45.4744891,55.4461056 44.3396998,56.0899043 43.2124256,56.7487334 C42.0851515,57.4050575 40.9829279,58.1064725 39.8807043,58.8003724 C38.4603389,59.6671209 37.0074078,60.466233 35.5469615,61.2678502 C33.978798,62.1220735 32.4832809,63.1040545 30.9677235,64.0534698 C29.5724086,64.8801375 28.1219826,65.6216334 26.5863847,66.1527048 C26.4260613,66.1952907 26.2607277,66.2253513 26.0953942,66.2478968 C26.0553133,66.2453918 26.0177375,66.2403817 25.9801617,66.2353715 C25.9225455,66.1952907 25.8724444,66.1527048 25.8173332,66.1076138 C25.3538983,65.6291486 24.9105038,65.1306429 24.4420588,64.6521777 C23.938543,64.1486619 23.4124817,63.6701966 22.8914306,63.1842162 C22.1298943,62.4076496 21.4259742,61.5884971 20.7821754,60.7067182 C20.1358716,59.8149191 19.5146183,58.9030796 18.893365,57.9937451 C17.6258079,56.1299852 16.3081496,54.3038011 15.0856835,52.4099806 C14.5796626,51.5407269 14.0986923,50.6614531 13.6377625,49.767149 C13.1918629,48.8953903 12.7785291,48.0111064 12.3426497,47.1343376 C11.4032546,45.2480322 10.4463241,43.3642319 9.411737,41.5280276 C8.44228124,39.8020456 7.35759302,38.1411951 6.43573328,36.3926676 C5.98231858,35.5259191 5.53892408,34.6566655 5.15815593,33.7548462 C4.94522637,33.2488253 4.74732714,32.7402994 4.55193295,32.2292685 C4.93520616,32.0213491 5.31847936,31.8234498 5.69674246,31.6205405 C6.41819791,31.2322572 7.12211798,30.8139132 7.82102794,30.3930642 C9.12115078,29.6064774 10.4237787,28.8274057 11.7765076,28.1259907 C13.3797419,27.2943128 14.967946,26.4450997 16.4835034,25.4631186 C17.7811212,24.6214206 19.0687187,23.7596822 20.3763567,22.9254993 C22.0472275,21.9259829 23.750664,20.994103 25.4891712,20.107314 C27.3078401,19.1829492 29.1315192,18.2686046 30.9151174,17.2766034 C32.7688571,16.2470263 34.6426372,15.2650453 36.5289426,14.3056098 C38.3526216,13.3737298 40.1687855,12.4243145 42.0049898,11.51498 C43.2324661,10.908757 44.4574373,10.3025341 45.6723883,9.67877571 C46.7896422,9.10762349 47.8893608,8.51142072 49.0066147,7.9452786 C50.143909,7.36410616 51.2837084,6.79295393 52.4385382,6.24685224 C53.5332466,5.73081119 54.6304601,5.20725498 55.7802797,4.81897167 C56.3038359,4.67117351 56.8374123,4.54592082 57.381009,4.49581975 C58.1801211,4.51085007 58.9842433,4.63860781 59.7783453,4.72628469 M61.5569334,0.9762194 C60.8555184,0.908582952 60.1515983,0.843451558 59.4501833,0.760784788 C58.4757174,0.655572535 57.4987465,0.537835015 56.5192705,0.66559275 C55.5773704,0.793350485 54.6304601,1.07642155 53.7486812,1.40959368 C51.8849213,2.10599859 50.1013231,3.03036338 48.3252401,3.91464731 C46.5266116,4.81145651 44.7730741,5.78341732 42.9769506,6.67772146 C41.1131907,7.60459131 39.2494308,8.52144094 37.3981962,9.47085626 C35.4642948,10.4653626 33.5228782,11.4473436 31.598997,12.4643954 C29.8279241,13.3987804 28.1019421,14.4133271 26.3158389,15.3176514 C24.2516747,16.3622588 22.1749852,17.3793106 20.1734474,18.5366454 C18.0942529,19.736566 16.1102504,21.0717596 14.1037024,22.3793976 C13.0616001,23.0131762 12.0044675,23.609379 10.9222843,24.1755211 C9.85262644,24.734148 8.78797864,25.2852598 7.75339149,25.9040081 C6.64866284,26.5653422 5.56146957,27.2517269 4.43419543,27.8704752 C3.89310385,28.1685766 3.339487,28.4516476 2.7933853,28.749749 C2.6205366,28.844941 2.44518285,28.9451432 2.2748392,29.0478504 C1.90910137,28.985224 1.52081806,29.0253049 1.15257518,29.1931435 C0.205664903,29.6215077 -0.287830662,30.8189233 0.178109313,31.7758538 C0.218190171,31.8560155 0.255765976,31.9411873 0.295846834,32.0238541 C0.333422638,32.1390866 0.378513604,32.2493089 0.438634891,32.3545212 C0.709180683,33.0083402 0.927120349,33.6872097 1.18514087,34.3435338 C1.56590902,35.3054744 1.98425298,36.2473745 2.4476879,37.1717393 C3.33447689,38.9252769 4.38659941,40.5861274 5.36607538,42.2870588 C6.42320802,44.115748 7.39516882,45.9920332 8.34959426,47.8758335 C9.25642367,49.6619367 10.0580408,51.5081612 11.0725876,53.2366483 C12.543054,55.746712 14.2489956,58.083927 15.8822905,60.4837684 C16.651342,61.6135476 17.4153833,62.7483369 18.2520713,63.828015 C19.1163148,64.9452689 20.1258514,65.9122196 21.1554284,66.8741602 C21.5311865,67.237393 21.8944192,67.6056359 22.2476318,67.9889091 C22.9265013,68.730405 23.6254113,69.5771131 24.6124024,69.900265 C25.291272,70.1232148 25.9200404,70.1833361 26.6314757,70.1156996 C27.207638,70.0580834 27.7712751,69.8601841 28.3123666,69.6698001 C29.4145902,69.2790117 30.479238,68.778001 31.5113201,68.2293942 C32.6987156,67.6006258 33.8234846,66.8415945 34.9557689,66.1226441 C36.3535888,65.273431 37.7839744,64.4943593 39.211855,63.6952472 C40.7649882,62.8310037 42.2705255,61.8765782 43.7785678,60.9346781 C47.3758248,58.7653016 51.0807991,56.7838042 54.7532077,54.7446905 C56.4766846,53.7927702 58.1901413,52.8258195 59.9136182,51.8638789 C61.7573377,50.8368069 63.5634813,49.7345833 65.4122109,48.7175315 C69.1297105,46.6734077 72.9925032,44.9173651 76.6523866,42.7705342 C78.4760656,41.6958662 80.222088,40.4759051 81.9079891,39.2008328 C82.6945759,38.607135 83.4986981,37.950811 84.0598302,37.1316585 C84.5382954,36.4352535 84.7286795,35.6110909 84.9666596,34.8144838 C85.5127613,33.0058351 85.9185799,31.1571055 86.4095705,29.3384366 C86.9381368,27.3844948 87.4692081,25.4405732 87.9827441,23.4866313 C88.5063003,21.4875985 89.1075132,19.5161213 89.7713524,17.5571694 C90.4176563,15.6608438 91.1391117,13.7895687 91.8455368,11.9107785 C92.0083653,11.4748992 92.1511534,11.0315047 92.2613757,10.580595 C92.3766082,10.11215 92.4993558,9.65122012 92.5369316,9.17275488 C92.6045681,8.39618826 92.4467497,7.68475302 92.0083653,7.04095424 C91.6426275,6.49986266 90.9988287,6.14665009 90.3976158,5.92871043 C89.8289687,5.72580108 89.2277558,5.60555851 88.6390682,5.48531594 C86.8354296,5.11957811 85.0443162,4.71626447 83.2181321,4.48830459 C81.2266145,4.23779923 79.2651575,3.88959677 77.3011955,3.49880841 C75.2670919,3.09549477 73.2229681,2.75981759 71.1763393,2.42664545 C69.2424379,2.11351375 67.331082,1.69015968 65.3946755,1.40959368 C64.6156039,1.29686626 63.8315221,1.20668433 63.0499453,1.12401756 C62.5539447,1.07141144 62.052934,1.02632047 61.5569334,0.9762194" id="Fill-1" fill="#029CA6" mask="url(#mask-2)"></path>
                </g>
                <path d="M27.5919132,25.998466 C27.4491252,27.9774584 27.4841959,29.9764912 27.5317919,31.9579886 C27.5843981,34.1323752 27.7822973,36.2892263 28.0302976,38.4510876 C28.2657726,40.5027265 28.5964397,42.5443452 28.9045613,44.5909741 C29.2126829,46.6526332 29.5784207,48.699262 29.9817344,50.7458908 C30.2472701,52.0710642 30.5103007,53.3987426 30.9261396,54.6838351 C31.0764428,55.14226 31.5699384,55.5305433 31.9957975,55.6983819 C32.4817779,55.8887659 33.0353948,55.8737356 33.511355,55.658301 C33.9747899,55.4478765 34.3405277,55.0620982 34.5259017,54.5886431 C34.6962453,54.1527638 34.6736998,53.7619754 34.5659825,53.3461365 C34.5709926,53.3661769 34.5760027,53.3862174 34.5835179,53.4037527 L34.5609724,53.3311062 C34.543437,53.2709849 34.5284067,53.2083586 34.5083663,53.1482373 C34.0950324,51.6953062 33.842022,50.1822538 33.558951,48.7017671 C33.2057384,46.8630577 32.9176572,45.0218433 32.6421013,43.1706087 C32.11103,39.6510083 31.6200395,36.1364181 31.4196352,32.5792419 C31.3720391,30.5225929 31.3269482,28.4534186 31.4747463,26.4017796 C31.549898,25.3396369 30.8184223,24.3726862 29.7337341,24.2599588 C28.701652,24.1522415 27.6670648,24.9363233 27.5919132,25.998466" id="Fill-4" fill="#029CA6"></path>
                <path d="M41.6633005,18.568978 C41.6056842,19.0574634 41.5305326,19.5559691 41.5129973,20.0494647 C41.4929568,20.7233241 41.5054821,21.3971835 41.545563,22.0685379 C41.6106944,23.0981149 41.7284319,24.1226819 41.8311391,25.1472488 C42.0365535,27.1963827 42.297079,29.2405064 42.57514,31.2821251 C42.8506959,33.2886731 43.1062114,35.2952211 43.4093229,37.2967589 C43.7249596,39.3634281 44.1533238,41.4000368 44.6869002,43.421615 C44.9749814,44.5188285 45.2655676,45.613537 45.3382142,46.7533364 C45.3682748,47.2318016 45.7365177,47.7303073 46.1072656,48.0058632 C46.5306197,48.3139848 47.0692062,48.4442476 47.5852473,48.3565707 C48.0837529,48.2713989 48.5396727,47.9933379 48.8377741,47.5850142 C49.1734513,47.1265894 49.2260574,46.6531342 49.1884816,46.1070325 C49.1308654,45.2152334 48.9429863,44.3484849 48.7200366,43.4792313 C48.4519958,42.4296138 48.1739349,41.3825014 47.9334497,40.3278738 C47.4875502,38.3589016 47.2019741,36.3548587 46.9264182,34.3558259 C46.3702963,30.2851138 45.8191845,26.2118966 45.4509416,22.1161339 C45.425891,21.8430831 45.4058506,21.5675272 45.3883152,21.2944763 C45.3883152,20.5128996 45.4534466,19.7538683 45.5486387,18.9722916 C45.6763964,17.915159 44.8497287,16.938188 43.8051213,16.8304707 C42.7354634,16.7177433 41.7935633,17.5118453 41.6633005,18.568978" id="Fill-6" fill="#029CA6"></path>
                <path d="M49.4156899,20.8122535 C48.9697904,20.9951224 48.531406,21.1955267 48.0955267,21.395931 C47.1260709,21.8418305 46.1566152,22.2977503 45.1896645,22.751165 C43.2933389,23.6479742 41.3970133,24.5372682 39.470627,25.3714511 C37.4390285,26.2507249 35.3848846,27.0698775 33.3683164,27.9742018 C31.4694857,28.82592 29.6357865,29.8229314 27.8246327,30.8424882 C26.6748131,31.486287 25.5274985,32.1350959 24.3726688,32.7663694 C23.1051117,33.4677844 21.8626051,34.1917449 20.6852299,35.035948 C19.8209864,35.6546962 19.75836,36.9923949 20.4021588,37.7814868 C20.7253107,38.1822954 21.2012709,38.4378108 21.7123018,38.492922 C22.2533934,38.5480332 22.7143233,38.3751845 23.1451925,38.0670629 C23.4858798,37.8215676 23.8315772,37.5835875 24.1797797,37.3556277 C25.8731959,36.3586163 27.606693,35.4317465 29.3176447,34.4647958 C31.108758,33.4527541 32.9274269,32.4507327 34.8062172,31.6115397 C36.852846,30.692185 38.9170102,29.8329516 40.9836794,28.9687081 C42.9175808,28.1645859 44.8063913,27.2552514 46.6977068,26.3584422 C47.5343947,25.9626437 48.3735876,25.5643402 49.2152857,25.178562 C49.9417512,24.8428848 50.6707218,24.4971874 51.4172278,24.201591 C51.8581172,24.2191264 52.3466027,24.011207 52.6647445,23.7531864 C53.0680581,23.4275295 53.3235736,22.9515693 53.3761797,22.4380333 C53.4312909,21.9244973 53.2759776,21.4059512 52.9503206,21.0051426 C52.5996131,20.5717683 52.1662388,20.4089398 51.6376725,20.2962124 C51.5750462,20.2811821 51.5149249,20.273667 51.4522986,20.2661518 C50.7508835,20.1935052 50.0519736,20.5442127 49.4156899,20.8122535" id="Fill-8" fill="#029CA6"></path>
                <path d="M52.0870791,34.9277297 C52.0469983,34.9502752 52.0119275,34.9753257 51.9743517,34.9953661 C52.0119275,34.9753257 52.0469983,34.9502752 52.0870791,34.9277297 M50.9422696,31.0924926 C49.9978644,31.6511195 49.0709946,32.2423122 48.1391146,32.8209796 C46.4557186,33.8330212 44.7447669,34.7949618 43.0162799,35.7243367 C41.1249645,36.7463986 39.2461742,37.7859959 37.3498486,38.7955325 C35.5161494,39.7725034 33.6699248,40.734444 31.8312155,41.6963846 C30.8667698,42.1999004 29.9098393,42.7084263 28.957919,43.2194572 C28.0460794,43.7079427 27.1492702,44.2239837 26.2299156,44.6949338 C25.0124595,45.313682 23.7699529,45.8647938 22.5299513,46.430936 C21.5630006,46.8693203 21.1196062,48.0416854 21.5579905,49.0136463 C21.9963749,49.980597 23.1737501,50.4264965 24.1432059,49.9881121 C25.0550454,49.5697682 25.9894304,49.1940101 26.8812295,48.7405954 C27.8531903,48.2445948 28.8101208,47.7335638 29.7645462,47.2125127 C31.6583668,46.1829356 33.5672176,45.1909344 35.4760685,44.1939231 C39.140962,42.2825671 42.7707847,40.2960596 46.4031125,38.3195723 C48.2768926,37.3050256 50.0805312,36.1777514 51.8841698,35.0529824 C52.1071196,34.9177095 52.3300693,34.7799315 52.5530191,34.6496687 C53.0089389,34.3766179 53.3646565,34.0935468 53.5650608,33.5825159 C53.7554449,33.0965355 53.7404145,32.5404136 53.5249799,32.0644534 C53.3170605,31.6035235 52.9287772,31.2352806 52.4578271,31.0524117 C52.2975036,30.9897854 52.1096246,30.9446944 51.9167355,30.9221489 C51.5735431,30.8895832 51.2103104,30.9296641 50.9422696,31.0924926" id="Fill-10" fill="#029CA6"></path>
                <path d="M73.311647,17.9474741 L73.309142,17.9474741 L73.3141521,17.9474741 L73.311647,17.9474741 Z M71.0120078,21.4695796 C71.0395634,21.4846099 71.067119,21.5021453 71.0946746,21.5171756 C71.067119,21.5021453 71.0370583,21.4871149 71.0095028,21.4695796 L71.0120078,21.4695796 Z M70.9518865,21.4370139 C70.9694219,21.4470341 70.9894623,21.4570543 71.0095028,21.4695796 L71.0069977,21.4695796 C70.9869573,21.4570543 70.9694219,21.4470341 70.9518865,21.4370139 L70.9518865,21.4370139 Z M73.5821928,17.9549893 C73.6974253,17.9975752 73.8101527,18.0426662 73.9228801,18.0952723 C73.9454256,18.1077976 73.9679711,18.125333 73.9905166,18.1403633 C74.0506379,18.2079997 74.1082541,18.2806463 74.1658703,18.3532928 C74.2084562,18.4459798 74.2510422,18.5411719 74.288618,18.6363639 C74.3111634,18.7691317 74.3337089,18.8993945 74.3487392,19.0346674 C74.3412241,19.1774555 74.3236887,19.3227486 74.3036483,19.4655367 C74.2685775,19.5657388 74.2284967,19.6634359 74.1884158,19.761133 C74.0932238,19.901416 73.9930216,20.0391939 73.8853043,20.1719618 C73.634799,20.4049318 73.3667582,20.6128512 73.0836872,20.8082454 C72.7104342,21.0161648 72.3246559,21.1915186 71.9238473,21.3393168 C71.7159279,21.3869128 71.5130185,21.4219835 71.3050991,21.444529 C71.1873616,21.4370139 71.069624,21.4244886 70.9568966,21.4069532 C70.9067956,21.3894178 70.8591995,21.3693774 70.8141086,21.349337 C70.7665126,21.3192763 70.7214216,21.2842056 70.6738256,21.2491348 C70.5786335,21.1439226 70.4909567,21.0362053 70.4057848,20.9209728 C70.3882495,20.883397 70.3707141,20.8433161 70.3531787,20.8032353 C70.3231181,20.6454169 70.2955625,20.4926086 70.2705119,20.3322852 C70.5310375,20.1920022 70.7514822,19.994103 70.9619067,19.7561229 C71.2023919,19.4730518 71.4528972,19.202506 71.7059077,18.9344653 C71.9514029,18.68897 72.2044133,18.4635152 72.4799692,18.2581008 C72.6478078,18.1804441 72.8181515,18.1128077 72.9884951,18.0526864 C73.1788792,18.0075954 73.3642532,17.9775348 73.5596474,17.9524843 C73.5696676,17.9549893 73.5746777,17.9549893 73.5821928,17.9549893 L73.5821928,17.9549893 Z M73.3617481,17.9299388 C73.3467178,17.9374539 73.3291824,17.942464 73.3141521,17.9474741 C73.3316875,17.9449691 73.3492228,17.9449691 73.3642532,17.9449691 C73.3492228,17.9474741 73.3291824,17.9474741 73.309142,17.9474741 C73.2815864,17.9574944 73.2540308,17.9650095 73.2239702,17.9750297 C73.2540308,17.9650095 73.2790813,17.9574944 73.309142,17.9474741 C73.2840915,17.9474741 73.2590409,17.9474741 73.2364954,17.9499792 C73.261546,17.9474741 73.2865965,17.9474741 73.311647,17.9474741 C73.3291824,17.942464 73.3467178,17.9349489 73.3617481,17.9299388 L73.3617481,17.9299388 Z M73.1162529,14.0821764 C72.2895852,14.1448027 71.440372,14.4028233 70.7038862,14.7810864 C70.5861487,14.8437127 70.4734213,14.9088441 70.3631989,14.9764805 C69.9523701,14.8787835 69.4513594,14.8888037 69.1031569,15.0967231 C68.637217,15.3797942 68.1512366,15.6478349 67.7328926,16.0060576 C67.1116393,16.539634 66.7634369,17.3587865 66.5680427,18.1353532 C66.4703456,18.5161213 66.397699,18.8693339 66.3576182,19.2576172 C66.3000019,19.7536178 66.3475979,20.2696589 66.3851738,20.7631544 C66.4252546,21.2265894 66.537982,21.7075597 66.6983055,22.143439 C66.8711542,22.611884 67.1216595,23.0126926 67.3997205,23.4310365 C67.472367,23.5237235 67.5450136,23.6114004 67.6201652,23.6990773 C67.8180644,23.8944715 68.0184687,24.0873606 68.2213781,24.2777447 C68.6322069,24.5983915 69.0781064,24.8413817 69.5540666,25.0518062 C69.9398449,25.2171398 70.4007747,25.2797661 70.8166136,25.3298672 C71.2575031,25.3824733 71.7284531,25.3273621 72.1668375,25.2772611 C72.5250602,25.2346752 72.890798,25.1069174 73.2314853,24.9992001 C73.6222737,24.8764525 73.9905166,24.7236442 74.3662746,24.5457854 C75.0952452,24.1925729 75.7941552,23.7241278 76.390358,23.173016 C77.0141163,22.5918436 77.4625209,21.9405296 77.8357739,21.1764883 C78.0186428,20.7957201 78.0887843,20.3598408 78.1789662,19.9515171 C78.2741583,19.5431933 78.2491077,19.0797584 78.2240572,18.6664245 C78.1814713,17.9299388 77.9760569,17.2009682 77.6278544,16.5496542 C77.3923794,16.1212901 77.1168235,15.7505421 76.7636109,15.4148649 C76.5982774,15.2244809 76.4103984,15.0641574 76.2024789,14.9263795 C75.9895494,14.7936116 75.7691047,14.670864 75.551165,14.5556315 C75.0451442,14.3001161 74.5291031,14.1473078 73.9905166,14.0921966 C73.7049405,14.062136 73.4143542,14.0596309 73.1162529,14.0821764 L73.1162529,14.0821764 Z" id="Fill-12" fill="#029CA6"></path>
            </g>
            <path d="M83.676,135.3 L76.108,135.3 C75.772,135.3 75.628,135.54 75.628,136.1 L75.628,136.596 C75.628,137.156 75.772,137.396 76.108,137.396 L78.652,137.396 L78.652,146.02 C78.652,146.356 78.94,146.532 79.612,146.532 L80.172,146.532 C80.844,146.532 81.132,146.356 81.132,146.02 L81.132,137.396 L83.676,137.396 C84.012,137.396 84.156,137.156 84.156,136.596 L84.156,136.1 C84.156,135.54 84.012,135.3 83.676,135.3 Z M89.612,135.268 C90.076,135.268 90.428,135.348 90.524,135.604 L94.044,145.892 C94.076,146.004 94.092,146.1 94.092,146.18 C94.092,146.404 93.852,146.532 93.292,146.532 L92.588,146.532 C92.124,146.532 91.772,146.452 91.692,146.196 L91.052,144.244 L87.276,144.244 L86.636,146.196 C86.556,146.436 86.284,146.532 85.9,146.532 L85.26,146.532 C84.588,146.532 84.284,146.404 84.284,146.18 C84.284,146.1 84.316,146.004 84.348,145.892 L87.868,135.604 C87.964,135.348 88.316,135.268 88.78,135.268 L89.612,135.268 Z M89.212,138.26 L89.148,138.26 C89.084,138.596 89.036,138.948 88.908,139.284 L87.964,142.132 L90.364,142.132 L89.452,139.284 C89.34,138.948 89.276,138.596 89.212,138.26 Z M100.156,135.172 C96.604,135.172 94.812,137.06 94.812,140.868 C94.812,144.82 96.492,146.628 100.076,146.628 C101.212,146.628 103.804,146.468 103.804,145.364 L103.804,140.916 C103.804,140.468 103.612,140.276 103.164,140.276 L99.916,140.276 C99.58,140.276 99.436,140.516 99.436,141.076 L99.436,141.588 C99.436,142.148 99.58,142.388 99.916,142.388 L101.324,142.388 L101.324,144.42 C100.892,144.5 100.524,144.532 100.076,144.532 C98.236,144.532 97.34,143.284 97.34,140.884 C97.34,138.484 98.22,137.284 100.108,137.284 C101.628,137.284 102.348,137.796 102.54,137.796 C102.94,137.796 103.58,136.74 103.58,136.292 C103.58,135.62 101.564,135.172 100.156,135.172 Z" id="TAG" fill="#029CA6"></path>
        </g>
    </g>
</svg>