<?xml version="1.0" encoding="UTF-8"?>
<svg width="181px" height="182px" viewBox="0 0 181 182" version="1.1" xmlns="http://www.w3.org/2000/svg" xmlns:xlink="http://www.w3.org/1999/xlink">
    <!-- Generator: Sketch 47 (45396) - http://www.bohemiancoding.com/sketch -->
    <title>page-icon--question</title>
    <desc>Created with Sketch.</desc>
    <defs></defs>
    <g id="Wireframes" stroke="none" stroke-width="1" fill="none" fill-rule="evenodd">
        <g id="page-icon--question" transform="translate(0.000000, 0.500000)">
            <circle id="Oval" fill="#FFFFFF" cx="90.4117173" cy="90.417217" r="90.3760365"></circle>
            <g id="Page-1" transform="translate(52.000000, 25.588527)" fill="#029CA6">
                <path d="M9.20569018,72.9545925 C9.14567387,72.8769244 9.08530452,72.7992562 9.02528821,72.721235 C9.08530452,72.7992562 9.14532084,72.8765713 9.20569018,72.9545925 Z M40.9292533,0.000176518562 L40.9603206,0.000176518562 C41.8284388,0.000176518562 42.6965571,0.057368533 43.5632633,0.0979678024 C45.3658708,0.181990638 47.1667132,0.209527534 48.9721451,0.24694947 C50.8033487,0.284018368 52.6183125,0.411111733 54.4371598,0.630347788 C56.4106373,0.867588737 58.3869392,1.10730095 60.3477074,1.43138903 C61.1974677,1.57225084 62.056407,1.72123251 62.8892216,1.94717627 C63.7831116,2.19147796 64.6533481,2.4809684 65.5207604,2.81070508 C67.4222183,3.53584333 69.2661312,4.43926534 70.9857751,5.52732576 C71.850363,6.07488634 72.6503451,6.73683096 73.4351467,7.39030268 C74.113331,7.9572803 74.7728043,8.59980787 75.3517852,9.26740107 C76.681323,10.8006413 77.8618792,12.4295546 78.8422633,14.2070965 C79.2669669,14.9777766 79.6489531,15.7735223 79.9952825,16.5830364 C80.428106,17.5898983 80.8499854,18.6006436 81.207259,19.6378666 C81.8070691,21.3793988 82.3588661,23.1777699 82.6416488,25.0022658 C82.8220508,26.1619927 82.9823297,27.3217197 83.0910651,28.4913317 C83.1712045,29.3615682 83.2082734,30.2371003 83.2372225,31.1101611 C83.2689958,32.0269985 83.289825,32.9427768 83.299357,33.8599673 C83.308889,34.8498834 83.3392502,35.844389 83.3074768,36.8346581 C83.2746444,37.9128335 83.2153342,38.973357 83.0705889,40.0434125 C82.9382,41.0089691 82.7878062,41.9674649 82.5918706,42.9231364 C82.2194164,44.7462201 81.8084812,46.5608309 81.4805097,48.3937997 C81.1564216,50.2140591 80.8309214,52.0261987 80.2928928,53.798092 C79.67649,55.8365284 78.8782731,57.8043573 78.0232171,59.7527692 C76.4772676,63.2736085 74.2294802,66.4442349 71.7165619,69.3345498 C70.5335345,70.6944488 69.3183807,72.0388142 68.0110843,73.282917 C66.5382134,74.6837684 64.9703755,75.9568202 63.3608792,77.1980988 C62.0151017,78.2349688 60.6153095,79.2788996 59.0901891,80.0400476 C57.4104385,80.8767456 55.7140951,81.6996752 53.9789176,82.4159875 C53.9753872,82.4177527 53.9718569,82.4195179 53.9683265,82.420577 C53.9697386,82.4343454 53.9711508,82.4477608 53.972916,82.4615293 C54.0802393,83.248096 54.1812079,84.0350158 54.2828826,84.8222885 C54.4382189,85.8768104 54.6256816,86.9157987 54.8717485,87.9530218 C55.1075773,88.9517638 55.4013042,89.9363844 55.6865582,90.922417 C55.9707531,91.9070376 56.2849561,92.8955415 56.4960723,93.9009913 C56.588568,94.3394634 56.6669423,94.7864084 56.7001278,95.2344125 C56.7138962,95.419404 56.7223691,95.600159 56.7001278,95.7833852 C56.6104563,96.5060522 56.4808917,97.3363955 55.8853181,97.845122 C55.4881513,98.1829786 55.2604424,98.3400801 54.7584236,98.5000059 C54.4067986,98.6119187 53.8126371,98.6105065 53.4596,98.4975347 C53.0634923,98.3690291 52.670562,98.1596781 52.2885758,97.9856308 C51.9327144,97.8242929 51.5881502,97.6438909 51.2404086,97.4659602 C50.4598435,97.0687934 49.6573901,96.7185806 48.8740008,96.3267094 C48.0591911,95.9200106 47.2510891,95.4840097 46.4980609,94.9696347 C45.5960511,94.354644 44.7286388,93.7064678 43.8696995,93.0321669 C43.199282,92.5054355 42.5511058,91.9483429 41.9099904,91.3870139 C41.2699341,90.8256849 40.6245822,90.2643558 40.0177114,89.6659579 C38.8756363,88.5429468 37.8331177,87.299197 36.6133744,86.2580905 C36.3853124,86.2647982 36.1572505,86.2796258 35.9288354,86.2845683 C35.5923911,86.2898639 35.2573588,86.2736242 34.9209144,86.2598557 C34.1237566,86.2252581 33.3128303,86.2319658 32.5213211,86.1260547 C31.9324552,86.0487395 31.3450014,85.9742487 30.7656675,85.8460962 C30.3865056,85.7617203 30.0129923,85.6558092 29.639126,85.5523693 C28.8793901,85.3412531 28.1235376,85.1163685 27.3690973,84.8904247 C25.5544865,84.3481597 23.8415503,83.5485306 22.1798046,82.649345 C21.3826467,82.2175806 20.5816055,81.7942891 19.7749157,81.3805296 C18.9844655,80.9766551 18.1820121,80.5819596 17.4371038,80.0954745 C16.5862843,79.539441 15.7905387,78.9078576 14.9962051,78.2762742 C14.2986038,77.7205937 13.5882931,77.1786817 12.8945751,76.6187649 C12.1747324,76.0366066 11.4824266,75.4382087 10.8233063,74.7872082 C10.1257049,74.0977267 9.50435959,73.33905 8.90384344,72.5644865 C8.94444271,72.616736 8.98468894,72.6686324 9.02528821,72.721235 C8.84629839,72.4903487 8.66730857,72.2591094 8.48867178,72.0278701 C8.61117566,72.1849716 8.73403258,72.3438383 8.8568895,72.502352 C7.9259306,71.2999075 7.03768919,70.0667488 6.18828187,68.8064063 C5.49173962,67.7748318 4.84391649,66.6881835 4.33201266,65.551757 C3.69089724,64.1272522 3.14474881,62.679447 2.63602231,61.2023396 C2.18766516,59.9017509 1.73966105,58.6029273 1.39333162,57.2705652 C0.439072274,53.6049807 0.143933236,49.8017117 0.0461419524,46.0273918 C0.0224884649,45.1045528 0.0129564625,44.1834789 0.00730786851,43.2609929 C0.00201231162,42.3879321 -0.0159925818,41.5067514 0.0362569128,40.6336906 C0.15205309,38.6962229 0.422479529,36.7753479 0.81293859,34.8735369 C1.18927617,33.0352725 1.60444783,31.2065402 2.13400352,29.4042857 C2.63849357,27.685701 3.23724453,25.9964183 3.77492008,24.2891308 C4.354254,22.4455709 5.00913787,20.6362556 5.8310083,18.8848385 C6.58968508,17.2672223 7.38825506,15.6453698 8.33404152,14.1269571 C9.35996741,12.4832163 10.5807698,10.9937526 11.8464079,9.53217892 C13.0160199,8.18039976 14.1344415,6.75871926 15.4403258,5.53544562 C16.8291739,4.23379773 18.4810346,3.16762561 20.18691,2.33057459 C20.7277629,2.06438459 21.2696749,1.80243105 21.8310039,1.57895855 C22.2970129,1.39432013 22.7838511,1.17367193 23.2788091,1.07693975 C23.7215177,0.991504768 24.1945874,0.895125633 24.6496523,0.93360668 C24.9670327,0.959731427 25.2826479,0.994329065 25.5986161,1.03422226 C25.7574828,1.05434538 25.9159965,1.0755276 26.0738041,1.09882805 C26.2640911,1.0564636 26.4554372,1.01868863 26.6478424,0.986209211 C27.6684728,0.813574057 28.6915744,0.694953582 29.7231488,0.631759937 C30.6897645,0.571037551 31.6567332,0.529732207 32.6233488,0.464773376 C34.4407839,0.340504308 36.25716,0.166810042 38.0774194,0.082787206 C39.0292075,0.0386575653 39.9778182,0.00264777844 40.9292533,0.000176518562 Z M36.5067572,86.1825406 C36.5127588,86.1835997 36.5184074,86.1843058 36.5244091,86.1850119 C36.524056,86.1846588 36.523703,86.1846588 36.52335,86.1843058 C36.5177014,86.1835997 36.5124058,86.1828936 36.5067572,86.1825406 Z M54.3075952,82.2754787 C54.2359286,82.3058399 54.163556,82.3358481 54.0915365,82.3669153 C54.163556,82.3365541 54.2352226,82.3061929 54.3075952,82.2754787 Z M33.3626086,4.09046466 C32.2166501,4.14765667 31.0685733,4.18084216 29.9222618,4.24227062 C29.7577465,4.56777085 29.5003824,4.844905 29.1840611,5.02954341 C28.8889221,5.20182553 28.5704826,5.28726052 28.2283896,5.28867267 C28.0599909,5.26678436 27.8919453,5.24313088 27.7235466,5.22124257 C27.6317569,5.20747413 27.5399672,5.19370568 27.4481776,5.1806433 C26.7950589,5.09450225 26.1341734,5.00200652 25.4750531,4.95787688 C25.1739124,5.0588455 24.8759491,5.16969915 24.5790449,5.28302407 C24.3252112,5.3945838 24.0731427,5.50932087 23.8207211,5.62652919 C23.3946053,5.82422999 22.9896717,5.92943505 22.5268401,5.82175873 C21.4225399,6.38838331 20.3641346,7.03196999 19.3519772,7.76099166 C18.7775858,8.23476748 18.2356738,8.73007857 17.7156501,9.26740107 C17.1751503,9.82590581 16.6868999,10.4423086 16.1852342,11.0364701 C15.2588647,12.1337095 14.3134313,13.2136501 13.4202474,14.3370142 C13.0036636,14.9096404 12.6001422,15.4879152 12.2340427,16.0947861 C11.8520565,16.7277816 11.5018437,17.3787821 11.1555142,18.0326068 C10.5345219,19.2053962 9.96577912,20.4043102 9.43092787,21.618758 C8.90525559,22.9331152 8.462194,24.2658303 8.04878752,25.6200807 C7.61137452,27.0569419 7.13159707,28.4800345 6.69312496,29.9158365 C5.85148445,32.6772929 5.23649378,35.5259495 4.80790671,38.3813137 C4.69034534,39.4496041 4.61373629,40.5175414 4.61903184,41.5950107 C4.62573955,42.7699183 4.65221733,43.9434137 4.68928623,45.1169091 C4.76059973,47.331511 4.89228258,49.538346 5.15847257,51.7360021 C5.43666583,53.6095702 5.79323333,55.4736062 6.37044903,57.2790381 C6.95719673,59.1113007 7.56759792,60.9439165 8.27473128,62.7331086 C8.85088787,64.01075 9.5054187,65.2421435 10.2757457,66.4163449 C11.0619594,67.6120817 11.8863011,68.7788694 12.7445343,69.9216506 C13.6550171,71.0397191 14.6318708,72.0882394 15.7354649,73.0206105 C16.8171706,73.9346236 17.9115857,74.8376925 19.017651,75.7216975 C19.6135777,76.1552271 20.224685,76.5513348 20.8654473,76.9191994 C21.5510454,77.3124828 22.2585318,77.6694033 22.9522498,78.046094 C24.313561,78.7846476 25.6423927,79.5645066 27.0495987,80.2087994 C27.8905331,80.53783 28.7445299,80.8206127 29.6115891,81.0786829 C30.5372524,81.3540518 31.4593854,81.6273026 32.4094083,81.802409 C33.0752363,81.8648965 33.7403583,81.8821954 34.4107758,81.8949047 C35.0095268,81.9058488 35.601217,81.9189112 36.1953785,81.8631314 C36.54312,81.8084106 36.8926268,81.7526307 37.2431927,81.7515716 C37.8430027,81.7473352 38.4897667,81.9679834 38.9822535,82.3086642 C39.5545267,82.7015945 40.1020873,83.1485395 40.5984575,83.6353777 C41.439745,84.4600725 42.2492591,85.3165405 43.0958421,86.1355867 C43.9798471,86.9906426 44.8885647,87.8192207 45.7796304,88.6661568 C46.603619,89.4498992 47.4392579,90.2096351 48.3211446,90.9234762 C49.0925307,91.492572 49.8829809,92.0309536 50.7359186,92.4750743 C50.8697196,92.5449757 51.0042268,92.6138179 51.139087,92.681601 L51.1179047,92.5852219 C50.8432419,91.3510041 50.5537514,90.1224349 50.3249834,88.8797442 C50.0573812,87.4305268 49.9069874,85.9657758 49.7745985,84.4985535 C49.7181125,83.8726187 49.6683343,83.2463308 49.6256168,82.620396 C49.5747795,81.8592479 49.7332931,81.0772707 50.1537603,80.4319188 C50.4118305,80.0333399 50.6875525,79.7643256 51.0765994,79.4967235 C51.234054,79.3886941 51.4070421,79.3124381 51.5828546,79.2414777 C51.8296276,79.1217981 52.0679276,78.9837606 52.3175249,78.8693765 C52.6567936,78.7147463 52.9974744,78.5618812 53.3325066,78.3977189 C54.0166926,78.0640988 54.6909935,77.7110617 55.3695308,77.3675566 C56.0989055,76.9965146 56.854758,76.649126 57.5456517,76.2078296 C58.137695,75.8286678 58.7103212,75.4293828 59.2730623,75.0092686 C61.095793,73.5745257 62.8772184,72.0543478 64.509662,70.4060175 C66.26814,68.6312999 67.9097626,66.7520833 69.4860734,64.8135564 C70.281113,63.7749212 71.0570886,62.7158098 71.7207984,61.5885623 C72.1193773,60.9128492 72.5246639,60.2381952 72.8766419,59.5363574 C73.2120272,58.8680582 73.533291,58.1969346 73.8467879,57.5180442 C74.9839205,54.7629425 75.9328843,51.9414697 76.4370213,48.9950219 C76.6936793,47.4988506 76.9365689,46.000914 77.2465355,44.5156868 C77.5670932,42.9739737 77.8943586,41.4347318 78.1661972,39.8831337 C78.2145633,39.5110325 78.2586929,39.1389314 78.287995,38.7636529 C78.336008,38.155723 78.3568372,37.5530886 78.3748421,36.9433935 C78.4090867,35.8154399 78.3815498,34.6804255 78.363898,33.5510598 C78.3285943,31.308568 78.2699901,29.0777264 78.0295718,26.8472378 C77.9338988,26.1821159 77.8304589,25.5187591 77.6853606,24.861404 C77.5074299,24.0617749 77.30867,23.2702656 77.0936704,22.4798155 C76.7060356,21.0538986 76.2015456,19.6654035 75.6532789,18.2949134 C75.2303404,17.3530104 74.7855137,16.4234636 74.2679612,15.5281615 C73.7549983,14.6438035 73.1919041,13.802163 72.5913879,12.9771152 C72.0703051,12.3405893 71.5407494,11.7044164 70.9487062,11.1332023 C70.4014986,10.6061179 69.844406,10.1040991 69.2601296,9.62185035 C68.4605005,9.04004517 67.6389831,8.48860117 66.7602737,8.02753469 C65.9087482,7.58129576 65.0466315,7.16577106 64.1679221,6.77601808 C63.4597296,6.49500052 62.7462416,6.23693039 62.0122774,6.02510811 C61.1946434,5.78927931 60.3547681,5.60993645 59.5148928,5.46377908 C57.8644442,5.17887812 56.2051697,4.95646473 54.5458952,4.72981489 C52.9717027,4.52222906 51.3925676,4.33370724 49.8049597,4.27933952 C47.9045608,4.21296854 46.0055741,4.17025105 44.1065874,4.05445487 C42.3650553,3.94960285 40.6355264,3.80768192 38.8897578,3.84475082 C37.0444328,3.88464402 35.2051093,3.99796893 33.3626086,4.09046466 Z M42.8142244,16.0701088 C43.580315,15.9380729 44.3464055,15.8512257 45.1195568,15.8512257 C45.2911329,15.8512257 45.463415,15.8554622 45.6356971,15.8646412 C46.8271974,15.9267757 48.0462346,16.1156505 49.1593607,16.5512984 C49.7026848,16.7638267 50.2777823,17.0024798 50.7713282,17.318095 C51.2472222,17.6202948 51.6924021,17.9401464 52.1393471,18.2875349 C52.5156846,18.5812618 52.8828432,18.8848738 53.2206998,19.2227303 C53.6563476,19.656966 54.0273896,20.1314479 54.402315,20.6211103 C55.3512788,21.8592115 55.7773946,23.3928048 56.0308753,24.9083932 C56.1332561,25.5219717 56.2310473,26.1772086 56.2571721,26.8031435 C56.3249552,28.3476809 56.0199311,29.860798 55.38164,31.2644736 C55.2075927,31.6478719 55.039547,32.037978 54.8132502,32.3952515 C54.4672739,32.9399878 54.0948197,33.4557751 53.6838845,33.9549696 C52.4249541,35.4857385 50.779448,36.6677068 49.115231,37.7239939 C48.4229252,38.162466 47.7030825,38.5501008 46.9595863,38.894665 C46.2895219,39.2056907 45.6487595,39.5396639 45.045419,39.9604841 C44.8244178,40.1539485 44.6175381,40.3565918 44.4230146,40.57724 C44.1900101,40.9073297 43.9827773,41.2526 43.8030814,41.614463 C43.7402408,41.794512 43.6883443,41.9759731 43.6491572,42.1644949 C43.44722,44.0129973 43.4542807,45.8823289 43.4059146,47.7400102 C43.3783777,48.793473 43.3494287,49.8472888 43.3656684,50.9021638 C43.3741413,51.3780578 43.3797899,51.8535988 43.3988539,52.3294929 C43.4087389,52.5377848 43.4196831,52.7446645 43.4348637,52.9529564 C43.4638127,53.3871921 43.3960296,53.7871831 43.3314238,54.2242431 C43.2332795,54.8738314 42.6362937,55.5138877 42.0957939,55.8309151 C41.4737424,56.1934842 40.718243,56.2930407 40.024525,56.1013415 C39.3526954,55.9163501 38.7694781,55.4669338 38.4178531,54.8671237 C38.027394,54.1995305 38.0150377,53.5319373 38.1460145,52.7940897 C38.1615481,52.7093608 38.1770818,52.6246319 38.1922624,52.539903 C38.2088551,52.3383188 38.2215644,52.1374407 38.2342738,51.9365625 C38.3543064,50.1396036 38.521293,48.3482932 38.7059314,46.5566298 C38.8107834,45.5430602 38.921284,44.5294906 39.0603807,43.5201574 C39.1281638,43.0347314 39.2012425,42.5507175 39.2838532,42.0681157 C39.3473998,41.6875417 39.4148299,41.2875507 39.548631,40.9246285 C40.2988349,38.8879573 41.7191032,37.1531329 43.5245351,35.955984 C44.2140166,35.4980948 44.940567,35.1037524 45.6356971,34.6543361 C46.27187,34.2426948 46.8829773,33.788336 47.4894951,33.3336242 C48.3689106,32.6254317 49.1858385,31.8776991 49.9258043,31.0226432 C50.1743424,30.6745486 50.4069939,30.3197463 50.6251708,29.9476451 C50.7473217,29.7386472 50.8525267,29.5211763 50.9506711,29.3005281 C51.1173046,28.8320478 51.2458101,28.3649797 51.3368937,27.882378 C51.3771399,27.2278471 51.3375997,26.5884969 51.2684045,25.9403207 C51.1617873,25.2949689 51.0283392,24.6637385 50.8161639,24.0427462 C50.6512956,23.7140686 50.4610086,23.4072793 50.2513045,23.1064917 C49.7595238,22.5497522 49.2310272,22.0417317 48.6612253,21.569015 C48.192392,21.2459861 47.7161449,20.9593199 47.2042411,20.7139591 C46.5521815,20.4795425 45.8927081,20.3157332 45.2127586,20.2006431 C44.5395168,20.1551013 43.8885164,20.1681637 43.2202171,20.2288861 C41.4730364,20.5353223 39.7999934,21.0698205 38.1449554,21.7088177 C37.2542427,22.1038663 36.3931852,22.5306882 35.5617827,23.0468284 C34.5799865,23.6575827 33.6172542,24.2934025 32.6079211,24.858968 C31.6755501,25.3800508 30.4716935,25.0891482 29.9241329,24.1539529 C29.3917529,23.2452353 29.696777,21.9916005 30.6273828,21.4705177 C31.4383091,21.016865 32.2231106,20.5243782 32.9927316,20.0047075 C33.6698568,19.5468184 34.356514,19.0818685 35.0915373,18.7192994 C36.800237,17.8780119 38.5735425,17.2146551 40.3899185,16.6452062 C41.1814277,16.3984333 41.9976495,16.2106175 42.8142244,16.0701088 Z M39.2655658,61.8642489 C39.6334305,61.6714907 40.0288321,61.5807601 40.4394143,61.5807601 C40.484603,61.5807601 40.5301448,61.5818192 40.5756866,61.5842905 C41.3520152,61.6217124 42.1396411,61.9263835 42.6540162,62.5233693 C43.2054602,63.1620134 43.5323725,63.9701154 43.4825943,64.822347 C43.4303448,65.6954078 42.9819877,66.5324589 42.2303716,66.99988 C41.5560707,67.4189351 40.6695945,67.5830973 39.894325,67.3790419 C39.5758855,67.2950191 39.2585051,67.1693378 38.991256,66.9751674 C38.6975291,66.7612269 38.5552551,66.6330744 38.3497875,66.3322868 C38.2424642,66.191778 38.1665613,66.0332644 38.1224316,65.8592171 C37.9678014,65.4758187 37.9582694,64.9780364 38.0768898,64.5822818 C38.0814793,64.5671012 38.0860688,64.5519206 38.0910113,64.53674 C37.9017834,64.0191876 37.9346159,63.4236139 38.2230472,62.9138283 C38.4726444,62.4725319 38.810501,62.102902 39.2655658,61.8642489 Z" id="Combined-Shape"></path>
            </g>
            <path d="M57.8191214,134.588527 C61.1151214,134.588527 62.9391214,136.620527 62.9391214,140.316527 C62.9391214,142.844527 62.0431214,144.588527 60.4271214,145.420527 L60.4271214,145.484527 L62.8751214,146.364527 C63.0191214,146.412527 63.0991214,146.508527 63.0991214,146.620527 C63.0991214,146.876527 62.7311214,148.252527 62.2191214,148.252527 C62.0591214,148.252527 62.1071214,148.236527 55.5951214,145.660527 C53.7071214,144.924527 52.6831214,143.084527 52.6831214,140.316527 C52.6831214,136.620527 54.5231214,134.588527 57.8191214,134.588527 Z M57.8191214,136.700527 C56.1071214,136.700527 55.2111214,137.964527 55.2111214,140.316527 C55.2111214,142.716527 56.1071214,144.012527 57.8191214,144.012527 C59.5311214,144.012527 60.4111214,142.716527 60.4111214,140.316527 C60.4111214,137.964527 59.5311214,136.700527 57.8191214,136.700527 Z M73.0351214,134.684527 L72.5071214,134.684527 C71.8351214,134.684527 71.5471214,134.860527 71.5471214,135.196527 L71.5471214,142.012527 C71.5471214,143.132527 70.6511214,143.948527 69.3551214,143.948527 C68.0591214,143.948527 67.1791214,143.132527 67.1791214,142.012527 L67.1791214,135.196527 C67.1791214,134.860527 66.8911214,134.684527 66.2191214,134.684527 L65.6751214,134.684527 C65.0031214,134.684527 64.7151214,134.860527 64.7151214,135.196527 L64.7151214,142.172527 C64.7151214,144.636527 66.4271214,146.044527 69.3551214,146.044527 C72.2831214,146.044527 73.9951214,144.636527 73.9951214,142.172527 L73.9951214,135.196527 C73.9951214,134.860527 73.7071214,134.684527 73.0351214,134.684527 Z M82.6511214,134.716527 L76.7951214,134.716527 C76.3471214,134.716527 76.1551214,134.908527 76.1551214,135.356527 L76.1551214,145.276527 C76.1551214,145.724527 76.3471214,145.916527 76.7951214,145.916527 L82.6671214,145.916527 C83.0031214,145.916527 83.1471214,145.676527 83.1471214,145.116527 L83.1471214,144.620527 C83.1471214,144.060527 83.0031214,143.820527 82.6671214,143.820527 L78.6191214,143.820527 L78.6191214,141.228527 L82.2191214,141.228527 C82.5551214,141.228527 82.6991214,140.988527 82.6991214,140.428527 L82.6991214,139.932527 C82.6991214,139.372527 82.5551214,139.132527 82.2191214,139.132527 L78.6191214,139.132527 L78.6191214,136.812527 L82.6511214,136.812527 C82.9871214,136.812527 83.1311214,136.572527 83.1311214,136.012527 L83.1311214,135.516527 C83.1311214,134.956527 82.9871214,134.716527 82.6511214,134.716527 Z M88.1551214,134.588527 C86.2831214,134.588527 84.3631214,135.516527 84.3631214,137.820527 C84.3631214,139.740527 85.4191214,140.508527 86.5231214,141.036527 C87.7231214,141.596527 88.9871214,141.868527 88.9871214,142.828527 C88.9871214,143.740527 88.1711214,143.948527 87.4831214,143.948527 C86.2031214,143.948527 85.4191214,143.212527 85.1311214,143.212527 C84.7951214,143.212527 84.1391214,144.140527 84.1391214,144.636527 C84.1391214,145.180527 85.4671214,146.044527 87.8991214,146.044527 C89.6431214,146.044527 91.5151214,145.148527 91.5151214,142.540527 C91.5151214,140.364527 89.9151214,139.708527 88.6031214,139.164527 C87.6751214,138.796527 86.8911214,138.476527 86.8911214,137.596527 C86.8911214,137.228527 87.1311214,136.700527 88.3791214,136.700527 C89.4511214,136.700527 89.9471214,137.100527 90.1551214,137.100527 C90.5391214,137.100527 91.0351214,136.140527 91.0351214,135.708527 C91.0351214,135.180527 89.8511214,134.588527 88.1551214,134.588527 Z M99.9631214,134.716527 L92.3951214,134.716527 C92.0591214,134.716527 91.9151214,134.956527 91.9151214,135.516527 L91.9151214,136.012527 C91.9151214,136.572527 92.0591214,136.812527 92.3951214,136.812527 L94.9391214,136.812527 L94.9391214,145.436527 C94.9391214,145.772527 95.2271214,145.948527 95.8991214,145.948527 L96.4591214,145.948527 C97.1311214,145.948527 97.4191214,145.772527 97.4191214,145.436527 L97.4191214,136.812527 L99.9631214,136.812527 C100.299121,136.812527 100.443121,136.572527 100.443121,136.012527 L100.443121,135.516527 C100.443121,134.956527 100.299121,134.716527 99.9631214,134.716527 Z M103.099121,134.668527 L102.539121,134.668527 C101.867121,134.668527 101.579121,134.860527 101.579121,135.196527 L101.579121,145.436527 C101.579121,145.772527 101.867121,145.964527 102.539121,145.964527 L103.099121,145.964527 C103.771121,145.964527 104.059121,145.772527 104.059121,145.436527 L104.059121,135.196527 C104.059121,134.860527 103.771121,134.668527 103.099121,134.668527 Z M110.939121,134.588527 C114.235121,134.588527 116.059121,136.620527 116.059121,140.316527 C116.059121,144.012527 114.235121,146.044527 110.939121,146.044527 C107.643121,146.044527 105.803121,144.012527 105.803121,140.316527 C105.803121,136.620527 107.643121,134.588527 110.939121,134.588527 Z M110.939121,136.700527 C109.227121,136.700527 108.331121,137.964527 108.331121,140.316527 C108.331121,142.668527 109.227121,143.948527 110.939121,143.948527 C112.651121,143.948527 113.531121,142.668527 113.531121,140.316527 C113.531121,137.964527 112.651121,136.700527 110.939121,136.700527 Z M126.219121,134.684527 L125.755121,134.684527 C125.083121,134.684527 124.795121,134.860527 124.795121,135.196527 L124.795121,141.596527 L124.363121,140.940527 L120.587121,135.116527 C120.347121,134.748527 119.995121,134.684527 119.531121,134.684527 L118.843121,134.684527 C118.171121,134.684527 117.883121,134.860527 117.883121,135.196527 L117.883121,145.436527 C117.883121,145.772527 118.171121,145.948527 118.843121,145.948527 L119.307121,145.948527 C119.979121,145.948527 120.267121,145.772527 120.267121,145.436527 L120.267121,138.956527 L124.555121,145.516527 C124.795121,145.884527 125.147121,145.948527 125.611121,145.948527 L126.219121,145.948527 C126.891121,145.948527 127.179121,145.772527 127.179121,145.436527 L127.179121,135.196527 C127.179121,134.860527 126.891121,134.684527 126.219121,134.684527 Z" id="QUESTION" fill="#029CA6"></path>
        </g>
    </g>
</svg>