<?xml version="1.0" encoding="UTF-8"?>
<svg width="181px" height="182px" viewBox="0 0 181 182" version="1.1" xmlns="http://www.w3.org/2000/svg" xmlns:xlink="http://www.w3.org/1999/xlink">
    <!-- Generator: Sketch 47 (45396) - http://www.bohemiancoding.com/sketch -->
    <title>page-icon--how-to</title>
    <desc>Created with Sketch.</desc>
    <defs></defs>
    <g id="Wireframes" stroke="none" stroke-width="1" fill="none" fill-rule="evenodd">
        <g id="page-icon--how-to" transform="translate(0.000000, 0.500000)">
            <circle id="Oval" fill="#FFFFFF" cx="90.4117173" cy="90.417217" r="90.3760365"></circle>
            <path d="M71.8849704,114.348955 L71.3249704,114.348955 C70.6529704,114.348955 70.3649704,114.524955 70.3649704,114.860955 L70.3649704,118.812955 L66.0449704,118.812955 L66.0449704,114.860955 C66.0449704,114.524955 65.7569704,114.348955 65.0849704,114.348955 L64.5249704,114.348955 C63.8529704,114.348955 63.5649704,114.524955 63.5649704,114.860955 L63.5649704,125.100955 C63.5649704,125.436955 63.8529704,125.612955 64.5249704,125.612955 L65.0849704,125.612955 C65.7569704,125.612955 66.0449704,125.436955 66.0449704,125.100955 L66.0449704,120.924955 L70.3649704,120.924955 L70.3649704,125.100955 C70.3649704,125.436955 70.6529704,125.612955 71.3249704,125.612955 L71.8849704,125.612955 C72.5569704,125.612955 72.8449704,125.436955 72.8449704,125.100955 L72.8449704,114.860955 C72.8449704,114.524955 72.5569704,114.348955 71.8849704,114.348955 Z M79.8049704,114.252955 C83.1009704,114.252955 84.9249704,116.284955 84.9249704,119.980955 C84.9249704,123.676955 83.1009704,125.708955 79.8049704,125.708955 C76.5089704,125.708955 74.6689704,123.676955 74.6689704,119.980955 C74.6689704,116.284955 76.5089704,114.252955 79.8049704,114.252955 Z M79.8049704,116.364955 C78.0929704,116.364955 77.1969704,117.628955 77.1969704,119.980955 C77.1969704,122.332955 78.0929704,123.612955 79.8049704,123.612955 C81.5169704,123.612955 82.3969704,122.332955 82.3969704,119.980955 C82.3969704,117.628955 81.5169704,116.364955 79.8049704,116.364955 Z M98.8289704,114.348955 L98.6529704,114.348955 C98.0289704,114.348955 97.6609704,114.508955 97.5809704,114.844955 L96.3329704,119.996955 C96.1889704,120.604955 95.9969704,121.532955 95.7889704,122.412955 C95.5969704,121.516955 95.3889704,120.604955 95.2449704,119.996955 L93.9809704,114.684955 C93.9169704,114.428955 93.6129704,114.348955 93.1009704,114.348955 L92.4929704,114.348955 C91.9809704,114.348955 91.6769704,114.428955 91.6129704,114.684955 L90.3009704,119.996955 C90.1569704,120.540955 89.9009704,121.404955 89.7569704,122.300955 C89.5649704,121.404955 89.3889704,120.540955 89.2609704,119.996955 L88.0609704,114.844955 C87.9809704,114.508955 87.6129704,114.348955 86.9889704,114.348955 L86.5729704,114.348955 C85.8849704,114.348955 85.5809704,114.508955 85.5809704,114.764955 C85.5809704,114.828955 85.5809704,114.908955 85.6129704,115.004955 L88.1409704,125.276955 C88.1889704,125.500955 88.5089704,125.612955 89.0209704,125.612955 L90.1729704,125.612955 C90.6209704,125.612955 90.9889704,125.500955 91.0529704,125.276955 L92.4129704,119.740955 L92.6849704,118.652955 L92.9409704,119.740955 L94.2529704,125.276955 C94.3009704,125.500955 94.6849704,125.612955 95.1329704,125.612955 L96.3009704,125.612955 C96.7489704,125.612955 97.1169704,125.500955 97.1809704,125.276955 L99.7889704,115.004955 C99.8049704,114.908955 99.8209704,114.828955 99.8209704,114.764955 C99.8209704,114.508955 99.5169704,114.348955 98.8289704,114.348955 Z M103.94897,120.476955 L100.68497,120.476955 C100.34897,120.476955 100.20497,120.716955 100.20497,121.276955 L100.20497,121.388955 C100.20497,121.948955 100.34897,122.188955 100.68497,122.188955 L103.94897,122.188955 C104.28497,122.188955 104.42897,121.948955 104.42897,121.388955 L104.42897,121.276955 C104.42897,120.716955 104.28497,120.476955 103.94897,120.476955 Z M113.05297,114.380955 L105.48497,114.380955 C105.14897,114.380955 105.00497,114.620955 105.00497,115.180955 L105.00497,115.676955 C105.00497,116.236955 105.14897,116.476955 105.48497,116.476955 L108.02897,116.476955 L108.02897,125.100955 C108.02897,125.436955 108.31697,125.612955 108.98897,125.612955 L109.54897,125.612955 C110.22097,125.612955 110.50897,125.436955 110.50897,125.100955 L110.50897,116.476955 L113.05297,116.476955 C113.38897,116.476955 113.53297,116.236955 113.53297,115.676955 L113.53297,115.180955 C113.53297,114.620955 113.38897,114.380955 113.05297,114.380955 Z M119.51697,114.252955 C122.81297,114.252955 124.63697,116.284955 124.63697,119.980955 C124.63697,123.676955 122.81297,125.708955 119.51697,125.708955 C116.22097,125.708955 114.38097,123.676955 114.38097,119.980955 C114.38097,116.284955 116.22097,114.252955 119.51697,114.252955 Z M119.51697,116.364955 C117.80497,116.364955 116.90897,117.628955 116.90897,119.980955 C116.90897,122.332955 117.80497,123.612955 119.51697,123.612955 C121.22897,123.612955 122.10897,122.332955 122.10897,119.980955 C122.10897,117.628955 121.22897,116.364955 119.51697,116.364955 Z" id="HOW-TO-Copy-2" fill="#029CA6"></path>
            <path d="M133.326335,61.0426408 C135.432651,63.1489573 137.197403,67.3615904 137.197403,70.3787464 L137.197403,135.959196 C137.197403,138.976352 134.749521,141.424233 131.732365,141.424233 L55.2218413,141.424233 C52.2046852,141.424233 49.7568039,138.976352 49.7568039,135.959196 L49.7568039,44.8752384 C49.7568039,41.8580824 52.2046852,39.410201 55.2218413,39.410201 L106.228857,39.410201 C109.246013,39.410201 113.458646,41.1749527 115.564963,43.2812692 L133.326335,61.0426408 Z M108.050536,47.1523374 L108.050536,68.5570673 L129.455266,68.5570673 C129.113702,67.5893003 128.601354,66.6215332 128.202862,66.2230409 L110.384563,48.4047418 C109.986071,48.0062495 109.018303,47.4939022 108.050536,47.1523374 Z M129.910686,134.137516 L129.910686,75.8437839 L106.228857,75.8437839 C103.211701,75.8437839 100.76382,73.3959025 100.76382,70.3787464 L100.76382,46.6969176 L57.0435204,46.6969176 L57.0435204,134.137516 L129.910686,134.137516 Z" id="" fill="#029CA6"></path>
        </g>
    </g>
</svg>