<?xml version="1.0" encoding="UTF-8"?>
<svg width="74px" height="72px" viewBox="0 0 74 72" version="1.1" xmlns="http://www.w3.org/2000/svg" xmlns:xlink="http://www.w3.org/1999/xlink">
    <!-- Generator: Sketch 43.2 (39069) - http://www.bohemiancoding.com/sketch -->
    <title>Shape</title>
    <desc>Created with Sketch.</desc>
    <defs></defs>
    <g id="Page-1" stroke="none" stroke-width="1" fill="none" fill-rule="evenodd">
        <path d="M36.9489897,8.43089392 L43.4411574,28.4115192 L43.9615043,30.0131214 L45.6453885,30.0131214 L66.6528008,30.0131214 L49.6586653,42.3600608 L48.2957969,43.3497629 L48.8161438,44.9513651 L55.3071525,64.9308315 L38.3118582,52.5827332 L36.9489897,51.5930311 L35.5861213,52.5827332 L18.5919858,64.9319904 L25.0829946,44.952524 L25.6021826,43.3509218 L24.240473,42.3612197 L7.24517868,30.0131214 L28.2525909,30.0131214 L29.9364752,30.0131214 L30.4556632,28.4115192 L36.9489897,8.43089392 L36.9489897,8.43089392 Z M36.9489897,0.931640625 L28.2525909,27.6953179 L0.112138345,27.6953179 L22.8787634,44.2363227 L14.1823646,71 L36.9489897,54.4589952 L59.7156148,71 L51.0215338,44.2363227 L73.787,27.6953179 L45.6453885,27.6953179 L36.9489897,0.931640625 L36.9489897,0.931640625 Z" id="Shape" stroke="#075AA8" fill="#075AA8" fill-rule="nonzero"></path>
    </g>
</svg>